TwilioSansMono-RegularItalic.ufo
<glyph name="exclam" format="2">
	<unicode hex="0021"/>
	<advance width="600"/>
	<outline>
		<contour>
			<point x="259" y="198" type="line"/>
			<point x="320" y="198" type="line"/>
			<point x="384" y="538" type="line"/>
			<point x="405" y="684" type="line"/>
			<point x="311" y="684" type="line"/>
			<point x="291" y="539" type="line"/>
		</contour>
		<contour>
			<point x="267" y="-12" type="curve" smooth="yes"/>
			<point x="312" y="-12"/>
			<point x="331" y="6"/>
			<point x="336" y="44" type="curve" smooth="yes"/>
			<point x="341" y="84"/>
			<point x="323" y="108"/>
			<point x="274" y="108" type="curve" smooth="yes"/>
			<point x="228" y="108"/>
			<point x="209" y="89"/>
			<point x="204" y="52" type="curve" smooth="yes"/>
			<point x="199" y="11"/>
			<point x="217" y="-12"/>
		</contour>
	</outline>
</glyph>
<glyph name="numbersign" format="2">
	<unicode hex="0023"/>
	<advance width="600"/>
	<outline>
		<contour>
			<point x="34" y="236" type="line"/>
			<point x="24" y="168" type="line"/>
			<point x="128" y="168" type="line"/>
			<point x="88" y="0" type="line"/>
			<point x="160" y="0" type="line"/>
			<point x="200" y="168" type="line"/>
			<point x="341" y="168" type="line"/>
			<point x="301" y="0" type="line"/>
			<point x="373" y="0" type="line"/>
			<point x="413" y="168" type="line"/>
			<point x="526" y="168" type="line"/>
			<point x="535" y="236" type="line"/>
			<point x="429" y="236" type="line"/>
			<point x="482" y="460" type="line"/>
			<point x="591" y="460" type="line"/>
			<point x="600" y="528" type="line"/>
			<point x="498" y="528" type="line"/>
			<point x="535" y="684" type="line"/>
			<point x="462" y="684" type="line"/>
			<point x="425" y="528" type="line"/>
			<point x="284" y="528" type="line"/>
			<point x="321" y="684" type="line"/>
			<point x="250" y="684" type="line"/>
			<point x="213" y="528" type="line"/>
			<point x="98" y="528" type="line"/>
			<point x="90" y="460" type="line"/>
			<point x="197" y="460" type="line"/>
			<point x="144" y="236" type="line"/>
		</contour>
		<contour>
			<point x="216" y="236" type="line"/>
			<point x="268" y="460" type="line"/>
			<point x="409" y="460" type="line"/>
			<point x="357" y="236" type="line"/>
		</contour>
	</outline>
</glyph>
<glyph name="parenleft" format="2">
	<unicode hex="0028"/>
	<advance width="600"/>
	<outline>
		<contour>
			<point x="404" y="-168" type="curve"/>
			<point x="439" y="-99" type="line"/>
			<point x="283" y="-31"/>
			<point x="228" y="116"/>
			<point x="258" y="331" type="curve" smooth="yes"/>
			<point x="287" y="540"/>
			<point x="374" y="672"/>
			<point x="558" y="726" type="curve"/>
			<point x="540" y="798" type="line"/>
			<point x="317" y="733"/>
			<point x="211" y="571"/>
			<point x="179" y="340" type="curve" smooth="yes"/>
			<point x="146" y="101"/>
			<point x="208" y="-78"/>
		</contour>
	</outline>
</glyph>
<glyph name="parenright" format="2">
	<unicode hex="0029"/>
	<advance width="600"/>
	<outline>
		<contour>
			<point x="57" y="-97" type="curve"/>
			<point x="75" y="-168" type="line"/>
			<point x="300" y="-103"/>
			<point x="404" y="58"/>
			<point x="436" y="287" type="curve" smooth="yes"/>
			<point x="470" y="524"/>
			<point x="407" y="706"/>
			<point x="211" y="798" type="curve"/>
			<point x="176" y="729" type="line"/>
			<point x="341" y="656"/>
			<point x="385" y="496"/>
			<point x="357" y="295" type="curve" smooth="yes"/>
			<point x="329" y="97"/>
			<point x="246" y="-42"/>
		</contour>
	</outline>
</glyph>
<glyph name="asterisk" format="2">
	<unicode hex="002A"/>
	<advance width="600"/>
	<outline>
		<contour>
			<point x="473" y="163" type="line"/>
			<point x="526" y="238" type="line"/>
			<point x="353" y="320" type="line"/>
			<point x="549" y="403" type="line"/>
			<point x="517" y="477" type="line"/>
			<point x="338" y="359" type="line"/>
			<point x="386" y="560" type="line"/>
			<point x="300" y="560" type="line"/>
			<point x="293" y="357" type="line"/>
			<point x="144" y="478" type="line"/>
			<point x="91" y="404" type="line"/>
			<point x="265" y="321" type="line"/>
			<point x="67" y="238" type="line"/>
			<point x="99" y="163" type="line"/>
			<point x="283" y="284" type="line"/>
			<point x="233" y="79" type="line"/>
			<point x="319" y="79" type="line"/>
			<point x="326" y="281" type="line"/>
		</contour>
	</outline>
</glyph>
<glyph name="plus" format="2">
	<unicode hex="002B"/>
	<advance width="600"/>
	<outline>
		<contour>
			<point x="299" y="527" type="line"/>
			<point x="272" y="338" type="line"/>
			<point x="87" y="338" type="line"/>
			<point x="75" y="264" type="line"/>
			<point x="262" y="264" type="line"/>
			<point x="235" y="74" type="line"/>
			<point x="311" y="74" type="line"/>
			<point x="338" y="264" type="line"/>
			<point x="524" y="264" type="line"/>
			<point x="535" y="338" type="line"/>
			<point x="348" y="338" type="line"/>
			<point x="375" y="527" type="line"/>
		</contour>
	</outline>
</glyph>
<glyph name="comma" format="2">
	<unicode hex="002C"/>
	<advance width="600"/>
	<outline>
		<contour>
			<point x="244" y="119" type="line"/>
			<point x="149" y="-175" type="line"/>
			<point x="211" y="-175" type="line"/>
			<point x="366" y="119" type="line"/>
		</contour>
	</outline>
</glyph>
<glyph name="zero" format="2">
	<unicode hex="0030"/>
	<advance width="600"/>
	<outline>
		<contour>
			<point x="280" y="-14" type="curve" smooth="yes"/>
			<point x="433" y="-14"/>
			<point x="523" y="110"/>
			<point x="550" y="303" type="curve" smooth="yes"/>
			<point x="552" y="317" type="line" smooth="yes"/>
			<point x="588" y="564"/>
			<point x="510" y="698"/>
			<point x="341" y="698" type="curve" smooth="yes"/>
			<point x="194" y="698"/>
			<point x="101" y="574"/>
			<point x="73" y="380" type="curve" smooth="yes"/>
			<point x="71" y="366" type="line" smooth="yes"/>
			<point x="36" y="120"/>
			<point x="111" y="-14"/>
		</contour>
		<contour>
			<point x="284" y="58" type="curve" smooth="yes"/>
			<point x="164" y="58"/>
			<point x="126" y="171"/>
			<point x="153" y="361" type="curve" smooth="yes"/>
			<point x="154" y="368" type="line" smooth="yes"/>
			<point x="178" y="536"/>
			<point x="240" y="626"/>
			<point x="338" y="626" type="curve" smooth="yes"/>
			<point x="458" y="626"/>
			<point x="497" y="513"/>
			<point x="470" y="325" type="curve" smooth="yes"/>
			<point x="469" y="318" type="line" smooth="yes"/>
			<point x="445" y="148"/>
			<point x="387" y="58"/>
		</contour>
		<contour>
			<point x="307" y="277" type="curve" smooth="yes"/>
			<point x="345" y="277"/>
			<point x="368" y="295"/>
			<point x="374" y="337" type="curve" smooth="yes"/>
			<point x="381" y="388"/>
			<point x="357" y="409"/>
			<point x="316" y="409" type="curve" smooth="yes"/>
			<point x="277" y="409"/>
			<point x="254" y="392"/>
			<point x="249" y="349" type="curve" smooth="yes"/>
			<point x="242" y="299"/>
			<point x="266" y="277"/>
		</contour>
	</outline>
</glyph>
<glyph name="one" format="2">
	<unicode hex="0031"/>
	<advance width="600"/>
	<outline>
		<contour>
			<point x="25" y="0" type="line"/>
			<point x="525" y="0" type="line"/>
			<point x="535" y="75" type="line"/>
			<point x="337" y="75" type="line"/>
			<point x="422" y="684" type="line"/>
			<point x="333" y="684" type="line"/>
			<point x="99" y="515" type="line"/>
			<point x="86" y="427" type="line"/>
			<point x="326" y="597" type="line"/>
			<point x="252" y="75" type="line"/>
			<point x="35" y="75" type="line"/>
		</contour>
	</outline>
</glyph>
<glyph name="three" format="2">
	<unicode hex="0033"/>
	<advance width="600"/>
	<outline>
		<contour>
			<point x="262" y="-14" type="curve" smooth="yes"/>
			<point x="418" y="-14"/>
			<point x="518" y="81"/>
			<point x="518" y="230" type="curve" smooth="yes"/>
			<point x="518" y="339"/>
			<point x="455" y="410"/>
			<point x="304" y="410" type="curve" smooth="yes"/>
			<point x="302" y="410" type="line"/>
			<point x="562" y="615" type="line"/>
			<point x="572" y="684" type="line"/>
			<point x="133" y="684" type="line"/>
			<point x="123" y="612" type="line"/>
			<point x="449" y="612" type="line"/>
			<point x="169" y="386" type="line"/>
			<point x="160" y="322" type="line"/>
			<point x="188" y="333"/>
			<point x="235" y="343"/>
			<point x="279" y="343" type="curve" smooth="yes"/>
			<point x="394" y="343"/>
			<point x="432" y="293"/>
			<point x="432" y="220" type="curve" smooth="yes"/>
			<point x="432" y="120"/>
			<point x="367" y="59"/>
			<point x="260" y="59" type="curve" smooth="yes"/>
			<point x="187" y="59"/>
			<point x="116" y="86"/>
			<point x="55" y="145" type="curve"/>
			<point x="44" y="66" type="line"/>
			<point x="88" y="27"/>
			<point x="161" y="-14"/>
		</contour>
	</outline>
</glyph>
<glyph name="four" format="2">
	<unicode hex="0034"/>
	<advance width="600"/>
	<outline>
		<contour>
			<point x="347" y="0" type="line"/>
			<point x="431" y="0" type="line"/>
			<point x="451" y="146" type="line"/>
			<point x="532" y="146" type="line"/>
			<point x="542" y="217" type="line"/>
			<point x="462" y="217" type="line"/>
			<point x="528" y="687" type="line"/>
			<point x="406" y="687" type="line"/>
			<point x="29" y="218" type="line"/>
			<point x="19" y="146" type="line"/>
			<point x="368" y="146" type="line"/>
		</contour>
		<contour>
			<point x="118" y="217" type="line"/>
			<point x="433" y="609" type="line"/>
			<point x="378" y="217" type="line"/>
		</contour>
	</outline>
</glyph>
<glyph name="five" format="2">
	<unicode hex="0035"/>
	<advance width="600"/>
	<outline>
		<contour>
			<point x="266" y="-13" type="curve" smooth="yes"/>
			<point x="419" y="-13"/>
			<point x="519" y="84"/>
			<point x="518" y="237" type="curve" smooth="yes"/>
			<point x="516" y="366"/>
			<point x="433" y="416"/>
			<point x="305" y="416" type="curve" smooth="yes"/>
			<point x="264" y="416"/>
			<point x="231" y="411"/>
			<point x="199" y="402" type="curve"/>
			<point x="228" y="612" type="line"/>
			<point x="563" y="612" type="line"/>
			<point x="573" y="684" type="line"/>
			<point x="159" y="684" type="line"/>
			<point x="108" y="311" type="line"/>
			<point x="161" y="331"/>
			<point x="210" y="346"/>
			<point x="275" y="346" type="curve" smooth="yes"/>
			<point x="381" y="346"/>
			<point x="429" y="308"/>
			<point x="431" y="227" type="curve" smooth="yes"/>
			<point x="432" y="119"/>
			<point x="365" y="60"/>
			<point x="265" y="60" type="curve" smooth="yes"/>
			<point x="198" y="60"/>
			<point x="123" y="86"/>
			<point x="60" y="147" type="curve"/>
			<point x="49" y="68" type="line"/>
			<point x="97" y="21"/>
			<point x="172" y="-13"/>
		</contour>
	</outline>
</glyph>
<glyph name="seven" format="2">
	<unicode hex="0037"/>
	<advance width="600"/>
	<outline>
		<contour>
			<point x="109" y="0" type="line"/>
			<point x="206" y="0" type="line"/>
			<point x="597" y="604" type="line"/>
			<point x="608" y="684" type="line"/>
			<point x="124" y="684" type="line"/>
			<point x="95" y="482" type="line"/>
			<point x="173" y="482" type="line"/>
			<point x="192" y="614" type="line"/>
			<point x="509" y="614" type="line"/>
		</contour>
	</outline>
</glyph>
<glyph name="eight" format="2">
	<unicode hex="0038"/>
	<advance width="600"/>
	<outline>
		<contour>
			<point x="278" y="-14" type="curve" smooth="yes"/>
			<point x="443" y="-14"/>
			<point x="538" y="70"/>
			<point x="538" y="199" type="curve" smooth="yes"/>
			<point x="538" y="278"/>
			<point x="494" y="329"/>
			<point x="410" y="347" type="curve"/>
			<point x="515" y="368"/>
			<point x="573" y="433"/>
			<point x="573" y="532" type="curve" smooth="yes"/>
			<point x="573" y="639"/>
			<point x="488" y="698"/>
			<point x="346" y="698" type="curve" smooth="yes"/>
			<point x="195" y="698"/>
			<point x="104" y="627"/>
			<point x="104" y="501" type="curve" smooth="yes"/>
			<point x="104" y="420"/>
			<point x="154" y="372"/>
			<point x="219" y="354" type="curve"/>
			<point x="105" y="340"/>
			<point x="40" y="273"/>
			<point x="40" y="165" type="curve" smooth="yes"/>
			<point x="40" y="39"/>
			<point x="144" y="-14"/>
		</contour>
		<contour>
			<point x="329" y="383" type="curve" smooth="yes"/>
			<point x="243" y="383"/>
			<point x="186" y="427"/>
			<point x="186" y="498" type="curve" smooth="yes"/>
			<point x="186" y="584"/>
			<point x="239" y="629"/>
			<point x="342" y="629" type="curve" smooth="yes"/>
			<point x="430" y="629"/>
			<point x="487" y="597"/>
			<point x="487" y="521" type="curve" smooth="yes"/>
			<point x="487" y="433"/>
			<point x="431" y="383"/>
		</contour>
		<contour>
			<point x="283" y="56" type="curve" smooth="yes"/>
			<point x="194" y="56"/>
			<point x="127" y="92"/>
			<point x="127" y="176" type="curve" smooth="yes"/>
			<point x="127" y="268"/>
			<point x="185" y="315"/>
			<point x="296" y="315" type="curve" smooth="yes"/>
			<point x="401" y="315"/>
			<point x="451" y="278"/>
			<point x="451" y="203" type="curve" smooth="yes"/>
			<point x="451" y="110"/>
			<point x="389" y="56"/>
		</contour>
	</outline>
</glyph>
<glyph name="less" format="2">
	<unicode hex="003C"/>
	<advance width="600"/>
	<outline>
		<contour>
			<point x="493" y="40" type="line"/>
			<point x="505" y="123" type="line"/>
			<point x="153" y="299" type="line"/>
			<point x="555" y="477" type="line"/>
			<point x="567" y="565" type="line"/>
			<point x="87" y="348" type="line"/>
			<point x="75" y="256" type="line"/>
		</contour>
	</outline>
</glyph>
<glyph name="at" format="2">
	<unicode hex="0040"/>
	<advance width="600"/>
	<outline>
		<contour>
			<point x="327" y="-135" type="curve" smooth="yes"/>
			<point x="391" y="-135"/>
			<point x="451" y="-119"/>
			<point x="489" y="-99" type="curve"/>
			<point x="498" y="-28" type="line"/>
			<point x="450" y="-54"/>
			<point x="394" y="-64"/>
			<point x="336" y="-64" type="curve" smooth="yes"/>
			<point x="163" y="-64"/>
			<point x="91" y="64"/>
			<point x="124" y="292" type="curve" smooth="yes"/>
			<point x="125" y="299" type="line" smooth="yes"/>
			<point x="156" y="518"/>
			<point x="235" y="629"/>
			<point x="366" y="629" type="curve" smooth="yes"/>
			<point x="478" y="629"/>
			<point x="511" y="559"/>
			<point x="496" y="452" type="curve" smooth="yes"/>
			<point x="488" y="395" type="line"/>
			<point x="471" y="460"/>
			<point x="432" y="492"/>
			<point x="370" y="492" type="curve" smooth="yes"/>
			<point x="287" y="492"/>
			<point x="222" y="421"/>
			<point x="203" y="288" type="curve" smooth="yes"/>
			<point x="183" y="147"/>
			<point x="232" y="63"/>
			<point x="328" y="63" type="curve" smooth="yes"/>
			<point x="390" y="63"/>
			<point x="432" y="106"/>
			<point x="457" y="162" type="curve"/>
			<point x="443" y="67" type="line"/>
			<point x="513" y="67" type="line"/>
			<point x="568" y="452" type="line" smooth="yes"/>
			<point x="590" y="607"/>
			<point x="530" y="698"/>
			<point x="372" y="698" type="curve" smooth="yes"/>
			<point x="190" y="698"/>
			<point x="87" y="557"/>
			<point x="52" y="310" type="curve" smooth="yes"/>
			<point x="50" y="296" type="line" smooth="yes"/>
			<point x="10" y="15"/>
			<point x="117" y="-135"/>
		</contour>
		<contour>
			<point x="357" y="125" type="curve" smooth="yes"/>
			<point x="294" y="125"/>
			<point x="261" y="182"/>
			<point x="275" y="282" type="curve" smooth="yes"/>
			<point x="288" y="382"/>
			<point x="330" y="430"/>
			<point x="388" y="430" type="curve" smooth="yes"/>
			<point x="447" y="430"/>
			<point x="488" y="377"/>
			<point x="473" y="275" type="curve" smooth="yes"/>
			<point x="460" y="181"/>
			<point x="423" y="125"/>
		</contour>
	</outline>
</glyph>
<glyph name="B" format="2">
	<unicode hex="0042"/>
	<advance width="600"/>
	<outline>
		<contour>
			<point x="377" y="685" type="curve" smooth="yes"/>
			<point x="140" y="685" type="line"/>
			<point x="44" y="0" type="line"/>
			<point x="317" y="0" type="line" smooth="yes"/>
			<point x="445" y="0"/>
			<point x="533" y="73"/>
			<point x="533" y="197" type="curve" smooth="yes"/>
			<point x="533" y="279"/>
			<point x="493" y="330"/>
			<point x="407" y="348" type="curve"/>
			<point x="505" y="364"/>
			<point x="566" y="426"/>
			<point x="566" y="523" type="curve" smooth="yes"/>
			<point x="566" y="614"/>
			<point x="513" y="685"/>
		</contour>
		<contour>
			<point x="360" y="614" type="line" smooth="yes"/>
			<point x="441" y="614"/>
			<point x="479" y="579"/>
			<point x="479" y="508" type="curve" smooth="yes"/>
			<point x="479" y="425"/>
			<point x="422" y="381"/>
			<point x="335" y="381" type="curve" smooth="yes"/>
			<point x="181" y="381" type="line"/>
			<point x="214" y="614" type="line"/>
		</contour>
		<contour>
			<point x="318" y="311" type="line" smooth="yes"/>
			<point x="413" y="311"/>
			<point x="444" y="266"/>
			<point x="444" y="199" type="curve" smooth="yes"/>
			<point x="444" y="118"/>
			<point x="396" y="72"/>
			<point x="306" y="72" type="curve" smooth="yes"/>
			<point x="138" y="72" type="line"/>
			<point x="172" y="311" type="line"/>
		</contour>
	</outline>
	<anchor name="top" x="381" y="684"/>
	<anchor name="bottom" x="293" y="0"/>
</glyph>
<glyph name="F" format="2">
	<unicode hex="0046"/>
	<advance width="600"/>
	<outline>
		<contour>
			<point x="61" y="0" type="line"/>
			<point x="146" y="1" type="line"/>
			<point x="188" y="302" type="line"/>
			<point x="505" y="302" type="line"/>
			<point x="515" y="374" type="line"/>
			<point x="198" y="374" type="line"/>
			<point x="232" y="612" type="line"/>
			<point x="586" y="612" type="line"/>
			<point x="596" y="684" type="line"/>
			<point x="157" y="684" type="line"/>
		</contour>
	</outline>
	<anchor name="ogonek" x="528" y="0"/>
	<anchor name="bottom" x="295" y="0"/>
	<anchor name="top" x="380" y="684"/>
</glyph>
<glyph name="G" format="2">
	<unicode hex="0047"/>
	<advance width="600"/>
	<outline>
		<contour>
			<point x="284" y="-14" type="curve" smooth="yes"/>
			<point x="438" y="-14"/>
			<point x="523" y="82"/>
			<point x="553" y="290" type="curve" smooth="yes"/>
			<point x="565" y="374" type="line"/>
			<point x="299" y="374" type="line"/>
			<point x="289" y="303" type="line"/>
			<point x="471" y="303" type="line"/>
			<point x="469" y="288" type="line"/>
			<point x="449" y="139"/>
			<point x="400" y="58"/>
			<point x="288" y="58" type="curve" smooth="yes"/>
			<point x="166" y="58"/>
			<point x="117" y="164"/>
			<point x="145" y="357" type="curve" smooth="yes"/>
			<point x="146" y="364" type="line" smooth="yes"/>
			<point x="170" y="536"/>
			<point x="236" y="627"/>
			<point x="371" y="627" type="curve" smooth="yes"/>
			<point x="449" y="627"/>
			<point x="519" y="593"/>
			<point x="554" y="555" type="curve"/>
			<point x="566" y="635" type="line"/>
			<point x="528" y="667"/>
			<point x="462" y="698"/>
			<point x="366" y="698" type="curve" smooth="yes"/>
			<point x="187" y="698"/>
			<point x="89" y="574"/>
			<point x="61" y="380" type="curve" smooth="yes"/>
			<point x="59" y="366" type="line" smooth="yes"/>
			<point x="26" y="138"/>
			<point x="91" y="-14"/>
		</contour>
	</outline>
	<anchor name="top" x="371" y="684"/>
	<anchor name="bottom" x="277" y="0"/>
</glyph>
<glyph name="H" format="2">
	<unicode hex="0048"/>
	<advance width="600"/>
	<outline>
		<contour>
			<point x="39" y="0" type="line"/>
			<point x="124" y="0" type="line"/>
			<point x="167" y="309" type="line"/>
			<point x="445" y="309" type="line"/>
			<point x="402" y="0" type="line"/>
			<point x="487" y="0" type="line"/>
			<point x="583" y="684" type="line"/>
			<point x="498" y="684" type="line"/>
			<point x="456" y="382" type="line"/>
			<point x="178" y="382" type="line"/>
			<point x="220" y="684" type="line"/>
			<point x="135" y="684" type="line"/>
		</contour>
	</outline>
	<anchor name="center" x="337" y="523"/>
	<anchor name="bottom" x="275" y="0"/>
	<anchor name="top" x="359" y="684"/>
</glyph>
<glyph name="J" format="2">
	<unicode hex="004A"/>
	<advance width="600"/>
	<outline>
		<contour>
			<point x="232" y="-13" type="curve" smooth="yes"/>
			<point x="377" y="-13"/>
			<point x="472" y="49"/>
			<point x="493" y="199" type="curve" smooth="yes"/>
			<point x="560" y="684" type="line"/>
			<point x="145" y="684" type="line"/>
			<point x="135" y="609" type="line"/>
			<point x="464" y="609" type="line"/>
			<point x="409" y="217" type="line" smooth="yes"/>
			<point x="392" y="94"/>
			<point x="327" y="59"/>
			<point x="227" y="59" type="curve" smooth="yes"/>
			<point x="163" y="59"/>
			<point x="107" y="78"/>
			<point x="64" y="104" type="curve"/>
			<point x="53" y="31" type="line"/>
			<point x="95" y="5"/>
			<point x="157" y="-13"/>
		</contour>
	</outline>
	<anchor name="top" x="358" y="684"/>
	<anchor name="bottom" x="85" y="0"/>
</glyph>
<glyph name="L" format="2">
	<unicode hex="004C"/>
	<advance width="600"/>
	<outline>
		<contour>
			<point x="63" y="0" type="line"/>
			<point x="500" y="0" type="line"/>
			<point x="512" y="78" type="line"/>
			<point x="159" y="78" type="line"/>
			<point x="243" y="684" type="line"/>
			<point x="159" y="684" type="line"/>
		</contour>
	</outline>
	<anchor name="bottom" x="281" y="0"/>
	<anchor name="caron" x="388" y="684"/>
	<anchor name="top" x="201" y="684"/>
	<anchor name="center" x="149" y="322"/>
</glyph>
<glyph name="M" format="2">
	<unicode hex="004D"/>
	<advance width="600"/>
	<outline>
		<contour>
			<point x="25" y="0" type="line"/>
			<point x="105" y="0" type="line"/>
			<point x="158" y="378" type="line" smooth="yes"/>
			<point x="163" y="419"/>
			<point x="177" y="527"/>
			<point x="180" y="592" type="curve"/>
			<point x="186" y="592" type="line"/>
			<point x="245" y="182" type="line"/>
			<point x="331" y="182" type="line"/>
			<point x="506" y="592" type="line"/>
			<point x="513" y="592" type="line"/>
			<point x="498" y="529"/>
			<point x="485" y="450"/>
			<point x="475" y="378" type="curve" smooth="yes"/>
			<point x="422" y="0" type="line"/>
			<point x="501" y="0" type="line"/>
			<point x="597" y="684" type="line"/>
			<point x="470" y="684" type="line"/>
			<point x="303" y="278" type="line"/>
			<point x="299" y="278" type="line"/>
			<point x="246" y="684" type="line"/>
			<point x="121" y="684" type="line"/>
		</contour>
	</outline>
</glyph>
<glyph name="N" format="2">
	<unicode hex="004E"/>
	<advance width="600"/>
	<outline>
		<contour>
			<point x="40" y="0" type="line"/>
			<point x="119" y="0" type="line"/>
			<point x="169" y="354" type="line" smooth="yes"/>
			<point x="183" y="448"/>
			<point x="185" y="515"/>
			<point x="188" y="585" type="curve"/>
			<point x="194" y="585" type="line"/>
			<point x="379" y="0" type="line"/>
			<point x="487" y="0" type="line"/>
			<point x="583" y="684" type="line"/>
			<point x="503" y="684" type="line"/>
			<point x="453" y="331" type="line" smooth="yes"/>
			<point x="439" y="232"/>
			<point x="437" y="170"/>
			<point x="435" y="99" type="curve"/>
			<point x="429" y="99" type="line"/>
			<point x="244" y="684" type="line"/>
			<point x="136" y="684" type="line"/>
		</contour>
	</outline>
	<anchor name="top" x="377" y="684"/>
	<anchor name="bottom" x="245" y="0"/>
</glyph>
<glyph name="U" format="2">
	<unicode hex="0055"/>
	<advance width="600"/>
	<outline>
		<contour>
			<point x="269" y="-14" type="curve" smooth="yes"/>
			<point x="421" y="-14"/>
			<point x="500" y="77"/>
			<point x="521" y="224" type="curve" smooth="yes"/>
			<point x="585" y="684" type="line"/>
			<point x="500" y="684" type="line"/>
			<point x="436" y="224" type="line" smooth="yes"/>
			<point x="422" y="126"/>
			<point x="379" y="58"/>
			<point x="279" y="58" type="curve" smooth="yes"/>
			<point x="179" y="58"/>
			<point x="141" y="135"/>
			<point x="156" y="240" type="curve" smooth="yes"/>
			<point x="219" y="684" type="line"/>
			<point x="133" y="684" type="line"/>
			<point x="72" y="242" type="line" smooth="yes"/>
			<point x="49" y="81"/>
			<point x="118" y="-14"/>
		</contour>
	</outline>
	<anchor name="ogonek" x="363" y="0"/>
	<anchor name="bottom" x="258" y="0"/>
	<anchor name="top" x="359" y="684"/>
</glyph>
<glyph name="V" format="2">
	<unicode hex="0056"/>
	<advance width="600"/>
	<outline>
		<contour>
			<point x="203" y="-2" type="line"/>
			<point x="320" y="-2" type="line"/>
			<point x="627" y="684" type="line"/>
			<point x="535" y="684" type="line"/>
			<point x="272" y="76" type="line"/>
			<point x="178" y="684" type="line"/>
			<point x="91" y="684" type="line"/>
		</contour>
	</outline>
	<anchor name="overlap" x="362" y="684"/>
	<anchor name="ogonek" x="563" y="0"/>
	<anchor name="top" x="367" y="684"/>
	<anchor name="bottom" x="275" y="0"/>
</glyph>
<glyph name="X" format="2">
	<unicode hex="0058"/>
	<advance width="600"/>
	<outline>
		<contour>
			<point x="-5" y="0" type="line"/>
			<point x="95" y="0" type="line"/>
			<point x="305" y="295" type="line"/>
			<point x="436" y="0" type="line"/>
			<point x="531" y="0" type="line"/>
			<point x="367" y="357" type="line"/>
			<point x="613" y="684" type="line"/>
			<point x="514" y="684" type="line"/>
			<point x="320" y="421" type="line"/>
			<point x="198" y="684" type="line"/>
			<point x="105" y="684" type="line"/>
			<point x="258" y="361" type="line"/>
		</contour>
	</outline>
	<anchor name="top" x="365" y="684"/>
	<anchor name="bottom" x="274" y="0"/>
</glyph>
<glyph name="Y" format="2">
	<unicode hex="0059"/>
	<advance width="600"/>
	<outline>
		<contour>
			<point x="216" y="0" type="line"/>
			<point x="302" y="0" type="line"/>
			<point x="334" y="229" type="line"/>
			<point x="628" y="684" type="line"/>
			<point x="533" y="684" type="line"/>
			<point x="304" y="317" type="line"/>
			<point x="182" y="684" type="line"/>
			<point x="90" y="684" type="line"/>
			<point x="248" y="229" type="line"/>
		</contour>
	</outline>
	<anchor name="top" x="358" y="684"/>
	<anchor name="bottom" x="254" y="0"/>
</glyph>
<glyph name="bracketright" format="2">
	<unicode hex="005D"/>
	<advance width="600"/>
	<outline>
		<contour>
			<point x="59" y="-163" type="line"/>
			<point x="343" y="-163" type="line"/>
			<point x="478" y="792" type="line"/>
			<point x="194" y="792" type="line"/>
			<point x="184" y="728" type="line"/>
			<point x="389" y="728" type="line"/>
			<point x="273" y="-99" type="line"/>
			<point x="68" y="-99" type="line"/>
		</contour>
	</outline>
</glyph>
<glyph name="c" format="2">
	<unicode hex="0063"/>
	<advance width="600"/>
	<outline>
		<contour>
			<point x="350" y="-12" type="curve" smooth="yes"/>
			<point x="396" y="-12"/>
			<point x="438" y="-4"/>
			<point x="471" y="12" type="curve"/>
			<point x="480" y="84" type="line"/>
			<point x="448" y="67"/>
			<point x="404" y="58"/>
			<point x="365" y="58" type="curve" smooth="yes"/>
			<point x="229" y="58"/>
			<point x="164" y="147"/>
			<point x="183" y="284" type="curve" smooth="yes"/>
			<point x="184" y="291" type="line" smooth="yes"/>
			<point x="200" y="403"/>
			<point x="267" y="464"/>
			<point x="382" y="464" type="curve" smooth="yes"/>
			<point x="444" y="464"/>
			<point x="491" y="450"/>
			<point x="529" y="424" type="curve"/>
			<point x="538" y="496" type="line"/>
			<point x="499" y="521"/>
			<point x="437" y="535"/>
			<point x="378" y="535" type="curve" smooth="yes"/>
			<point x="218" y="535"/>
			<point x="118" y="441"/>
			<point x="98" y="299" type="curve" smooth="yes"/>
			<point x="96" y="285" type="line" smooth="yes"/>
			<point x="71" y="110"/>
			<point x="166" y="-12"/>
		</contour>
	</outline>
	<anchor name="top" x="399" y="523"/>
	<anchor name="bottom" x="326" y="0"/>
</glyph>
<glyph name="f" format="2">
	<unicode hex="0066"/>
	<advance width="600"/>
	<outline>
		<contour>
			<point x="88" y="-204" type="curve" smooth="yes"/>
			<point x="175" y="-204"/>
			<point x="257" y="-170"/>
			<point x="276" y="-36" type="curve" smooth="yes"/>
			<point x="344" y="453" type="line"/>
			<point x="551" y="453" type="line"/>
			<point x="561" y="523" type="line"/>
			<point x="354" y="523" type="line"/>
			<point x="365" y="602" type="line" smooth="yes"/>
			<point x="374" y="672"/>
			<point x="414" y="693"/>
			<point x="470" y="693" type="curve" smooth="yes"/>
			<point x="509" y="693"/>
			<point x="550" y="682"/>
			<point x="574" y="670" type="curve"/>
			<point x="584" y="734" type="line"/>
			<point x="556" y="748"/>
			<point x="506" y="760"/>
			<point x="461" y="760" type="curve" smooth="yes"/>
			<point x="366" y="760"/>
			<point x="295" y="712"/>
			<point x="282" y="612" type="curve" smooth="yes"/>
			<point x="270" y="523" type="line"/>
			<point x="105" y="523" type="line"/>
			<point x="94" y="453" type="line"/>
			<point x="260" y="453" type="line"/>
			<point x="191" y="-24" type="line" smooth="yes"/>
			<point x="180" y="-100"/>
			<point x="153" y="-137"/>
			<point x="81" y="-137" type="curve" smooth="yes"/>
			<point x="41" y="-137"/>
			<point x="4" y="-126"/>
			<point x="-25" y="-110" type="curve"/>
			<point x="-34" y="-175" type="line"/>
			<point x="-7" y="-191"/>
			<point x="41" y="-204"/>
		</contour>
	</outline>
</glyph>
<glyph name="h" format="2">
	<unicode hex="0068"/>
	<advance width="600"/>
	<outline>
		<contour>
			<point x="373" y="537" type="curve" smooth="yes"/>
			<point x="297" y="537"/>
			<point x="240" y="496"/>
			<point x="201" y="424" type="curve"/>
			<point x="247" y="750" type="line"/>
			<point x="163" y="750" type="line"/>
			<point x="57" y="0" type="line"/>
			<point x="142" y="0" type="line"/>
			<point x="188" y="322" type="line" smooth="yes"/>
			<point x="191" y="345"/>
			<point x="198" y="368"/>
			<point x="212" y="390" type="curve" smooth="yes"/>
			<point x="236" y="431"/>
			<point x="273" y="466"/>
			<point x="335" y="466" type="curve" smooth="yes"/>
			<point x="405" y="466"/>
			<point x="449" y="419"/>
			<point x="434" y="313" type="curve" smooth="yes"/>
			<point x="389" y="0" type="line"/>
			<point x="473" y="0" type="line"/>
			<point x="520" y="328" type="line" smooth="yes"/>
			<point x="539" y="466"/>
			<point x="474" y="537"/>
		</contour>
	</outline>
	<anchor name="bottom" x="264" y="0"/>
	<anchor name="caron" x="287" y="743"/>
	<anchor name="top" x="201" y="725"/>
	<anchor name="center" x="231" y="626"/>
</glyph>
<glyph name="j" format="2">
	<unicode hex="006A"/>
	<advance width="600"/>
	<outline>
		<contour>
			<point x="468" y="636" type="curve" smooth="yes"/>
			<point x="513" y="636"/>
			<point x="530" y="654"/>
			<point x="533" y="689" type="curve" smooth="yes"/>
			<point x="538" y="724"/>
			<point x="520" y="743"/>
			<point x="477" y="743" type="curve" smooth="yes"/>
			<point x="431" y="743"/>
			<point x="414" y="725"/>
			<point x="411" y="690" type="curve" smooth="yes"/>
			<point x="407" y="654"/>
			<point x="424" y="636"/>
		</contour>
		<contour>
			<point x="179" y="-204" type="curve" smooth="yes"/>
			<point x="299" y="-204"/>
			<point x="398" y="-162"/>
			<point x="419" y="-12" type="curve" smooth="yes"/>
			<point x="494" y="523" type="line"/>
			<point x="125" y="523" type="line"/>
			<point x="115" y="453" type="line"/>
			<point x="400" y="453" type="line"/>
			<point x="337" y="4" type="line" smooth="yes"/>
			<point x="324" y="-93"/>
			<point x="272" y="-133"/>
			<point x="170" y="-133" type="curve" smooth="yes"/>
			<point x="116" y="-133"/>
			<point x="66" y="-117"/>
			<point x="35" y="-101" type="curve"/>
			<point x="25" y="-171" type="line"/>
			<point x="56" y="-188"/>
			<point x="116" y="-204"/>
		</contour>
	</outline>
</glyph>
<glyph name="k" format="2">
	<unicode hex="006B"/>
	<advance width="600"/>
	<outline>
		<contour>
			<point x="66" y="0" type="line"/>
			<point x="150" y="0" type="line"/>
			<point x="181" y="219" type="line"/>
			<point x="403" y="0" type="line"/>
			<point x="511" y="0" type="line"/>
			<point x="305" y="198" type="line"/>
			<point x="441" y="198"/>
			<point x="533" y="273"/>
			<point x="533" y="394" type="curve" smooth="yes"/>
			<point x="533" y="480"/>
			<point x="474" y="537"/>
			<point x="384" y="537" type="curve" smooth="yes"/>
			<point x="309" y="537"/>
			<point x="250" y="498"/>
			<point x="209" y="425" type="curve"/>
			<point x="256" y="750" type="line"/>
			<point x="172" y="750" type="line"/>
		</contour>
		<contour>
			<point x="347" y="470" type="curve" smooth="yes"/>
			<point x="409" y="470"/>
			<point x="447" y="436"/>
			<point x="447" y="377" type="curve" smooth="yes"/>
			<point x="447" y="292"/>
			<point x="386" y="244"/>
			<point x="278" y="244" type="curve" smooth="yes"/>
			<point x="184" y="244" type="line"/>
			<point x="193" y="308" type="line" smooth="yes"/>
			<point x="207" y="402"/>
			<point x="262" y="470"/>
		</contour>
	</outline>
	<anchor name="bottom" x="267" y="0"/>
</glyph>
<glyph name="n" format="2">
	<unicode hex="006E"/>
	<advance width="600"/>
	<outline>
		<contour>
			<point x="57" y="0" type="line"/>
			<point x="141" y="0" type="line"/>
			<point x="184" y="301" type="line" smooth="yes"/>
			<point x="188" y="331"/>
			<point x="194" y="362"/>
			<point x="213" y="391" type="curve" smooth="yes"/>
			<point x="237" y="432"/>
			<point x="273" y="466"/>
			<point x="335" y="466" type="curve" smooth="yes"/>
			<point x="405" y="466"/>
			<point x="449" y="419"/>
			<point x="434" y="313" type="curve" smooth="yes"/>
			<point x="389" y="0" type="line"/>
			<point x="473" y="0" type="line"/>
			<point x="520" y="328" type="line" smooth="yes"/>
			<point x="539" y="466"/>
			<point x="476" y="537"/>
			<point x="373" y="537" type="curve" smooth="yes"/>
			<point x="297" y="537"/>
			<point x="238" y="495"/>
			<point x="198" y="422" type="curve"/>
			<point x="213" y="523" type="line"/>
			<point x="131" y="523" type="line"/>
		</contour>
	</outline>
	<anchor name="top" x="338" y="523"/>
	<anchor name="bottom" x="264" y="0"/>
</glyph>
<glyph name="o" format="2">
	<unicode hex="006F"/>
	<advance width="600"/>
	<outline>
		<contour>
			<point x="282" y="-14" type="curve" smooth="yes"/>
			<point x="415" y="-14"/>
			<point x="507" y="78"/>
			<point x="529" y="229" type="curve" smooth="yes"/>
			<point x="531" y="243" type="line" smooth="yes"/>
			<point x="556" y="420"/>
			<point x="473" y="537"/>
			<point x="320" y="537" type="curve" smooth="yes"/>
			<point x="193" y="537"/>
			<point x="93" y="445"/>
			<point x="71" y="295" type="curve" smooth="yes"/>
			<point x="69" y="281" type="line" smooth="yes"/>
			<point x="43" y="101"/>
			<point x="128" y="-14"/>
		</contour>
		<contour>
			<point x="285" y="56" type="curve" smooth="yes"/>
			<point x="190" y="56"/>
			<point x="135" y="133"/>
			<point x="156" y="276" type="curve" smooth="yes"/>
			<point x="157" y="283" type="line" smooth="yes"/>
			<point x="174" y="407"/>
			<point x="235" y="468"/>
			<point x="316" y="468" type="curve" smooth="yes"/>
			<point x="411" y="468"/>
			<point x="465" y="391"/>
			<point x="444" y="248" type="curve" smooth="yes"/>
			<point x="443" y="241" type="line" smooth="yes"/>
			<point x="426" y="117"/>
			<point x="366" y="56"/>
		</contour>
	</outline>
	<anchor name="center" x="300" y="271"/>
	<anchor name="bottom" x="258" y="-3"/>
	<anchor name="top" x="334" y="523"/>
</glyph>
<glyph name="p" format="2">
	<unicode hex="0070"/>
	<advance width="600"/>
	<outline>
		<contour>
			<point x="369" y="537" type="curve" smooth="yes"/>
			<point x="302" y="537"/>
			<point x="241" y="504"/>
			<point x="198" y="423" type="curve"/>
			<point x="212" y="523" type="line"/>
			<point x="130" y="523" type="line"/>
			<point x="29" y="-194" type="line"/>
			<point x="113" y="-194" type="line"/>
			<point x="141" y="0" type="line"/>
			<point x="224" y="0" type="line" smooth="yes"/>
			<point x="397" y="0"/>
			<point x="507" y="99"/>
			<point x="530" y="260" type="curve" smooth="yes"/>
			<point x="532" y="274" type="line" smooth="yes"/>
			<point x="556" y="442"/>
			<point x="485" y="537"/>
		</contour>
		<contour>
			<point x="446" y="272" type="curve" smooth="yes"/>
			<point x="445" y="265" type="line"/>
			<point x="426" y="134"/>
			<point x="352" y="68"/>
			<point x="230" y="68" type="curve" smooth="yes"/>
			<point x="150" y="68" type="line"/>
			<point x="182" y="300" type="line" smooth="yes"/>
			<point x="196" y="397"/>
			<point x="250" y="468"/>
			<point x="335" y="468" type="curve" smooth="yes"/>
			<point x="418" y="468"/>
			<point x="464" y="400"/>
		</contour>
	</outline>
	<anchor name="ogonek" x="157" y="550"/>
	<anchor name="bottom" x="269" y="0"/>
</glyph>
<glyph name="q" format="2">
	<unicode hex="0071"/>
	<advance width="600"/>
	<outline>
		<contour>
			<point x="359" y="-194" type="line"/>
			<point x="443" y="-194" type="line"/>
			<point x="543" y="523" type="line"/>
			<point x="379" y="523" type="line" smooth="yes"/>
			<point x="206" y="523"/>
			<point x="93" y="424"/>
			<point x="70" y="263" type="curve" smooth="yes"/>
			<point x="68" y="249" type="line" smooth="yes"/>
			<point x="44" y="81"/>
			<point x="113" y="-14"/>
			<point x="230" y="-14" type="curve" smooth="yes"/>
			<point x="301" y="-14"/>
			<point x="361" y="19"/>
			<point x="400" y="100" type="curve"/>
		</contour>
		<contour>
			<point x="266" y="56" type="curve" smooth="yes"/>
			<point x="181" y="56"/>
			<point x="136" y="126"/>
			<point x="154" y="252" type="curve" smooth="yes"/>
			<point x="155" y="259" type="line" smooth="yes"/>
			<point x="174" y="390"/>
			<point x="249" y="454"/>
			<point x="370" y="454" type="curve" smooth="yes"/>
			<point x="450" y="454" type="line"/>
			<point x="417" y="220" type="line" smooth="yes"/>
			<point x="403" y="127"/>
			<point x="350" y="56"/>
		</contour>
	</outline>
</glyph>
<glyph name="u" format="2">
	<unicode hex="0075"/>
	<advance width="600"/>
	<outline>
		<contour>
			<point x="543" y="523" type="line"/>
			<point x="459" y="523" type="line"/>
			<point x="417" y="221" type="line" smooth="yes"/>
			<point x="411" y="181"/>
			<point x="399" y="146"/>
			<point x="381" y="119" type="curve" smooth="yes"/>
			<point x="356" y="79"/>
			<point x="318" y="56"/>
			<point x="266" y="56" type="curve" smooth="yes"/>
			<point x="192" y="56"/>
			<point x="152" y="103"/>
			<point x="165" y="201" type="curve" smooth="yes"/>
			<point x="211" y="523" type="line"/>
			<point x="127" y="523" type="line"/>
			<point x="80" y="187" type="line" smooth="yes"/>
			<point x="61" y="57"/>
			<point x="123" y="-14"/>
			<point x="226" y="-14" type="curve" smooth="yes"/>
			<point x="305" y="-14"/>
			<point x="365" y="27"/>
			<point x="401" y="98" type="curve"/>
			<point x="387" y="0" type="line"/>
			<point x="469" y="0" type="line"/>
		</contour>
	</outline>
	<anchor name="ogonek" x="469" y="0"/>
	<anchor name="bottom" x="272" y="0"/>
	<anchor name="top" x="335" y="523"/>
</glyph>
<glyph name="v" format="2">
	<unicode hex="0076"/>
	<advance width="600"/>
	<outline>
		<contour>
			<point x="249" y="-14" type="curve" smooth="yes"/>
			<point x="410" y="-14"/>
			<point x="515" y="124"/>
			<point x="538" y="317" type="curve" smooth="yes"/>
			<point x="548" y="392"/>
			<point x="542" y="460"/>
			<point x="526" y="522" type="curve"/>
			<point x="444" y="523" type="line"/>
			<point x="460" y="461"/>
			<point x="466" y="401"/>
			<point x="458" y="327" type="curve" smooth="yes"/>
			<point x="437" y="159"/>
			<point x="362" y="55"/>
			<point x="261" y="55" type="curve" smooth="yes"/>
			<point x="209" y="55"/>
			<point x="183" y="82"/>
			<point x="192" y="142" type="curve" smooth="yes"/>
			<point x="244" y="523" type="line"/>
			<point x="59" y="523" type="line"/>
			<point x="50" y="454" type="line"/>
			<point x="153" y="454" type="line"/>
			<point x="109" y="135" type="line" smooth="yes"/>
			<point x="97" y="43"/>
			<point x="142" y="-14"/>
		</contour>
	</outline>
</glyph>
<glyph name="w" format="2">
	<unicode hex="0077"/>
	<advance width="600"/>
	<outline>
		<contour>
			<point x="128" y="-14" type="curve" smooth="yes"/>
			<point x="182" y="-14"/>
			<point x="221" y="22"/>
			<point x="246" y="77" type="curve"/>
			<point x="254" y="17"/>
			<point x="292" y="-13"/>
			<point x="356" y="-13" type="curve" smooth="yes"/>
			<point x="469" y="-13"/>
			<point x="529" y="90"/>
			<point x="553" y="270" type="curve" smooth="yes"/>
			<point x="566" y="359"/>
			<point x="569" y="453"/>
			<point x="560" y="523" type="curve"/>
			<point x="485" y="523" type="line"/>
			<point x="493" y="447"/>
			<point x="492" y="368"/>
			<point x="478" y="273" type="curve" smooth="yes"/>
			<point x="456" y="117"/>
			<point x="423" y="52"/>
			<point x="369" y="52" type="curve" smooth="yes"/>
			<point x="327" y="52"/>
			<point x="313" y="85"/>
			<point x="320" y="132" type="curve" smooth="yes"/>
			<point x="376" y="523" type="line"/>
			<point x="301" y="523" type="line"/>
			<point x="248" y="143" type="line" smooth="yes"/>
			<point x="241" y="99"/>
			<point x="215" y="53"/>
			<point x="165" y="53" type="curve" smooth="yes"/>
			<point x="128" y="53"/>
			<point x="112" y="80"/>
			<point x="118" y="127" type="curve" smooth="yes"/>
			<point x="174" y="523" type="line"/>
			<point x="98" y="523" type="line"/>
			<point x="40" y="111" type="line" smooth="yes"/>
			<point x="29" y="30"/>
			<point x="63" y="-14"/>
		</contour>
	</outline>
	<anchor name="top" x="339" y="523"/>
</glyph>
<glyph name="y" format="2">
	<unicode hex="0079"/>
	<advance width="600"/>
	<outline>
		<contour>
			<point x="227" y="-204" type="curve" smooth="yes"/>
			<point x="357" y="-204"/>
			<point x="450" y="-138"/>
			<point x="472" y="19" type="curve" smooth="yes"/>
			<point x="541" y="523" type="line"/>
			<point x="458" y="523" type="line"/>
			<point x="419" y="239" type="line" smooth="yes"/>
			<point x="418" y="231"/>
			<point x="416" y="223"/>
			<point x="414" y="215" type="curve"/>
			<point x="414" y="214" type="line"/>
			<point x="407" y="186"/>
			<point x="397" y="158"/>
			<point x="383" y="137" type="curve" smooth="yes"/>
			<point x="358" y="98"/>
			<point x="320" y="74"/>
			<point x="269" y="74" type="curve" smooth="yes"/>
			<point x="194" y="74"/>
			<point x="155" y="123"/>
			<point x="168" y="219" type="curve" smooth="yes"/>
			<point x="211" y="523" type="line"/>
			<point x="127" y="523" type="line"/>
			<point x="82" y="203" type="line" smooth="yes"/>
			<point x="63" y="72"/>
			<point x="133" y="5"/>
			<point x="232" y="5" type="curve" smooth="yes"/>
			<point x="313" y="5"/>
			<point x="364" y="44"/>
			<point x="401" y="113" type="curve"/>
			<point x="390" y="31" type="line" smooth="yes"/>
			<point x="375" y="-82"/>
			<point x="323" y="-135"/>
			<point x="225" y="-135" type="curve" smooth="yes"/>
			<point x="153" y="-135"/>
			<point x="95" y="-107"/>
			<point x="53" y="-69" type="curve"/>
			<point x="43" y="-144" type="line"/>
			<point x="78" y="-173"/>
			<point x="141" y="-204"/>
		</contour>
	</outline>
	<anchor name="top" x="335" y="523"/>
</glyph>
<glyph name="braceleft" format="2">
	<unicode hex="007B"/>
	<advance width="600"/>
	<outline>
		<contour>
			<point x="130" y="275" type="line"/>
			<point x="205" y="275" type="line" smooth="yes"/>
			<point x="257" y="275"/>
			<point x="275" y="244"/>
			<point x="275" y="214" type="curve" smooth="yes"/>
			<point x="275" y="137"/>
			<point x="135" y="86"/>
			<point x="135" y="-37" type="curve" smooth="yes"/>
			<point x="135" y="-105"/>
			<point x="177" y="-163"/>
			<point x="289" y="-163" type="curve" smooth="yes"/>
			<point x="428" y="-163" type="line"/>
			<point x="437" y="-99" type="line"/>
			<point x="315" y="-99" type="line" smooth="yes"/>
			<point x="253" y="-99"/>
			<point x="222" y="-75"/>
			<point x="222" y="-26" type="curve" smooth="yes"/>
			<point x="222" y="71"/>
			<point x="359" y="115"/>
			<point x="359" y="218" type="curve" smooth="yes"/>
			<point x="359" y="267"/>
			<point x="318" y="304"/>
			<point x="268" y="313" type="curve"/>
			<point x="321" y="321"/>
			<point x="389" y="352"/>
			<point x="389" y="432" type="curve" smooth="yes"/>
			<point x="389" y="512"/>
			<point x="316" y="575"/>
			<point x="316" y="647" type="curve" smooth="yes"/>
			<point x="316" y="710"/>
			<point x="361" y="728"/>
			<point x="428" y="728" type="curve" smooth="yes"/>
			<point x="553" y="728" type="line"/>
			<point x="562" y="792" type="line"/>
			<point x="407" y="792" type="line" smooth="yes"/>
			<point x="296" y="792"/>
			<point x="232" y="738"/>
			<point x="232" y="654" type="curve" smooth="yes"/>
			<point x="232" y="569"/>
			<point x="306" y="500"/>
			<point x="306" y="430" type="curve" smooth="yes"/>
			<point x="306" y="386"/>
			<point x="276" y="352"/>
			<point x="221" y="352" type="curve" smooth="yes"/>
			<point x="141" y="352" type="line"/>
		</contour>
	</outline>
</glyph>
<glyph name="bar" format="2">
	<unicode hex="007C"/>
	<advance width="600"/>
	<outline>
		<contour>
			<point x="335" y="792" type="line"/>
			<point x="200" y="-163" type="line"/>
			<point x="280" y="-163" type="line"/>
			<point x="414" y="792" type="line"/>
		</contour>
	</outline>
</glyph>
<glyph name="braceright" format="2">
	<unicode hex="007D"/>
	<advance width="600"/>
	<outline>
		<contour>
			<point x="53" y="-163" type="line"/>
			<point x="207" y="-163" type="line" smooth="yes"/>
			<point x="320" y="-163"/>
			<point x="382" y="-109"/>
			<point x="382" y="-25" type="curve" smooth="yes"/>
			<point x="382" y="60"/>
			<point x="308" y="129"/>
			<point x="308" y="199" type="curve" smooth="yes"/>
			<point x="308" y="242"/>
			<point x="339" y="277"/>
			<point x="395" y="277" type="curve" smooth="yes"/>
			<point x="474" y="277" type="line"/>
			<point x="485" y="354" type="line"/>
			<point x="411" y="354" type="line" smooth="yes"/>
			<point x="358" y="354"/>
			<point x="340" y="385"/>
			<point x="340" y="414" type="curve" smooth="yes"/>
			<point x="340" y="492"/>
			<point x="481" y="543"/>
			<point x="481" y="666" type="curve" smooth="yes"/>
			<point x="481" y="734"/>
			<point x="438" y="792"/>
			<point x="327" y="792" type="curve" smooth="yes"/>
			<point x="187" y="792" type="line"/>
			<point x="178" y="728" type="line"/>
			<point x="300" y="728" type="line" smooth="yes"/>
			<point x="362" y="728"/>
			<point x="394" y="704"/>
			<point x="394" y="655" type="curve" smooth="yes"/>
			<point x="394" y="558"/>
			<point x="256" y="514"/>
			<point x="256" y="410" type="curve" smooth="yes"/>
			<point x="256" y="362"/>
			<point x="296" y="325"/>
			<point x="346" y="316" type="curve"/>
			<point x="295" y="308"/>
			<point x="225" y="279"/>
			<point x="225" y="197" type="curve" smooth="yes"/>
			<point x="225" y="117"/>
			<point x="299" y="54"/>
			<point x="299" y="-18" type="curve" smooth="yes"/>
			<point x="299" y="-81"/>
			<point x="254" y="-99"/>
			<point x="188" y="-99" type="curve" smooth="yes"/>
			<point x="62" y="-99" type="line"/>
		</contour>
	</outline>
</glyph>
<glyph name="asciitilde" format="2">
	<unicode hex="007E"/>
	<advance width="600"/>
	<outline>
		<contour>
			<point x="70" y="216" type="curve"/>
			<point x="142" y="216" type="line"/>
			<point x="152" y="297"/>
			<point x="173" y="336"/>
			<point x="214" y="336" type="curve" smooth="yes"/>
			<point x="280" y="336"/>
			<point x="303" y="212"/>
			<point x="403" y="212" type="curve" smooth="yes"/>
			<point x="475" y="212"/>
			<point x="524" y="259"/>
			<point x="544" y="406" type="curve"/>
			<point x="472" y="405" type="line"/>
			<point x="461" y="326"/>
			<point x="444" y="289"/>
			<point x="403" y="289" type="curve" smooth="yes"/>
			<point x="339" y="289"/>
			<point x="312" y="412"/>
			<point x="211" y="412" type="curve" smooth="yes"/>
			<point x="125" y="412"/>
			<point x="86" y="337"/>
		</contour>
	</outline>
</glyph>
<glyph name="exclamdown" format="2">
	<unicode hex="00A1"/>
	<advance width="600"/>
	<outline>
		<contour>
			<point x="333" y="535" type="curve" smooth="yes"/>
			<point x="288" y="535"/>
			<point x="269" y="517"/>
			<point x="264" y="479" type="curve" smooth="yes"/>
			<point x="259" y="439"/>
			<point x="277" y="415"/>
			<point x="326" y="415" type="curve" smooth="yes"/>
			<point x="372" y="415"/>
			<point x="391" y="434"/>
			<point x="396" y="471" type="curve" smooth="yes"/>
			<point x="401" y="512"/>
			<point x="383" y="535"/>
		</contour>
		<contour>
			<point x="341" y="325" type="line"/>
			<point x="280" y="325" type="line"/>
			<point x="216" y="-15" type="line"/>
			<point x="195" y="-161" type="line"/>
			<point x="289" y="-161" type="line"/>
			<point x="309" y="-16" type="line"/>
		</contour>
	</outline>
</glyph>
<glyph name="cent" format="2">
	<unicode hex="00A2"/>
	<advance width="600"/>
	<outline>
		<contour>
			<point x="249" y="-93" type="line"/>
			<point x="317" y="-93" type="line"/>
			<point x="335" y="-12" type="line"/>
			<point x="350" y="-12" type="line" smooth="yes"/>
			<point x="396" y="-12"/>
			<point x="438" y="-4"/>
			<point x="471" y="12" type="curve"/>
			<point x="480" y="84" type="line"/>
			<point x="448" y="67"/>
			<point x="404" y="58"/>
			<point x="365" y="58" type="curve" smooth="yes"/>
			<point x="349" y="58" type="line"/>
			<point x="439" y="459" type="line"/>
			<point x="474" y="453"/>
			<point x="504" y="441"/>
			<point x="529" y="424" type="curve"/>
			<point x="538" y="496" type="line"/>
			<point x="516" y="510"/>
			<point x="487" y="521"/>
			<point x="455" y="527" type="curve"/>
			<point x="474" y="615" type="line"/>
			<point x="406" y="615" type="line"/>
			<point x="388" y="535" type="line"/>
			<point x="378" y="535" type="line" smooth="yes"/>
			<point x="218" y="535"/>
			<point x="118" y="441"/>
			<point x="98" y="299" type="curve" smooth="yes"/>
			<point x="96" y="285" type="line" smooth="yes"/>
			<point x="75" y="138"/>
			<point x="139" y="28"/>
			<point x="269" y="-3" type="curve"/>
		</contour>
		<contour>
			<point x="183" y="284" type="curve" smooth="yes"/>
			<point x="184" y="291" type="line" smooth="yes"/>
			<point x="200" y="400"/>
			<point x="264" y="461"/>
			<point x="374" y="464" type="curve"/>
			<point x="286" y="71" type="line"/>
			<point x="204" y="100"/>
			<point x="168" y="177"/>
		</contour>
	</outline>
</glyph>
<glyph name="sterling" format="2">
	<unicode hex="00A3"/>
	<advance width="600"/>
	<outline>
		<contour>
			<point x="50" y="70" type="curve"/>
			<point x="41" y="0" type="line"/>
			<point x="498" y="0" type="line"/>
			<point x="507" y="73" type="line"/>
			<point x="152" y="73" type="line"/>
			<point x="187" y="96"/>
			<point x="249" y="160"/>
			<point x="247" y="291" type="curve"/>
			<point x="435" y="291" type="line"/>
			<point x="445" y="359" type="line"/>
			<point x="246" y="359" type="line"/>
			<point x="242" y="394"/>
			<point x="234" y="426"/>
			<point x="234" y="469" type="curve" smooth="yes"/>
			<point x="234" y="564"/>
			<point x="290" y="625"/>
			<point x="382" y="625" type="curve" smooth="yes"/>
			<point x="455" y="625"/>
			<point x="525" y="600"/>
			<point x="575" y="555" type="curve"/>
			<point x="587" y="633" type="line"/>
			<point x="543" y="668"/>
			<point x="476" y="698"/>
			<point x="377" y="698" type="curve" smooth="yes"/>
			<point x="243" y="698"/>
			<point x="152" y="611"/>
			<point x="152" y="479" type="curve" smooth="yes"/>
			<point x="152" y="430"/>
			<point x="160" y="391"/>
			<point x="166" y="359" type="curve"/>
			<point x="82" y="359" type="line"/>
			<point x="72" y="291" type="line"/>
			<point x="165" y="291" type="line"/>
			<point x="166" y="184"/>
			<point x="108" y="104"/>
		</contour>
	</outline>
</glyph>
<glyph name="copyright" format="2">
	<unicode hex="00A9"/>
	<advance width="600"/>
	<outline>
		<contour>
			<point x="302" y="105" type="curve" smooth="yes"/>
			<point x="441" y="105"/>
			<point x="546" y="194"/>
			<point x="568" y="346" type="curve" smooth="yes"/>
			<point x="570" y="360" type="line" smooth="yes"/>
			<point x="594" y="531"/>
			<point x="496" y="657"/>
			<point x="331" y="657" type="curve" smooth="yes"/>
			<point x="189" y="657"/>
			<point x="87" y="569"/>
			<point x="66" y="419" type="curve" smooth="yes"/>
			<point x="64" y="405" type="line" smooth="yes"/>
			<point x="39" y="232"/>
			<point x="137" y="105"/>
		</contour>
		<contour>
			<point x="306" y="151" type="curve" smooth="yes"/>
			<point x="167" y="151"/>
			<point x="92" y="255"/>
			<point x="113" y="404" type="curve" smooth="yes"/>
			<point x="114" y="411" type="line" smooth="yes"/>
			<point x="132" y="541"/>
			<point x="210" y="611"/>
			<point x="328" y="611" type="curve" smooth="yes"/>
			<point x="467" y="611"/>
			<point x="542" y="508"/>
			<point x="521" y="360" type="curve" smooth="yes"/>
			<point x="520" y="353" type="line" smooth="yes"/>
			<point x="501" y="221"/>
			<point x="420" y="151"/>
		</contour>
		<contour>
			<point x="327" y="243" type="curve" smooth="yes"/>
			<point x="346" y="243"/>
			<point x="359" y="246"/>
			<point x="372" y="251" type="curve"/>
			<point x="378" y="291" type="line"/>
			<point x="367" y="287"/>
			<point x="350" y="283"/>
			<point x="334" y="283" type="curve" smooth="yes"/>
			<point x="282" y="283"/>
			<point x="246" y="319"/>
			<point x="256" y="389" type="curve" smooth="yes"/>
			<point x="264" y="445"/>
			<point x="296" y="476"/>
			<point x="346" y="476" type="curve" smooth="yes"/>
			<point x="370" y="476"/>
			<point x="390" y="469"/>
			<point x="402" y="463" type="curve"/>
			<point x="407" y="502" type="line"/>
			<point x="395" y="510"/>
			<point x="369" y="516"/>
			<point x="342" y="516" type="curve" smooth="yes"/>
			<point x="267" y="516"/>
			<point x="219" y="469"/>
			<point x="208" y="396" type="curve" smooth="yes"/>
			<point x="194" y="310"/>
			<point x="239" y="243"/>
		</contour>
	</outline>
</glyph>
<glyph name="logicalnot" format="2">
	<unicode hex="00AC"/>
	<advance width="600"/>
	<outline>
		<contour>
			<point x="496" y="56" type="line"/>
			<point x="535" y="338" type="line"/>
			<point x="86" y="338" type="line"/>
			<point x="75" y="264" type="line"/>
			<point x="444" y="264" type="line"/>
			<point x="416" y="56" type="line"/>
		</contour>
	</outline>
</glyph>
<glyph name="registered" format="2">
	<unicode hex="00AE"/>
	<advance width="600"/>
	<outline>
		<contour>
			<point x="302" y="105" type="curve" smooth="yes"/>
			<point x="441" y="105"/>
			<point x="546" y="194"/>
			<point x="568" y="346" type="curve" smooth="yes"/>
			<point x="570" y="360" type="line" smooth="yes"/>
			<point x="594" y="531"/>
			<point x="497" y="657"/>
			<point x="331" y="657" type="curve" smooth="yes"/>
			<point x="189" y="657"/>
			<point x="87" y="569"/>
			<point x="66" y="419" type="curve" smooth="yes"/>
			<point x="64" y="405" type="line" smooth="yes"/>
			<point x="39" y="232"/>
			<point x="136" y="105"/>
		</contour>
		<contour>
			<point x="306" y="151" type="curve" smooth="yes"/>
			<point x="166" y="151"/>
			<point x="92" y="255"/>
			<point x="113" y="404" type="curve" smooth="yes"/>
			<point x="114" y="411" type="line" smooth="yes"/>
			<point x="132" y="541"/>
			<point x="210" y="611"/>
			<point x="328" y="611" type="curve" smooth="yes"/>
			<point x="468" y="611"/>
			<point x="542" y="508"/>
			<point x="521" y="360" type="curve" smooth="yes"/>
			<point x="520" y="353" type="line" smooth="yes"/>
			<point x="501" y="221"/>
			<point x="420" y="151"/>
		</contour>
		<contour>
			<point x="206" y="249" type="line"/>
			<point x="252" y="249" type="line"/>
			<point x="266" y="345" type="line"/>
			<point x="313" y="345" type="line" smooth="yes"/>
			<point x="339" y="345"/>
			<point x="349" y="337"/>
			<point x="353" y="311" type="curve" smooth="yes"/>
			<point x="363" y="249" type="line"/>
			<point x="410" y="249" type="line"/>
			<point x="398" y="318" type="line" smooth="yes"/>
			<point x="394" y="349"/>
			<point x="384" y="359"/>
			<point x="363" y="363" type="curve"/>
			<point x="405" y="370"/>
			<point x="432" y="395"/>
			<point x="432" y="439" type="curve" smooth="yes"/>
			<point x="432" y="485"/>
			<point x="403" y="511"/>
			<point x="341" y="511" type="curve" smooth="yes"/>
			<point x="243" y="511" type="line"/>
		</contour>
		<contour>
			<point x="334" y="474" type="line" smooth="yes"/>
			<point x="372" y="474"/>
			<point x="386" y="457"/>
			<point x="386" y="432" type="curve" smooth="yes"/>
			<point x="386" y="401"/>
			<point x="365" y="381"/>
			<point x="326" y="381" type="curve" smooth="yes"/>
			<point x="270" y="381" type="line"/>
			<point x="284" y="474" type="line"/>
		</contour>
	</outline>
</glyph>
<glyph name="macron" format="2">
	<unicode hex="00AF"/>
	<advance width="600"/>
	<outline>
		<contour>
			<point x="213" y="640" type="line"/>
			<point x="493" y="640" type="line"/>
			<point x="501" y="699" type="line"/>
			<point x="221" y="699" type="line"/>
		</contour>
	</outline>
	<anchor name="_top" x="338" y="523"/>
</glyph>
<glyph name="acute" format="2">
	<unicode hex="00B4"/>
	<advance width="600"/>
	<outline>
		<contour>
			<point x="469" y="750" type="line"/>
			<point x="369" y="750" type="line"/>
			<point x="270" y="605" type="line"/>
			<point x="343" y="605" type="line"/>
		</contour>
	</outline>
	<anchor name="_top" x="297" y="523"/>
</glyph>
<glyph name="paragraph" format="2">
	<unicode hex="00B6"/>
	<advance width="600"/>
	<outline>
		<contour>
			<point x="287" y="0" type="line"/>
			<point x="356" y="0" type="line"/>
			<point x="443" y="617" type="line"/>
			<point x="514" y="617" type="line"/>
			<point x="427" y="0" type="line"/>
			<point x="497" y="0" type="line"/>
			<point x="594" y="684" type="line"/>
			<point x="311" y="684" type="line" smooth="yes"/>
			<point x="159" y="684"/>
			<point x="74" y="592"/>
			<point x="74" y="446" type="curve" smooth="yes"/>
			<point x="74" y="321"/>
			<point x="151" y="252"/>
			<point x="284" y="252" type="curve" smooth="yes"/>
			<point x="324" y="252" type="line"/>
		</contour>
	</outline>
</glyph>
<glyph name="AE" format="2">
	<unicode hex="00C6"/>
	<advance width="600"/>
	<outline>
		<contour>
			<point x="-29" y="0" type="line"/>
			<point x="57" y="-1" type="line"/>
			<point x="135" y="183" type="line"/>
			<point x="285" y="183" type="line"/>
			<point x="259" y="0" type="line"/>
			<point x="538" y="0" type="line"/>
			<point x="547" y="72" type="line"/>
			<point x="348" y="72" type="line"/>
			<point x="381" y="307" type="line"/>
			<point x="551" y="307" type="line"/>
			<point x="561" y="378" type="line"/>
			<point x="391" y="378" type="line"/>
			<point x="424" y="613" type="line"/>
			<point x="620" y="613" type="line"/>
			<point x="630" y="684" type="line"/>
			<point x="265" y="684" type="line"/>
		</contour>
		<contour>
			<point x="164" y="252" type="line"/>
			<point x="317" y="613" type="line"/>
			<point x="345" y="613" type="line"/>
			<point x="294" y="252" type="line"/>
		</contour>
	</outline>
	<anchor name="top" x="395" y="684"/>
</glyph>
<glyph name="Oslash" format="2">
	<unicode hex="00D8"/>
	<advance width="600"/>
	<outline>
		<contour>
			<point x="279" y="-14" type="curve" smooth="yes"/>
			<point x="434" y="-14"/>
			<point x="523" y="112"/>
			<point x="550" y="304" type="curve" smooth="yes"/>
			<point x="552" y="318" type="line" smooth="yes"/>
			<point x="569" y="433"/>
			<point x="562" y="524"/>
			<point x="532" y="587" type="curve"/>
			<point x="623" y="708" type="line"/>
			<point x="544" y="708" type="line"/>
			<point x="495" y="643" type="line"/>
			<point x="459" y="679"/>
			<point x="409" y="698"/>
			<point x="346" y="698" type="curve" smooth="yes"/>
			<point x="195" y="698"/>
			<point x="100" y="571"/>
			<point x="72" y="378" type="curve" smooth="yes"/>
			<point x="70" y="364" type="line" smooth="yes"/>
			<point x="54" y="251"/>
			<point x="61" y="162"/>
			<point x="90" y="99" type="curve"/>
			<point x="-2" y="-24" type="line"/>
			<point x="76" y="-24" type="line"/>
			<point x="126" y="44" type="line"/>
			<point x="162" y="6"/>
			<point x="214" y="-14"/>
		</contour>
		<contour>
			<point x="158" y="360" type="curve" smooth="yes"/>
			<point x="159" y="367" type="line" smooth="yes"/>
			<point x="184" y="541"/>
			<point x="247" y="626"/>
			<point x="343" y="626" type="curve" smooth="yes"/>
			<point x="389" y="626"/>
			<point x="422" y="608"/>
			<point x="444" y="573" type="curve"/>
			<point x="154" y="184" type="line"/>
			<point x="146" y="231"/>
			<point x="148" y="290"/>
		</contour>
		<contour>
			<point x="282" y="58" type="curve" smooth="yes"/>
			<point x="234" y="58"/>
			<point x="200" y="77"/>
			<point x="178" y="113" type="curve"/>
			<point x="469" y="501" type="line"/>
			<point x="477" y="455"/>
			<point x="475" y="396"/>
			<point x="465" y="326" type="curve" smooth="yes"/>
			<point x="464" y="319" type="line" smooth="yes"/>
			<point x="439" y="143"/>
			<point x="380" y="58"/>
		</contour>
	</outline>
</glyph>
<glyph name="ccedilla" format="2">
	<unicode hex="00E7"/>
	<advance width="600"/>
	<outline>
		<contour>
			<point x="350" y="-12" type="line" smooth="yes"/>
			<point x="396" y="-12"/>
			<point x="438" y="-4"/>
			<point x="471" y="12" type="curve"/>
			<point x="480" y="84" type="line"/>
			<point x="448" y="67"/>
			<point x="404" y="58"/>
			<point x="365" y="58" type="curve" smooth="yes"/>
			<point x="229" y="58"/>
			<point x="164" y="147"/>
			<point x="183" y="284" type="curve" smooth="yes"/>
			<point x="184" y="291" type="line" smooth="yes"/>
			<point x="200" y="403"/>
			<point x="267" y="464"/>
			<point x="382" y="464" type="curve" smooth="yes"/>
			<point x="444" y="464"/>
			<point x="491" y="450"/>
			<point x="529" y="424" type="curve"/>
			<point x="538" y="496" type="line"/>
			<point x="499" y="521"/>
			<point x="437" y="535"/>
			<point x="378" y="535" type="curve" smooth="yes"/>
			<point x="218" y="535"/>
			<point x="118" y="441"/>
			<point x="98" y="299" type="curve" smooth="yes"/>
			<point x="96" y="285" type="line" smooth="yes"/>
			<point x="74" y="128"/>
			<point x="147" y="14"/>
			<point x="295" y="-8" type="curve"/>
			<point x="246" y="-91" type="line"/>
			<point x="258" y="-89"/>
			<point x="270" y="-87"/>
			<point x="283" y="-87" type="curve" smooth="yes"/>
			<point x="320" y="-87"/>
			<point x="342" y="-97"/>
			<point x="342" y="-124" type="curve" smooth="yes"/>
			<point x="342" y="-156"/>
			<point x="319" y="-168"/>
			<point x="283" y="-168" type="curve" smooth="yes"/>
			<point x="256" y="-168"/>
			<point x="229" y="-160"/>
			<point x="209" y="-148" type="curve"/>
			<point x="202" y="-198" type="line"/>
			<point x="221" y="-211"/>
			<point x="255" y="-219"/>
			<point x="288" y="-219" type="curve" smooth="yes"/>
			<point x="358" y="-219"/>
			<point x="402" y="-185"/>
			<point x="404" y="-124" type="curve" smooth="yes"/>
			<point x="405" y="-77"/>
			<point x="379" y="-51"/>
			<point x="326" y="-47" type="curve"/>
			<point x="348" y="-12" type="line"/>
		</contour>
	</outline>
</glyph>
<glyph name="eth" format="2">
	<unicode hex="00F0"/>
	<advance width="600"/>
	<outline>
		<contour>
			<point x="276" y="-14" type="curve" smooth="yes"/>
			<point x="419" y="-14"/>
			<point x="507" y="80"/>
			<point x="534" y="260" type="curve" smooth="yes"/>
			<point x="536" y="273" type="line" smooth="yes"/>
			<point x="556" y="412"/>
			<point x="532" y="539"/>
			<point x="466" y="639" type="curve"/>
			<point x="559" y="674" type="line"/>
			<point x="568" y="736" type="line"/>
			<point x="432" y="684" type="line"/>
			<point x="410" y="709"/>
			<point x="386" y="731"/>
			<point x="359" y="750" type="curve"/>
			<point x="242" y="750" type="line"/>
			<point x="286" y="718"/>
			<point x="322" y="687"/>
			<point x="352" y="655" type="curve"/>
			<point x="245" y="614" type="line"/>
			<point x="237" y="552" type="line"/>
			<point x="388" y="609" type="line"/>
			<point x="427" y="553"/>
			<point x="449" y="488"/>
			<point x="455" y="402" type="curve"/>
			<point x="426" y="467"/>
			<point x="371" y="507"/>
			<point x="291" y="507" type="curve" smooth="yes"/>
			<point x="178" y="507"/>
			<point x="88" y="423"/>
			<point x="68" y="284" type="curve" smooth="yes"/>
			<point x="66" y="270" type="line" smooth="yes"/>
			<point x="43" y="108"/>
			<point x="113" y="-14"/>
		</contour>
		<contour>
			<point x="283" y="56" type="curve" smooth="yes"/>
			<point x="185" y="56"/>
			<point x="135" y="134"/>
			<point x="153" y="261" type="curve" smooth="yes"/>
			<point x="154" y="268" type="line" smooth="yes"/>
			<point x="169" y="377"/>
			<point x="226" y="442"/>
			<point x="311" y="442" type="curve" smooth="yes"/>
			<point x="399" y="442"/>
			<point x="460" y="384"/>
			<point x="446" y="254" type="curve" smooth="yes"/>
			<point x="445" y="245" type="line" smooth="yes"/>
			<point x="431" y="125"/>
			<point x="373" y="56"/>
		</contour>
	</outline>
</glyph>
<glyph name="divide" format="2">
	<unicode hex="00F7"/>
	<advance width="600"/>
	<outline>
		<contour>
			<point x="324" y="441" type="curve" smooth="yes"/>
			<point x="370" y="441"/>
			<point x="397" y="455"/>
			<point x="402" y="495" type="curve" smooth="yes"/>
			<point x="408" y="535"/>
			<point x="385" y="548"/>
			<point x="340" y="548" type="curve" smooth="yes"/>
			<point x="295" y="548"/>
			<point x="268" y="535"/>
			<point x="263" y="495" type="curve" smooth="yes"/>
			<point x="257" y="455"/>
			<point x="280" y="441"/>
		</contour>
		<contour>
			<point x="75" y="264" type="line"/>
			<point x="525" y="264" type="line"/>
			<point x="535" y="338" type="line"/>
			<point x="86" y="338" type="line"/>
		</contour>
		<contour>
			<point x="270" y="52" type="curve" smooth="yes"/>
			<point x="314" y="52"/>
			<point x="342" y="66"/>
			<point x="348" y="106" type="curve" smooth="yes"/>
			<point x="352" y="146"/>
			<point x="330" y="159"/>
			<point x="285" y="159" type="curve" smooth="yes"/>
			<point x="240" y="159"/>
			<point x="213" y="146"/>
			<point x="207" y="106" type="curve" smooth="yes"/>
			<point x="201" y="66"/>
			<point x="225" y="52"/>
		</contour>
	</outline>
</glyph>
<glyph name="oslash" format="2">
	<unicode hex="00F8"/>
	<advance width="600"/>
	<outline>
		<contour>
			<point x="282" y="-14" type="curve" smooth="yes"/>
			<point x="415" y="-14"/>
			<point x="507" y="78"/>
			<point x="529" y="229" type="curve" smooth="yes"/>
			<point x="531" y="243" type="line" smooth="yes"/>
			<point x="542" y="324"/>
			<point x="531" y="392"/>
			<point x="501" y="442" type="curve"/>
			<point x="595" y="547" type="line"/>
			<point x="517" y="547" type="line"/>
			<point x="464" y="488" type="line"/>
			<point x="428" y="520"/>
			<point x="379" y="537"/>
			<point x="320" y="537" type="curve" smooth="yes"/>
			<point x="193" y="537"/>
			<point x="93" y="445"/>
			<point x="71" y="295" type="curve" smooth="yes"/>
			<point x="69" y="281" type="line" smooth="yes"/>
			<point x="57" y="199"/>
			<point x="68" y="130"/>
			<point x="99" y="80" type="curve"/>
			<point x="6" y="-24" type="line"/>
			<point x="85" y="-24" type="line"/>
			<point x="137" y="34" type="line"/>
			<point x="173" y="3"/>
			<point x="223" y="-14"/>
		</contour>
		<contour>
			<point x="156" y="276" type="curve" smooth="yes"/>
			<point x="157" y="283" type="line" smooth="yes"/>
			<point x="174" y="407"/>
			<point x="235" y="468"/>
			<point x="316" y="468" type="curve" smooth="yes"/>
			<point x="356" y="468"/>
			<point x="388" y="455"/>
			<point x="411" y="429" type="curve"/>
			<point x="161" y="149" type="line"/>
			<point x="151" y="183"/>
			<point x="149" y="225"/>
		</contour>
		<contour>
			<point x="285" y="56" type="curve" smooth="yes"/>
			<point x="246" y="56"/>
			<point x="213" y="69"/>
			<point x="190" y="95" type="curve"/>
			<point x="440" y="374" type="line"/>
			<point x="449" y="341"/>
			<point x="451" y="298"/>
			<point x="444" y="248" type="curve" smooth="yes"/>
			<point x="443" y="241" type="line" smooth="yes"/>
			<point x="426" y="117"/>
			<point x="366" y="56"/>
		</contour>
	</outline>
</glyph>
<glyph name="Aogonek" format="2">
	<unicode hex="0104"/>
	<advance width="600"/>
	<outline>
		<contour>
			<point x="-13" y="0" type="line"/>
			<point x="78" y="0" type="line"/>
			<point x="156" y="176" type="line"/>
			<point x="422" y="176" type="line"/>
			<point x="451" y="0" type="line"/>
			<point x="470" y="0" type="line"/>
			<point x="398" y="-23"/>
			<point x="356" y="-69"/>
			<point x="356" y="-122" type="curve" smooth="yes"/>
			<point x="356" y="-180"/>
			<point x="397" y="-203"/>
			<point x="463" y="-203" type="curve" smooth="yes"/>
			<point x="485" y="-203"/>
			<point x="509" y="-198"/>
			<point x="521" y="-193" type="curve"/>
			<point x="529" y="-134" type="line"/>
			<point x="519" y="-138"/>
			<point x="502" y="-141"/>
			<point x="485" y="-141" type="curve" smooth="yes"/>
			<point x="453" y="-141"/>
			<point x="430" y="-130"/>
			<point x="430" y="-100" type="curve" smooth="yes"/>
			<point x="430" y="-63"/>
			<point x="459" y="-28"/>
			<point x="539" y="0" type="curve"/>
			<point x="415" y="687" type="line"/>
			<point x="301" y="687" type="line"/>
		</contour>
		<contour>
			<point x="187" y="247" type="line"/>
			<point x="349" y="613" type="line"/>
			<point x="410" y="247" type="line"/>
		</contour>
	</outline>
</glyph>
<glyph name="Dcroat" format="2">
	<unicode hex="0110"/>
	<advance width="600"/>
	<outline>
		<contour>
			<point x="36" y="0" type="line"/>
			<point x="261" y="0" type="line" smooth="yes"/>
			<point x="417" y="0"/>
			<point x="526" y="92"/>
			<point x="555" y="299" type="curve" smooth="yes"/>
			<point x="558" y="319" type="line" smooth="yes"/>
			<point x="590" y="546"/>
			<point x="497" y="684"/>
			<point x="318" y="684" type="curve" smooth="yes"/>
			<point x="132" y="684" type="line"/>
			<point x="88" y="372" type="line"/>
			<point x="19" y="372" type="line"/>
			<point x="10" y="311" type="line"/>
			<point x="80" y="311" type="line"/>
		</contour>
		<contour>
			<point x="307" y="612" type="line" smooth="yes"/>
			<point x="429" y="612"/>
			<point x="497" y="521"/>
			<point x="470" y="325" type="curve" smooth="yes"/>
			<point x="468" y="312" type="line" smooth="yes"/>
			<point x="447" y="158"/>
			<point x="382" y="72"/>
			<point x="260" y="72" type="curve" smooth="yes"/>
			<point x="131" y="72" type="line"/>
			<point x="165" y="311" type="line"/>
			<point x="320" y="311" type="line"/>
			<point x="329" y="372" type="line"/>
			<point x="173" y="372" type="line"/>
			<point x="207" y="612" type="line"/>
		</contour>
	</outline>
</glyph>
<glyph name="dcroat" format="2">
	<unicode hex="0111"/>
	<advance width="600"/>
	<outline>
		<contour>
			<point x="230" y="-14" type="curve" smooth="yes"/>
			<point x="301" y="-14"/>
			<point x="363" y="21"/>
			<point x="403" y="106" type="curve"/>
			<point x="388" y="0" type="line"/>
			<point x="470" y="0" type="line"/>
			<point x="554" y="597" type="line"/>
			<point x="624" y="597" type="line"/>
			<point x="632" y="653" type="line"/>
			<point x="562" y="653" type="line"/>
			<point x="576" y="750" type="line"/>
			<point x="492" y="750" type="line"/>
			<point x="478" y="653" type="line"/>
			<point x="319" y="653" type="line"/>
			<point x="311" y="597" type="line"/>
			<point x="470" y="597" type="line"/>
			<point x="460" y="523" type="line"/>
			<point x="379" y="523" type="line" smooth="yes"/>
			<point x="206" y="523"/>
			<point x="93" y="424"/>
			<point x="70" y="263" type="curve" smooth="yes"/>
			<point x="68" y="249" type="line" smooth="yes"/>
			<point x="44" y="81"/>
			<point x="111" y="-14"/>
		</contour>
		<contour>
			<point x="154" y="252" type="curve" smooth="yes"/>
			<point x="155" y="259" type="line"/>
			<point x="174" y="390"/>
			<point x="249" y="454"/>
			<point x="370" y="454" type="curve" smooth="yes"/>
			<point x="451" y="454" type="line"/>
			<point x="418" y="220" type="line" smooth="yes"/>
			<point x="404" y="126"/>
			<point x="350" y="56"/>
			<point x="266" y="56" type="curve" smooth="yes"/>
			<point x="181" y="56"/>
			<point x="136" y="126"/>
		</contour>
	</outline>
</glyph>
<glyph name="eogonek" format="2">
	<unicode hex="0119"/>
	<advance width="600"/>
	<outline>
		<contour>
			<point x="313" y="-14" type="curve" smooth="yes"/>
			<point x="317" y="-14" type="line"/>
			<point x="265" y="-40"/>
			<point x="237" y="-79"/>
			<point x="237" y="-122" type="curve" smooth="yes"/>
			<point x="237" y="-180"/>
			<point x="278" y="-203"/>
			<point x="344" y="-203" type="curve" smooth="yes"/>
			<point x="366" y="-203"/>
			<point x="390" y="-198"/>
			<point x="402" y="-193" type="curve"/>
			<point x="410" y="-134" type="line"/>
			<point x="400" y="-138"/>
			<point x="383" y="-141"/>
			<point x="366" y="-141" type="curve" smooth="yes"/>
			<point x="334" y="-141"/>
			<point x="311" y="-130"/>
			<point x="311" y="-100" type="curve" smooth="yes"/>
			<point x="311" y="-63"/>
			<point x="340" y="-28"/>
			<point x="420" y="0" type="curve"/>
			<point x="419" y="0" type="line"/>
			<point x="442" y="7"/>
			<point x="461" y="15"/>
			<point x="477" y="24" type="curve"/>
			<point x="486" y="95" type="line"/>
			<point x="447" y="73"/>
			<point x="394" y="57"/>
			<point x="328" y="57" type="curve" smooth="yes"/>
			<point x="210" y="57"/>
			<point x="150" y="123"/>
			<point x="156" y="240" type="curve"/>
			<point x="523" y="240" type="line"/>
			<point x="528" y="274" type="line" smooth="yes"/>
			<point x="551" y="436"/>
			<point x="471" y="537"/>
			<point x="330" y="537" type="curve" smooth="yes"/>
			<point x="201" y="537"/>
			<point x="99" y="442"/>
			<point x="78" y="296" type="curve" smooth="yes"/>
			<point x="76" y="282" type="line" smooth="yes"/>
			<point x="53" y="121"/>
			<point x="120" y="-14"/>
		</contour>
		<contour>
			<point x="325" y="473" type="curve" smooth="yes"/>
			<point x="411" y="473"/>
			<point x="461" y="408"/>
			<point x="448" y="300" type="curve"/>
			<point x="161" y="300" type="line"/>
			<point x="176" y="407"/>
			<point x="242" y="473"/>
		</contour>
	</outline>
</glyph>
<glyph name="hbar" format="2">
	<unicode hex="0127"/>
	<advance width="600"/>
	<outline>
		<contour>
			<point x="71" y="597" type="line"/>
			<point x="141" y="597" type="line"/>
			<point x="57" y="0" type="line"/>
			<point x="142" y="0" type="line"/>
			<point x="188" y="322" type="line" smooth="yes"/>
			<point x="191" y="345"/>
			<point x="198" y="368"/>
			<point x="212" y="390" type="curve" smooth="yes"/>
			<point x="236" y="431"/>
			<point x="273" y="466"/>
			<point x="335" y="466" type="curve" smooth="yes"/>
			<point x="405" y="466"/>
			<point x="449" y="419"/>
			<point x="434" y="313" type="curve" smooth="yes"/>
			<point x="389" y="0" type="line"/>
			<point x="473" y="0" type="line"/>
			<point x="520" y="328" type="line" smooth="yes"/>
			<point x="539" y="466"/>
			<point x="474" y="537"/>
			<point x="373" y="537" type="curve" smooth="yes"/>
			<point x="297" y="537"/>
			<point x="240" y="496"/>
			<point x="201" y="424" type="curve"/>
			<point x="225" y="597" type="line"/>
			<point x="384" y="597" type="line"/>
			<point x="392" y="653" type="line"/>
			<point x="233" y="653" type="line"/>
			<point x="247" y="750" type="line"/>
			<point x="163" y="750" type="line"/>
			<point x="149" y="653" type="line"/>
			<point x="79" y="653" type="line"/>
		</contour>
	</outline>
</glyph>
<glyph name="Iogonek" format="2">
	<unicode hex="012E"/>
	<advance width="600"/>
	<outline>
		<contour>
			<point x="47" y="0" type="line"/>
			<point x="409" y="0" type="line"/>
			<point x="337" y="-23"/>
			<point x="295" y="-69"/>
			<point x="295" y="-122" type="curve" smooth="yes"/>
			<point x="295" y="-180"/>
			<point x="336" y="-203"/>
			<point x="402" y="-203" type="curve" smooth="yes"/>
			<point x="424" y="-203"/>
			<point x="448" y="-198"/>
			<point x="460" y="-193" type="curve"/>
			<point x="468" y="-134" type="line"/>
			<point x="458" y="-138"/>
			<point x="441" y="-141"/>
			<point x="424" y="-141" type="curve" smooth="yes"/>
			<point x="392" y="-141"/>
			<point x="369" y="-130"/>
			<point x="369" y="-100" type="curve" smooth="yes"/>
			<point x="369" y="-63"/>
			<point x="398" y="-28"/>
			<point x="478" y="0" type="curve"/>
			<point x="489" y="71" type="line"/>
			<point x="315" y="71" type="line"/>
			<point x="392" y="613" type="line"/>
			<point x="564" y="613" type="line"/>
			<point x="574" y="684" type="line"/>
			<point x="143" y="684" type="line"/>
			<point x="133" y="613" type="line"/>
			<point x="306" y="613" type="line"/>
			<point x="230" y="71" type="line"/>
			<point x="57" y="71" type="line"/>
		</contour>
	</outline>
</glyph>
<glyph name="dotlessi" format="2">
	<unicode hex="0131"/>
	<advance width="600"/>
	<outline>
		<contour>
			<point x="49" y="0" type="line"/>
			<point x="505" y="0" type="line"/>
			<point x="515" y="70" type="line"/>
			<point x="334" y="70" type="line"/>
			<point x="398" y="523" type="line"/>
			<point x="124" y="523" type="line"/>
			<point x="114" y="453" type="line"/>
			<point x="304" y="453" type="line"/>
			<point x="250" y="70" type="line"/>
			<point x="60" y="70" type="line"/>
		</contour>
	</outline>
	<anchor name="ogonek" x="505" y="0"/>
	<anchor name="top" x="356" y="523"/>
</glyph>
<glyph name="IJ" format="2">
	<unicode hex="0132"/>
	<advance width="600"/>
	<outline>
		<contour>
			<point x="244" y="-12" type="curve" smooth="yes"/>
			<point x="380" y="-12"/>
			<point x="475" y="58"/>
			<point x="498" y="215" type="curve" smooth="yes"/>
			<point x="564" y="684" type="line"/>
			<point x="480" y="684" type="line"/>
			<point x="415" y="226" type="line" smooth="yes"/>
			<point x="398" y="104"/>
			<point x="333" y="60"/>
			<point x="238" y="60" type="curve" smooth="yes"/>
			<point x="174" y="60"/>
			<point x="118" y="76"/>
			<point x="73" y="105" type="curve"/>
			<point x="63" y="30" type="line"/>
			<point x="106" y="4"/>
			<point x="165" y="-12"/>
		</contour>
		<contour>
			<point x="88" y="203" type="line"/>
			<point x="171" y="203" type="line"/>
			<point x="238" y="684" type="line"/>
			<point x="155" y="684" type="line"/>
		</contour>
	</outline>
</glyph>
<glyph name="ij" format="2">
	<unicode hex="0133"/>
	<advance width="600"/>
	<outline>
		<contour>
			<point x="213" y="636" type="curve" smooth="yes"/>
			<point x="257" y="636"/>
			<point x="274" y="654"/>
			<point x="278" y="689" type="curve" smooth="yes"/>
			<point x="282" y="724"/>
			<point x="265" y="743"/>
			<point x="221" y="743" type="curve" smooth="yes"/>
			<point x="176" y="743"/>
			<point x="159" y="725"/>
			<point x="155" y="690" type="curve" smooth="yes"/>
			<point x="151" y="654"/>
			<point x="168" y="636"/>
		</contour>
		<contour>
			<point x="500" y="636" type="curve" smooth="yes"/>
			<point x="545" y="636"/>
			<point x="562" y="654"/>
			<point x="566" y="689" type="curve" smooth="yes"/>
			<point x="569" y="724"/>
			<point x="552" y="743"/>
			<point x="508" y="743" type="curve" smooth="yes"/>
			<point x="463" y="743"/>
			<point x="446" y="725"/>
			<point x="442" y="690" type="curve" smooth="yes"/>
			<point x="439" y="654"/>
			<point x="456" y="636"/>
		</contour>
		<contour>
			<point x="236" y="-204" type="curve" smooth="yes"/>
			<point x="339" y="-204"/>
			<point x="427" y="-164"/>
			<point x="446" y="-25" type="curve" smooth="yes"/>
			<point x="523" y="523" type="line"/>
			<point x="439" y="523" type="line"/>
			<point x="365" y="-8" type="line" smooth="yes"/>
			<point x="353" y="-93"/>
			<point x="311" y="-133"/>
			<point x="227" y="-133" type="curve" smooth="yes"/>
			<point x="178" y="-133"/>
			<point x="135" y="-121"/>
			<point x="106" y="-107" type="curve"/>
			<point x="97" y="-176" type="line"/>
			<point x="124" y="-190"/>
			<point x="180" y="-204"/>
		</contour>
		<contour>
			<point x="77" y="0" type="line"/>
			<point x="161" y="0" type="line"/>
			<point x="235" y="523" type="line"/>
			<point x="151" y="523" type="line"/>
		</contour>
	</outline>
</glyph>
<glyph name="kgreenlandic" format="2">
	<unicode hex="0138"/>
	<advance width="600"/>
	<outline>
		<contour>
			<point x="74" y="0" type="line"/>
			<point x="157" y="0" type="line"/>
			<point x="176" y="132" type="line"/>
			<point x="289" y="249" type="line"/>
			<point x="406" y="0" type="line"/>
			<point x="498" y="0" type="line"/>
			<point x="358" y="300" type="line"/>
			<point x="564" y="524" type="line"/>
			<point x="464" y="524" type="line"/>
			<point x="189" y="222" type="line"/>
			<point x="231" y="523" type="line"/>
			<point x="148" y="523" type="line"/>
		</contour>
	</outline>
</glyph>
<glyph name="Ldot" format="2">
	<unicode hex="013F"/>
	<advance width="600"/>
	<outline>
		<contour>
			<point x="63" y="0" type="line"/>
			<point x="500" y="0" type="line"/>
			<point x="512" y="78" type="line"/>
			<point x="159" y="78" type="line"/>
			<point x="243" y="684" type="line"/>
			<point x="159" y="684" type="line"/>
		</contour>
		<contour>
			<point x="455" y="339" type="curve" smooth="yes"/>
			<point x="504" y="339"/>
			<point x="522" y="363"/>
			<point x="528" y="403" type="curve" smooth="yes"/>
			<point x="534" y="447"/>
			<point x="518" y="476"/>
			<point x="465" y="476" type="curve" smooth="yes"/>
			<point x="416" y="476"/>
			<point x="398" y="452"/>
			<point x="392" y="412" type="curve" smooth="yes"/>
			<point x="386" y="367"/>
			<point x="403" y="339"/>
		</contour>
	</outline>
</glyph>
<glyph name="ldot" format="2">
	<unicode hex="0140"/>
	<advance width="600"/>
	<outline>
		<contour>
			<point x="39" y="0" type="line"/>
			<point x="494" y="0" type="line"/>
			<point x="505" y="70" type="line"/>
			<point x="323" y="70" type="line"/>
			<point x="421" y="750" type="line"/>
			<point x="147" y="750" type="line"/>
			<point x="137" y="680" type="line"/>
			<point x="328" y="680" type="line"/>
			<point x="239" y="70" type="line"/>
			<point x="49" y="70" type="line"/>
		</contour>
		<contour>
			<point x="610" y="309" type="curve" smooth="yes"/>
			<point x="658" y="309"/>
			<point x="676" y="333"/>
			<point x="682" y="372" type="curve" smooth="yes"/>
			<point x="688" y="416"/>
			<point x="672" y="444"/>
			<point x="621" y="444" type="curve" smooth="yes"/>
			<point x="573" y="444"/>
			<point x="555" y="421"/>
			<point x="549" y="381" type="curve" smooth="yes"/>
			<point x="543" y="338"/>
			<point x="558" y="309"/>
		</contour>
	</outline>
</glyph>
<glyph name="eng" format="2">
	<unicode hex="014B"/>
	<advance width="600"/>
	<outline>
		<contour>
			<point x="309" y="-214" type="curve" smooth="yes"/>
			<point x="377" y="-214"/>
			<point x="448" y="-185"/>
			<point x="462" y="-79" type="curve" smooth="yes"/>
			<point x="520" y="328" type="line" smooth="yes"/>
			<point x="539" y="466"/>
			<point x="476" y="537"/>
			<point x="373" y="537" type="curve" smooth="yes"/>
			<point x="296" y="537"/>
			<point x="238" y="494"/>
			<point x="198" y="419" type="curve"/>
			<point x="213" y="523" type="line"/>
			<point x="131" y="523" type="line"/>
			<point x="57" y="0" type="line"/>
			<point x="141" y="0" type="line"/>
			<point x="184" y="301" type="line" smooth="yes"/>
			<point x="188" y="331"/>
			<point x="194" y="362"/>
			<point x="213" y="391" type="curve" smooth="yes"/>
			<point x="237" y="432"/>
			<point x="273" y="466"/>
			<point x="335" y="466" type="curve" smooth="yes"/>
			<point x="405" y="466"/>
			<point x="449" y="419"/>
			<point x="434" y="313" type="curve" smooth="yes"/>
			<point x="381" y="-63" type="line" smooth="yes"/>
			<point x="371" y="-132"/>
			<point x="332" y="-145"/>
			<point x="296" y="-145" type="curve" smooth="yes"/>
			<point x="281" y="-145"/>
			<point x="257" y="-141"/>
			<point x="242" y="-135" type="curve"/>
			<point x="233" y="-200" type="line"/>
			<point x="249" y="-207"/>
			<point x="278" y="-214"/>
		</contour>
	</outline>
</glyph>
<glyph name="OE" format="2">
	<unicode hex="0152"/>
	<advance width="600"/>
	<outline>
		<contour>
			<point x="156" y="-13" type="curve" smooth="yes"/>
			<point x="207" y="-13"/>
			<point x="247" y="21"/>
			<point x="276" y="76" type="curve"/>
			<point x="265" y="0" type="line"/>
			<point x="533" y="0" type="line"/>
			<point x="543" y="73" type="line"/>
			<point x="355" y="73" type="line"/>
			<point x="388" y="307" type="line"/>
			<point x="551" y="307" type="line"/>
			<point x="560" y="378" type="line"/>
			<point x="398" y="378" type="line"/>
			<point x="431" y="613" type="line"/>
			<point x="617" y="613" type="line"/>
			<point x="627" y="684" type="line"/>
			<point x="318" y="684" type="line"/>
			<point x="158" y="684"/>
			<point x="78" y="559"/>
			<point x="48" y="340" type="curve" smooth="yes"/>
			<point x="46" y="326" type="line" smooth="yes"/>
			<point x="15" y="114"/>
			<point x="46" y="-13"/>
		</contour>
		<contour>
			<point x="192" y="58" type="curve" smooth="yes"/>
			<point x="120" y="58"/>
			<point x="103" y="155"/>
			<point x="127" y="324" type="curve" smooth="yes"/>
			<point x="128" y="331" type="line" smooth="yes"/>
			<point x="153" y="505"/>
			<point x="199" y="613"/>
			<point x="309" y="613" type="curve" smooth="yes"/>
			<point x="351" y="613" type="line"/>
			<point x="291" y="187" type="line" smooth="yes"/>
			<point x="281" y="113"/>
			<point x="247" y="58"/>
		</contour>
	</outline>
</glyph>
<glyph name="Scedilla" format="2">
	<unicode hex="015E"/>
	<advance width="600"/>
	<outline>
		<contour>
			<point x="239" y="-219" type="curve" smooth="yes"/>
			<point x="309" y="-219"/>
			<point x="353" y="-185"/>
			<point x="355" y="-124" type="curve" smooth="yes"/>
			<point x="356" y="-77"/>
			<point x="330" y="-51"/>
			<point x="277" y="-47" type="curve"/>
			<point x="298" y="-14" type="line"/>
			<point x="433" y="-9"/>
			<point x="528" y="76"/>
			<point x="528" y="208" type="curve" smooth="yes"/>
			<point x="528" y="328"/>
			<point x="445" y="355"/>
			<point x="327" y="382" type="curve" smooth="yes"/>
			<point x="238" y="403"/>
			<point x="184" y="421"/>
			<point x="184" y="497" type="curve" smooth="yes"/>
			<point x="184" y="578"/>
			<point x="240" y="627"/>
			<point x="336" y="627" type="curve" smooth="yes"/>
			<point x="417" y="627"/>
			<point x="504" y="597"/>
			<point x="558" y="548" type="curve"/>
			<point x="569" y="626" type="line"/>
			<point x="517" y="668"/>
			<point x="441" y="697"/>
			<point x="336" y="697" type="curve" smooth="yes"/>
			<point x="189" y="697"/>
			<point x="98" y="611"/>
			<point x="98" y="481" type="curve" smooth="yes"/>
			<point x="98" y="349"/>
			<point x="197" y="323"/>
			<point x="299" y="301" type="curve" smooth="yes"/>
			<point x="384" y="282"/>
			<point x="442" y="271"/>
			<point x="442" y="193" type="curve" smooth="yes"/>
			<point x="442" y="110"/>
			<point x="379" y="58"/>
			<point x="285" y="58" type="curve" smooth="yes"/>
			<point x="202" y="58"/>
			<point x="122" y="89"/>
			<point x="61" y="156" type="curve"/>
			<point x="49" y="74" type="line"/>
			<point x="98" y="27"/>
			<point x="164" y="-4"/>
			<point x="244" y="-12" type="curve"/>
			<point x="197" y="-91" type="line"/>
			<point x="209" y="-89"/>
			<point x="221" y="-87"/>
			<point x="234" y="-87" type="curve" smooth="yes"/>
			<point x="271" y="-87"/>
			<point x="293" y="-97"/>
			<point x="293" y="-124" type="curve" smooth="yes"/>
			<point x="293" y="-156"/>
			<point x="270" y="-168"/>
			<point x="234" y="-168" type="curve" smooth="yes"/>
			<point x="207" y="-168"/>
			<point x="180" y="-160"/>
			<point x="160" y="-148" type="curve"/>
			<point x="153" y="-198" type="line"/>
			<point x="172" y="-211"/>
			<point x="206" y="-219"/>
		</contour>
	</outline>
</glyph>
<glyph name="tcaron" format="2">
	<unicode hex="0165"/>
	<advance width="600"/>
	<outline>
		<contour>
			<point x="474" y="625" type="line"/>
			<point x="529" y="625" type="line"/>
			<point x="608" y="780" type="line"/>
			<point x="520" y="780" type="line"/>
		</contour>
		<contour>
			<point x="356" y="-12" type="curve" smooth="yes"/>
			<point x="404" y="-12"/>
			<point x="448" y="-1"/>
			<point x="470" y="11" type="curve"/>
			<point x="479" y="78" type="line"/>
			<point x="456" y="68"/>
			<point x="416" y="58"/>
			<point x="379" y="58" type="curve" smooth="yes"/>
			<point x="297" y="58"/>
			<point x="266" y="92"/>
			<point x="278" y="185" type="curve" smooth="yes"/>
			<point x="315" y="453" type="line"/>
			<point x="532" y="453" type="line"/>
			<point x="542" y="523" type="line"/>
			<point x="325" y="523" type="line"/>
			<point x="349" y="692" type="line"/>
			<point x="280" y="692" type="line"/>
			<point x="257" y="582" type="line" smooth="yes"/>
			<point x="245" y="528"/>
			<point x="222" y="519"/>
			<point x="186" y="519" type="curve" smooth="yes"/>
			<point x="98" y="519" type="line"/>
			<point x="89" y="453" type="line"/>
			<point x="232" y="453" type="line"/>
			<point x="193" y="176" type="line" smooth="yes"/>
			<point x="174" y="36"/>
			<point x="245" y="-12"/>
		</contour>
	</outline>
</glyph>
<glyph name="Tbar" format="2">
	<unicode hex="0166"/>
	<advance width="600"/>
	<outline>
		<contour>
			<point x="219" y="0" type="line"/>
			<point x="305" y="0" type="line"/>
			<point x="351" y="329" type="line"/>
			<point x="480" y="329" type="line"/>
			<point x="489" y="390" type="line"/>
			<point x="360" y="390" type="line"/>
			<point x="391" y="609" type="line"/>
			<point x="601" y="609" type="line"/>
			<point x="612" y="684" type="line"/>
			<point x="106" y="684" type="line"/>
			<point x="96" y="609" type="line"/>
			<point x="305" y="609" type="line"/>
			<point x="274" y="390" type="line"/>
			<point x="144" y="390" type="line"/>
			<point x="135" y="329" type="line"/>
			<point x="265" y="329" type="line"/>
		</contour>
	</outline>
</glyph>
<glyph name="uogonek" format="2">
	<unicode hex="0173"/>
	<advance width="600"/>
	<outline>
		<contour>
			<point x="393" y="-203" type="curve" smooth="yes"/>
			<point x="415" y="-203"/>
			<point x="439" y="-198"/>
			<point x="451" y="-193" type="curve"/>
			<point x="459" y="-134" type="line"/>
			<point x="449" y="-138"/>
			<point x="432" y="-141"/>
			<point x="415" y="-141" type="curve" smooth="yes"/>
			<point x="383" y="-141"/>
			<point x="360" y="-130"/>
			<point x="360" y="-100" type="curve" smooth="yes"/>
			<point x="360" y="-63"/>
			<point x="389" y="-28"/>
			<point x="469" y="0" type="curve"/>
			<point x="543" y="523" type="line"/>
			<point x="459" y="523" type="line"/>
			<point x="417" y="221" type="line" smooth="yes"/>
			<point x="411" y="181"/>
			<point x="399" y="146"/>
			<point x="381" y="119" type="curve" smooth="yes"/>
			<point x="356" y="79"/>
			<point x="318" y="56"/>
			<point x="266" y="56" type="curve" smooth="yes"/>
			<point x="192" y="56"/>
			<point x="152" y="103"/>
			<point x="165" y="201" type="curve" smooth="yes"/>
			<point x="211" y="523" type="line"/>
			<point x="127" y="523" type="line"/>
			<point x="80" y="187" type="line" smooth="yes"/>
			<point x="61" y="57"/>
			<point x="123" y="-14"/>
			<point x="226" y="-14" type="curve" smooth="yes"/>
			<point x="305" y="-14"/>
			<point x="365" y="27"/>
			<point x="401" y="98" type="curve"/>
			<point x="387" y="0" type="line"/>
			<point x="400" y="0" type="line"/>
			<point x="328" y="-23"/>
			<point x="286" y="-69"/>
			<point x="286" y="-122" type="curve" smooth="yes"/>
			<point x="286" y="-180"/>
			<point x="327" y="-203"/>
		</contour>
	</outline>
</glyph>
<glyph name="dotlessj" format="2">
	<unicode hex="0237"/>
	<advance width="600"/>
	<outline>
		<contour>
			<point x="179" y="-204" type="curve" smooth="yes"/>
			<point x="299" y="-204"/>
			<point x="398" y="-162"/>
			<point x="419" y="-12" type="curve" smooth="yes"/>
			<point x="494" y="523" type="line"/>
			<point x="125" y="523" type="line"/>
			<point x="115" y="453" type="line"/>
			<point x="400" y="453" type="line"/>
			<point x="337" y="4" type="line" smooth="yes"/>
			<point x="324" y="-93"/>
			<point x="272" y="-133"/>
			<point x="170" y="-133" type="curve" smooth="yes"/>
			<point x="116" y="-133"/>
			<point x="66" y="-117"/>
			<point x="35" y="-101" type="curve"/>
			<point x="25" y="-171" type="line"/>
			<point x="56" y="-188"/>
			<point x="116" y="-204"/>
		</contour>
	</outline>
	<anchor name="top" x="452" y="523"/>
</glyph>
<glyph name="circumflex" format="2">
	<unicode hex="02C6"/>
	<advance width="600"/>
	<outline>
		<contour>
			<point x="186" y="605" type="line"/>
			<point x="268" y="605" type="line"/>
			<point x="365" y="707" type="line"/>
			<point x="432" y="605" type="line"/>
			<point x="511" y="605" type="line"/>
			<point x="412" y="750" type="line"/>
			<point x="325" y="750" type="line"/>
		</contour>
	</outline>
	<anchor name="_top" x="339" y="523"/>
</glyph>
<glyph name="breve" format="2">
	<unicode hex="02D8"/>
	<advance width="600"/>
	<outline>
		<contour>
			<point x="350" y="595" type="curve" smooth="yes"/>
			<point x="452" y="595"/>
			<point x="501" y="636"/>
			<point x="516" y="750" type="curve"/>
			<point x="450" y="750" type="line"/>
			<point x="441" y="683"/>
			<point x="425" y="648"/>
			<point x="359" y="648" type="curve" smooth="yes"/>
			<point x="289" y="648"/>
			<point x="279" y="683"/>
			<point x="287" y="750" type="curve"/>
			<point x="222" y="750" type="line"/>
			<point x="207" y="642"/>
			<point x="249" y="595"/>
		</contour>
	</outline>
	<anchor name="_top" x="338" y="523"/>
</glyph>
<glyph name="ring" format="2">
	<unicode hex="02DA"/>
	<advance width="600"/>
	<outline>
		<contour>
			<point x="357" y="594" type="curve" smooth="yes"/>
			<point x="435" y="594"/>
			<point x="484" y="643"/>
			<point x="484" y="721" type="curve" smooth="yes"/>
			<point x="484" y="789"/>
			<point x="439" y="826"/>
			<point x="370" y="826" type="curve" smooth="yes"/>
			<point x="292" y="826"/>
			<point x="243" y="777"/>
			<point x="243" y="700" type="curve" smooth="yes"/>
			<point x="243" y="631"/>
			<point x="285" y="594"/>
		</contour>
		<contour>
			<point x="358" y="641" type="curve" smooth="yes"/>
			<point x="315" y="641"/>
			<point x="294" y="665"/>
			<point x="294" y="703" type="curve" smooth="yes"/>
			<point x="294" y="753"/>
			<point x="320" y="780"/>
			<point x="369" y="780" type="curve" smooth="yes"/>
			<point x="412" y="780"/>
			<point x="431" y="756"/>
			<point x="431" y="720" type="curve" smooth="yes"/>
			<point x="431" y="668"/>
			<point x="406" y="641"/>
		</contour>
	</outline>
	<anchor name="_top" x="337" y="523"/>
</glyph>
<glyph name="ogonek" format="2">
	<unicode hex="02DB"/>
	<advance width="600"/>
	<outline>
		<contour>
			<point x="264" y="-203" type="curve" smooth="yes"/>
			<point x="286" y="-203"/>
			<point x="310" y="-198"/>
			<point x="322" y="-193" type="curve"/>
			<point x="330" y="-134" type="line"/>
			<point x="320" y="-138"/>
			<point x="303" y="-141"/>
			<point x="286" y="-141" type="curve" smooth="yes"/>
			<point x="254" y="-141"/>
			<point x="231" y="-130"/>
			<point x="231" y="-100" type="curve" smooth="yes"/>
			<point x="231" y="-63"/>
			<point x="260" y="-28"/>
			<point x="340" y="0" type="curve"/>
			<point x="274" y="1" type="line"/>
			<point x="199" y="-23"/>
			<point x="157" y="-69"/>
			<point x="157" y="-122" type="curve" smooth="yes"/>
			<point x="157" y="-180"/>
			<point x="198" y="-203"/>
		</contour>
	</outline>
	<anchor name="_ogonek" x="340" y="0"/>
</glyph>
<glyph name="tilde" format="2">
	<unicode hex="02DC"/>
	<advance width="600"/>
	<outline>
		<contour>
			<point x="190" y="615" type="curve"/>
			<point x="252" y="615" type="line"/>
			<point x="258" y="657"/>
			<point x="271" y="680"/>
			<point x="294" y="680" type="curve"/>
			<point x="335" y="680"/>
			<point x="361" y="611"/>
			<point x="427" y="611" type="curve" smooth="yes"/>
			<point x="479" y="611"/>
			<point x="513" y="646"/>
			<point x="526" y="734" type="curve"/>
			<point x="464" y="734" type="line"/>
			<point x="457" y="692"/>
			<point x="446" y="669"/>
			<point x="423" y="669" type="curve" smooth="yes"/>
			<point x="382" y="669"/>
			<point x="353" y="738"/>
			<point x="288" y="738" type="curve" smooth="yes"/>
			<point x="233" y="738"/>
			<point x="201" y="694"/>
		</contour>
	</outline>
	<anchor name="_top" x="338" y="523"/>
</glyph>
<glyph name="pi" format="2">
	<unicode hex="03C0"/>
	<advance width="600"/>
	<outline>
		<contour>
			<point x="73" y="-1" type="line"/>
			<point x="154" y="-1" type="line"/>
			<point x="218" y="454" type="line"/>
			<point x="422" y="454" type="line"/>
			<point x="373" y="113" type="line" smooth="yes"/>
			<point x="360" y="22"/>
			<point x="401" y="-12"/>
			<point x="473" y="-12" type="curve" smooth="yes"/>
			<point x="500" y="-12"/>
			<point x="521" y="-7"/>
			<point x="530" y="-3" type="curve"/>
			<point x="539" y="59" type="line"/>
			<point x="530" y="56"/>
			<point x="515" y="54"/>
			<point x="503" y="54" type="curve" smooth="yes"/>
			<point x="467" y="54"/>
			<point x="447" y="69"/>
			<point x="454" y="113" type="curve" smooth="yes"/>
			<point x="502" y="454" type="line"/>
			<point x="595" y="454" type="line"/>
			<point x="605" y="523" type="line"/>
			<point x="56" y="523" type="line"/>
			<point x="46" y="454" type="line"/>
			<point x="137" y="454" type="line"/>
		</contour>
	</outline>
</glyph>
<glyph name="emdash" format="2">
	<unicode hex="2014"/>
	<advance width="600"/>
	<outline>
		<contour>
			<point x="611" y="339" type="line"/>
			<point x="11" y="339" type="line"/>
			<point x="0" y="261" type="line"/>
			<point x="599" y="261" type="line"/>
		</contour>
	</outline>
</glyph>
<glyph name="quoteright" format="2">
	<unicode hex="2019"/>
	<advance width="600"/>
	<outline>
		<contour>
			<point x="336" y="750" type="line"/>
			<point x="244" y="469" type="line"/>
			<point x="304" y="469" type="line"/>
			<point x="451" y="750" type="line"/>
		</contour>
	</outline>
</glyph>
<glyph name="quotedblright" format="2">
	<unicode hex="201D"/>
	<advance width="600"/>
	<outline>
		<contour>
			<point x="259" y="750" type="line"/>
			<point x="167" y="469" type="line"/>
			<point x="226" y="469" type="line"/>
			<point x="372" y="750" type="line"/>
		</contour>
		<contour>
			<point x="439" y="750" type="line"/>
			<point x="347" y="469" type="line"/>
			<point x="407" y="469" type="line"/>
			<point x="553" y="750" type="line"/>
		</contour>
	</outline>
</glyph>
<glyph name="ellipsis" format="2">
	<unicode hex="2026"/>
	<advance width="600"/>
	<outline>
		<contour>
			<point x="84" y="-12" type="curve" smooth="yes"/>
			<point x="125" y="-12"/>
			<point x="139" y="11"/>
			<point x="144" y="48" type="curve" smooth="yes"/>
			<point x="150" y="91"/>
			<point x="135" y="116"/>
			<point x="95" y="116" type="curve" smooth="yes"/>
			<point x="54" y="116"/>
			<point x="39" y="94"/>
			<point x="34" y="56" type="curve" smooth="yes"/>
			<point x="29" y="13"/>
			<point x="44" y="-12"/>
		</contour>
		<contour>
			<point x="266" y="-12" type="curve" smooth="yes"/>
			<point x="307" y="-12"/>
			<point x="320" y="11"/>
			<point x="325" y="48" type="curve" smooth="yes"/>
			<point x="331" y="91"/>
			<point x="315" y="116"/>
			<point x="276" y="116" type="curve" smooth="yes"/>
			<point x="235" y="116"/>
			<point x="220" y="94"/>
			<point x="215" y="56" type="curve" smooth="yes"/>
			<point x="210" y="13"/>
			<point x="226" y="-12"/>
		</contour>
		<contour>
			<point x="447" y="-12" type="curve" smooth="yes"/>
			<point x="488" y="-12"/>
			<point x="501" y="11"/>
			<point x="506" y="48" type="curve" smooth="yes"/>
			<point x="512" y="91"/>
			<point x="497" y="116"/>
			<point x="457" y="116" type="curve" smooth="yes"/>
			<point x="416" y="116"/>
			<point x="401" y="94"/>
			<point x="396" y="56" type="curve" smooth="yes"/>
			<point x="391" y="13"/>
			<point x="407" y="-12"/>
		</contour>
	</outline>
</glyph>
<glyph name="Euro" format="2">
	<unicode hex="20AC"/>
	<advance width="600"/>
	<outline>
		<contour>
			<point x="25" y="245" type="line"/>
			<point x="115" y="245" type="line"/>
			<point x="129" y="91"/>
			<point x="219" y="-12"/>
			<point x="386" y="-12" type="curve" smooth="yes"/>
			<point x="442" y="-12"/>
			<point x="482" y="-2"/>
			<point x="516" y="15" type="curve"/>
			<point x="526" y="91" type="line"/>
			<point x="487" y="70"/>
			<point x="443" y="61"/>
			<point x="397" y="61" type="curve" smooth="yes"/>
			<point x="279" y="61"/>
			<point x="218" y="134"/>
			<point x="205" y="245" type="curve"/>
			<point x="442" y="245" type="line"/>
			<point x="450" y="304" type="line"/>
			<point x="202" y="304" type="line"/>
			<point x="203" y="326"/>
			<point x="205" y="348"/>
			<point x="208" y="371" type="curve" smooth="yes"/>
			<point x="209" y="377" type="line"/>
			<point x="460" y="377" type="line"/>
			<point x="469" y="436" type="line"/>
			<point x="220" y="436" type="line"/>
			<point x="253" y="561"/>
			<point x="328" y="623"/>
			<point x="440" y="623" type="curve" smooth="yes"/>
			<point x="498" y="623"/>
			<point x="552" y="608"/>
			<point x="596" y="576" type="curve"/>
			<point x="606" y="652" type="line"/>
			<point x="567" y="677"/>
			<point x="511" y="695"/>
			<point x="439" y="695" type="curve" smooth="yes"/>
			<point x="277" y="695"/>
			<point x="168" y="601"/>
			<point x="130" y="436" type="curve"/>
			<point x="53" y="436" type="line"/>
			<point x="44" y="377" type="line"/>
			<point x="119" y="377" type="line"/>
			<point x="119" y="375" type="line" smooth="yes"/>
			<point x="116" y="351"/>
			<point x="113" y="327"/>
			<point x="113" y="304" type="curve"/>
			<point x="34" y="304" type="line"/>
		</contour>
	</outline>
</glyph>
<glyph name="published" format="2">
	<unicode hex="2117"/>
	<advance width="600"/>
	<outline>
		<contour>
			<point x="302" y="105" type="curve" smooth="yes"/>
			<point x="441" y="105"/>
			<point x="546" y="194"/>
			<point x="568" y="346" type="curve" smooth="yes"/>
			<point x="570" y="360" type="line" smooth="yes"/>
			<point x="594" y="531"/>
			<point x="497" y="657"/>
			<point x="331" y="657" type="curve" smooth="yes"/>
			<point x="189" y="657"/>
			<point x="87" y="569"/>
			<point x="66" y="419" type="curve" smooth="yes"/>
			<point x="64" y="405" type="line" smooth="yes"/>
			<point x="39" y="232"/>
			<point x="136" y="105"/>
		</contour>
		<contour>
			<point x="306" y="151" type="curve" smooth="yes"/>
			<point x="166" y="151"/>
			<point x="92" y="255"/>
			<point x="113" y="404" type="curve" smooth="yes"/>
			<point x="114" y="411" type="line" smooth="yes"/>
			<point x="132" y="541"/>
			<point x="210" y="611"/>
			<point x="328" y="611" type="curve" smooth="yes"/>
			<point x="468" y="611"/>
			<point x="542" y="508"/>
			<point x="521" y="360" type="curve" smooth="yes"/>
			<point x="520" y="353" type="line" smooth="yes"/>
			<point x="501" y="221"/>
			<point x="420" y="151"/>
		</contour>
		<contour>
			<point x="207" y="249" type="line"/>
			<point x="254" y="249" type="line"/>
			<point x="266" y="334" type="line"/>
			<point x="325" y="334" type="line" smooth="yes"/>
			<point x="394" y="334"/>
			<point x="435" y="372"/>
			<point x="435" y="429" type="curve" smooth="yes"/>
			<point x="435" y="479"/>
			<point x="400" y="510"/>
			<point x="339" y="510" type="curve" smooth="yes"/>
			<point x="244" y="510" type="line"/>
		</contour>
		<contour>
			<point x="336" y="473" type="line" smooth="yes"/>
			<point x="369" y="473"/>
			<point x="387" y="455"/>
			<point x="387" y="425" type="curve" smooth="yes"/>
			<point x="387" y="394"/>
			<point x="367" y="372"/>
			<point x="325" y="372" type="curve" smooth="yes"/>
			<point x="271" y="372" type="line"/>
			<point x="286" y="473" type="line"/>
		</contour>
	</outline>
</glyph>
<glyph name="ohm" format="2">
	<unicode hex="2126"/>
	<advance width="600"/>
	<outline>
		<contour>
			<point x="22" y="-1" type="line"/>
			<point x="240" y="0" type="line"/>
			<point x="249" y="72" type="line"/>
			<point x="173" y="161"/>
			<point x="147" y="285"/>
			<point x="165" y="409" type="curve" smooth="yes"/>
			<point x="166" y="416" type="line" smooth="yes"/>
			<point x="184" y="547"/>
			<point x="240" y="626"/>
			<point x="340" y="626" type="curve" smooth="yes"/>
			<point x="465" y="626"/>
			<point x="493" y="518"/>
			<point x="473" y="377" type="curve" smooth="yes"/>
			<point x="472" y="370" type="line" smooth="yes"/>
			<point x="454" y="242"/>
			<point x="394" y="146"/>
			<point x="298" y="72" type="curve"/>
			<point x="287" y="0" type="line"/>
			<point x="504" y="0" type="line"/>
			<point x="515" y="73" type="line"/>
			<point x="390" y="73" type="line"/>
			<point x="481" y="144"/>
			<point x="542" y="240"/>
			<point x="559" y="363" type="curve" smooth="yes"/>
			<point x="561" y="377" type="line" smooth="yes"/>
			<point x="586" y="554"/>
			<point x="530" y="697"/>
			<point x="345" y="697" type="curve" smooth="yes"/>
			<point x="197" y="697"/>
			<point x="102" y="595"/>
			<point x="79" y="429" type="curve" smooth="yes"/>
			<point x="77" y="415" type="line" smooth="yes"/>
			<point x="58" y="284"/>
			<point x="87" y="155"/>
			<point x="161" y="73" type="curve"/>
			<point x="32" y="73" type="line"/>
		</contour>
	</outline>
</glyph>
<glyph name="arrowup" format="2">
	<unicode hex="2191"/>
	<advance width="600"/>
	<outline>
		<contour>
			<point x="228" y="0" type="line"/>
			<point x="300" y="0" type="line"/>
			<point x="380" y="573" type="line"/>
			<point x="542" y="384" type="line"/>
			<point x="556" y="478" type="line"/>
			<point x="362" y="703" type="line"/>
			<point x="106" y="478" type="line"/>
			<point x="92" y="384" type="line"/>
			<point x="308" y="574" type="line"/>
		</contour>
	</outline>
</glyph>
<glyph name="arrowright" format="2">
	<unicode hex="2192"/>
	<advance width="600"/>
	<outline>
		<contour>
			<point x="305" y="585" type="line"/>
			<point x="471" y="395" type="line"/>
			<point x="61" y="395" type="line"/>
			<point x="51" y="323" type="line"/>
			<point x="460" y="323" type="line"/>
			<point x="243" y="134" type="line"/>
			<point x="337" y="134" type="line"/>
			<point x="594" y="359" type="line"/>
			<point x="399" y="585" type="line"/>
		</contour>
	</outline>
</glyph>
<glyph name="arrowdown" format="2">
	<unicode hex="2193"/>
	<advance width="600"/>
	<outline>
		<contour>
			<point x="530" y="300" type="line"/>
			<point x="315" y="110" type="line"/>
			<point x="395" y="684" type="line"/>
			<point x="323" y="684" type="line"/>
			<point x="243" y="110" type="line"/>
			<point x="80" y="300" type="line"/>
			<point x="66" y="206" type="line"/>
			<point x="261" y="-19" type="line"/>
			<point x="517" y="206" type="line"/>
		</contour>
	</outline>
</glyph>
<glyph name="uni2198" format="2">
	<unicode hex="2198"/>
	<advance width="600"/>
	<outline>
		<contour>
			<point x="189" y="73" type="line"/>
			<point x="529" y="73" type="line"/>
			<point x="578" y="413" type="line"/>
			<point x="521" y="479" type="line"/>
			<point x="481" y="185" type="line"/>
			<point x="114" y="611" type="line"/>
			<point x="60" y="563" type="line"/>
			<point x="426" y="138" type="line"/>
			<point x="132" y="139" type="line"/>
		</contour>
	</outline>
</glyph>
<glyph name="uni2199" format="2">
	<unicode hex="2199"/>
	<advance width="600"/>
	<outline>
		<contour>
			<point x="18" y="73" type="line"/>
			<point x="358" y="73" type="line"/>
			<point x="434" y="138" type="line"/>
			<point x="146" y="137" type="line"/>
			<point x="623" y="556" type="line"/>
			<point x="577" y="610" type="line"/>
			<point x="101" y="191" type="line"/>
			<point x="142" y="479" type="line"/>
			<point x="66" y="413" type="line"/>
		</contour>
	</outline>
</glyph>
<glyph name="partialdiff" format="2">
	<unicode hex="2202"/>
	<advance width="600"/>
	<outline>
		<contour>
			<point x="278" y="-14" type="curve" smooth="yes"/>
			<point x="422" y="-14"/>
			<point x="508" y="89"/>
			<point x="532" y="252" type="curve" smooth="yes"/>
			<point x="534" y="266" type="line" smooth="yes"/>
			<point x="563" y="467"/>
			<point x="472" y="598"/>
			<point x="358" y="684" type="curve"/>
			<point x="230" y="684" type="line"/>
			<point x="347" y="610"/>
			<point x="423" y="517"/>
			<point x="448" y="400" type="curve"/>
			<point x="414" y="459"/>
			<point x="360" y="498"/>
			<point x="285" y="498" type="curve" smooth="yes"/>
			<point x="175" y="498"/>
			<point x="88" y="413"/>
			<point x="69" y="278" type="curve" smooth="yes"/>
			<point x="67" y="264" type="line" smooth="yes"/>
			<point x="45" y="108"/>
			<point x="116" y="-14"/>
		</contour>
		<contour>
			<point x="282" y="56" type="curve" smooth="yes"/>
			<point x="189" y="56"/>
			<point x="135" y="129"/>
			<point x="154" y="258" type="curve" smooth="yes"/>
			<point x="155" y="265" type="line" smooth="yes"/>
			<point x="171" y="383"/>
			<point x="234" y="434"/>
			<point x="311" y="434" type="curve" smooth="yes"/>
			<point x="387" y="434"/>
			<point x="462" y="384"/>
			<point x="442" y="244" type="curve" smooth="yes"/>
			<point x="441" y="237" type="line" smooth="yes"/>
			<point x="426" y="131"/>
			<point x="374" y="56"/>
		</contour>
	</outline>
</glyph>
<glyph name="product" format="2">
	<unicode hex="220F"/>
	<advance width="600"/>
	<outline>
		<contour>
			<point x="41" y="0" type="line"/>
			<point x="124" y="0" type="line"/>
			<point x="210" y="611" type="line"/>
			<point x="488" y="611" type="line"/>
			<point x="402" y="0" type="line"/>
			<point x="484" y="0" type="line"/>
			<point x="581" y="684" type="line"/>
			<point x="137" y="684" type="line"/>
		</contour>
	</outline>
</glyph>
<glyph name="summation" format="2">
	<unicode hex="2211"/>
	<advance width="600"/>
	<outline>
		<contour>
			<point x="32" y="0" type="line"/>
			<point x="495" y="0" type="line"/>
			<point x="506" y="73" type="line"/>
			<point x="155" y="73" type="line"/>
			<point x="433" y="313" type="line"/>
			<point x="441" y="374" type="line"/>
			<point x="230" y="612" type="line"/>
			<point x="575" y="612" type="line"/>
			<point x="584" y="684" type="line"/>
			<point x="129" y="684" type="line"/>
			<point x="120" y="616" type="line"/>
			<point x="362" y="347" type="line"/>
			<point x="42" y="70" type="line"/>
		</contour>
	</outline>
</glyph>
<glyph name="minus" format="2">
	<unicode hex="2212"/>
	<advance width="600"/>
	<outline>
		<contour>
			<point x="75" y="264" type="line"/>
			<point x="525" y="264" type="line"/>
			<point x="535" y="338" type="line"/>
			<point x="86" y="338" type="line"/>
		</contour>
	</outline>
</glyph>
<glyph name="radical" format="2">
	<unicode hex="221A"/>
	<advance width="600"/>
	<outline>
		<contour>
			<point x="191" y="0" type="line"/>
			<point x="295" y="0" type="line"/>
			<point x="627" y="684" type="line"/>
			<point x="534" y="684" type="line"/>
			<point x="254" y="89" type="line"/>
			<point x="196" y="450" type="line"/>
			<point x="66" y="450" type="line"/>
			<point x="56" y="376" type="line"/>
			<point x="125" y="376" type="line"/>
		</contour>
	</outline>
</glyph>
<glyph name="infinity" format="2">
	<unicode hex="221E"/>
	<advance width="600"/>
	<outline>
		<contour>
			<point x="209" y="592" type="curve" smooth="yes"/>
			<point x="119" y="592"/>
			<point x="65" y="511"/>
			<point x="42" y="355" type="curve" smooth="yes"/>
			<point x="17" y="179"/>
			<point x="50" y="75"/>
			<point x="159" y="75" type="curve" smooth="yes"/>
			<point x="221" y="75"/>
			<point x="273" y="123"/>
			<point x="294" y="206" type="curve"/>
			<point x="300" y="120"/>
			<point x="341" y="74"/>
			<point x="411" y="74" type="curve" smooth="yes"/>
			<point x="502" y="74"/>
			<point x="557" y="161"/>
			<point x="579" y="316" type="curve" smooth="yes"/>
			<point x="603" y="491"/>
			<point x="569" y="591"/>
			<point x="464" y="591" type="curve" smooth="yes"/>
			<point x="394" y="591"/>
			<point x="348" y="539"/>
			<point x="326" y="464" type="curve"/>
			<point x="318" y="547"/>
			<point x="277" y="592"/>
		</contour>
		<contour>
			<point x="170" y="142" type="curve" smooth="yes"/>
			<point x="109" y="142"/>
			<point x="92" y="215"/>
			<point x="111" y="347" type="curve" smooth="yes"/>
			<point x="127" y="465"/>
			<point x="157" y="525"/>
			<point x="211" y="525" type="curve" smooth="yes"/>
			<point x="271" y="525"/>
			<point x="290" y="456"/>
			<point x="270" y="316" type="curve" smooth="yes"/>
			<point x="254" y="202"/>
			<point x="225" y="142"/>
		</contour>
		<contour>
			<point x="410" y="142" type="curve" smooth="yes"/>
			<point x="351" y="142"/>
			<point x="329" y="208"/>
			<point x="348" y="349" type="curve" smooth="yes"/>
			<point x="364" y="460"/>
			<point x="394" y="525"/>
			<point x="449" y="525" type="curve" smooth="yes"/>
			<point x="515" y="525"/>
			<point x="526" y="440"/>
			<point x="511" y="322" type="curve" smooth="yes"/>
			<point x="494" y="203"/>
			<point x="464" y="142"/>
		</contour>
	</outline>
</glyph>
<glyph name="integral" format="2">
	<unicode hex="222B"/>
	<advance width="600"/>
	<outline>
		<contour>
			<point x="103" y="-204" type="curve" smooth="yes"/>
			<point x="194" y="-204"/>
			<point x="270" y="-163"/>
			<point x="288" y="-39" type="curve" smooth="yes"/>
			<point x="364" y="507" type="line" smooth="yes"/>
			<point x="377" y="599"/>
			<point x="420" y="628"/>
			<point x="484" y="628" type="curve" smooth="yes"/>
			<point x="518" y="628"/>
			<point x="543" y="620"/>
			<point x="557" y="615" type="curve"/>
			<point x="566" y="679" type="line"/>
			<point x="548" y="689"/>
			<point x="513" y="696"/>
			<point x="474" y="696" type="curve" smooth="yes"/>
			<point x="374" y="696"/>
			<point x="301" y="648"/>
			<point x="283" y="519" type="curve" smooth="yes"/>
			<point x="206" y="-30" type="line" smooth="yes"/>
			<point x="196" y="-104"/>
			<point x="165" y="-138"/>
			<point x="95" y="-138" type="curve" smooth="yes"/>
			<point x="67" y="-138"/>
			<point x="37" y="-133"/>
			<point x="13" y="-123" type="curve"/>
			<point x="4" y="-185" type="line"/>
			<point x="23" y="-195"/>
			<point x="64" y="-204"/>
		</contour>
	</outline>
</glyph>
<glyph name="notequal" format="2">
	<unicode hex="2260"/>
	<advance width="600"/>
	<outline>
		<contour>
			<point x="96" y="74" type="line"/>
			<point x="169" y="74" type="line"/>
			<point x="228" y="152" type="line"/>
			<point x="510" y="152" type="line"/>
			<point x="520" y="226" type="line"/>
			<point x="285" y="226" type="line"/>
			<point x="390" y="364" type="line"/>
			<point x="540" y="364" type="line"/>
			<point x="550" y="438" type="line"/>
			<point x="447" y="438" type="line"/>
			<point x="506" y="516" type="line"/>
			<point x="433" y="516" type="line"/>
			<point x="374" y="438" type="line"/>
			<point x="101" y="438" type="line"/>
			<point x="90" y="364" type="line"/>
			<point x="317" y="364" type="line"/>
			<point x="212" y="226" type="line"/>
			<point x="71" y="226" type="line"/>
			<point x="60" y="152" type="line"/>
			<point x="155" y="152" type="line"/>
		</contour>
	</outline>
</glyph>
<glyph name="greaterequal" format="2">
	<unicode hex="2265"/>
	<advance width="600"/>
	<outline>
		<contour>
			<point x="57" y="128" type="line"/>
			<point x="532" y="317" type="line"/>
			<point x="545" y="408" type="line"/>
			<point x="124" y="597" type="line"/>
			<point x="111" y="516" type="line"/>
			<point x="464" y="364" type="line"/>
			<point x="69" y="213" type="line"/>
		</contour>
		<contour>
			<point x="38" y="0" type="line"/>
			<point x="488" y="0" type="line"/>
			<point x="498" y="74" type="line"/>
			<point x="49" y="74" type="line"/>
		</contour>
	</outline>
</glyph>
<glyph name="commaaccent" format="2">
	<unicode hex="F6C3"/>
	<advance width="600"/>
	<outline>
		<contour>
			<point x="175" y="-270" type="curve"/>
			<point x="231" y="-270" type="line"/>
			<point x="263" y="-243"/>
			<point x="295" y="-193"/>
			<point x="304" y="-138" type="curve" smooth="yes"/>
			<point x="313" y="-80"/>
			<point x="295" y="-61"/>
			<point x="250" y="-61" type="curve" smooth="yes"/>
			<point x="212" y="-61"/>
			<point x="195" y="-76"/>
			<point x="191" y="-109" type="curve" smooth="yes"/>
			<point x="187" y="-143"/>
			<point x="202" y="-160"/>
			<point x="234" y="-161" type="curve"/>
			<point x="224" y="-195"/>
			<point x="201" y="-237"/>
		</contour>
	</outline>
	<anchor name="_bottom" x="265" y="0"/>
</glyph>
<glyph name="a.ss01" format="2">
	<advance width="600"/>
	<outline>
		<contour>
			<point x="230" y="-14" type="curve" smooth="yes"/>
			<point x="301" y="-14"/>
			<point x="363" y="21"/>
			<point x="403" y="106" type="curve"/>
			<point x="388" y="0" type="line"/>
			<point x="470" y="0" type="line"/>
			<point x="544" y="523" type="line"/>
			<point x="379" y="523" type="line" smooth="yes"/>
			<point x="206" y="523"/>
			<point x="93" y="424"/>
			<point x="70" y="263" type="curve" smooth="yes"/>
			<point x="68" y="249" type="line" smooth="yes"/>
			<point x="44" y="81"/>
			<point x="111" y="-14"/>
		</contour>
		<contour>
			<point x="154" y="252" type="curve" smooth="yes"/>
			<point x="155" y="259" type="line"/>
			<point x="174" y="390"/>
			<point x="249" y="454"/>
			<point x="370" y="454" type="curve" smooth="yes"/>
			<point x="451" y="454" type="line"/>
			<point x="418" y="220" type="line" smooth="yes"/>
			<point x="404" y="126"/>
			<point x="350" y="56"/>
			<point x="266" y="56" type="curve" smooth="yes"/>
			<point x="181" y="56"/>
			<point x="136" y="126"/>
		</contour>
	</outline>
	<anchor name="ogonek" x="470" y="0"/>
	<anchor name="bottom" x="256" y="-1"/>
	<anchor name="top" x="361" y="523"/>
</glyph>
<glyph name="aogonek.001" format="2">
	<advance width="600"/>
	<outline>
		<contour>
			<point x="230" y="-14" type="curve" smooth="yes"/>
			<point x="301" y="-14"/>
			<point x="363" y="21"/>
			<point x="403" y="106" type="curve"/>
			<point x="388" y="0" type="line"/>
			<point x="401" y="0" type="line"/>
			<point x="329" y="-23"/>
			<point x="287" y="-69"/>
			<point x="287" y="-122" type="curve" smooth="yes"/>
			<point x="287" y="-180"/>
			<point x="328" y="-203"/>
			<point x="394" y="-203" type="curve" smooth="yes"/>
			<point x="416" y="-203"/>
			<point x="440" y="-198"/>
			<point x="452" y="-193" type="curve"/>
			<point x="460" y="-134" type="line"/>
			<point x="450" y="-138"/>
			<point x="433" y="-141"/>
			<point x="416" y="-141" type="curve" smooth="yes"/>
			<point x="384" y="-141"/>
			<point x="361" y="-130"/>
			<point x="361" y="-100" type="curve" smooth="yes"/>
			<point x="361" y="-63"/>
			<point x="390" y="-28"/>
			<point x="470" y="0" type="curve"/>
			<point x="544" y="523" type="line"/>
			<point x="379" y="523" type="line" smooth="yes"/>
			<point x="206" y="523"/>
			<point x="93" y="424"/>
			<point x="70" y="263" type="curve" smooth="yes"/>
			<point x="68" y="249" type="line" smooth="yes"/>
			<point x="44" y="81"/>
			<point x="111" y="-14"/>
		</contour>
		<contour>
			<point x="154" y="252" type="curve" smooth="yes"/>
			<point x="155" y="259" type="line"/>
			<point x="174" y="390"/>
			<point x="249" y="454"/>
			<point x="370" y="454" type="curve" smooth="yes"/>
			<point x="451" y="454" type="line"/>
			<point x="418" y="220" type="line" smooth="yes"/>
			<point x="404" y="126"/>
			<point x="350" y="56"/>
			<point x="266" y="56" type="curve" smooth="yes"/>
			<point x="181" y="56"/>
			<point x="136" y="126"/>
		</contour>
	</outline>
</glyph>
<glyph name="asciitilde_asciitilde_asciitilde.rem" format="2">
	<advance width="600"/>
	<outline>
		<contour>
			<point x="-605" y="214" type="curve"/>
			<point x="-495" y="214"/>
			<point x="-468" y="341"/>
			<point x="-391" y="341" type="curve" smooth="yes"/>
			<point x="-313" y="341"/>
			<point x="-302" y="214"/>
			<point x="-188" y="214" type="curve" smooth="yes"/>
			<point x="-74" y="214"/>
			<point x="-48" y="341"/>
			<point x="34" y="341" type="curve"/>
			<point x="116" y="341"/>
			<point x="122" y="214"/>
			<point x="237" y="214" type="curve"/>
			<point x="331" y="214"/>
			<point x="393" y="293"/>
			<point x="421" y="413" type="curve"/>
			<point x="347" y="413" type="line"/>
			<point x="327" y="343"/>
			<point x="300" y="293"/>
			<point x="239" y="293" type="curve"/>
			<point x="158" y="293"/>
			<point x="159" y="418"/>
			<point x="38" y="418" type="curve"/>
			<point x="-78" y="418"/>
			<point x="-102" y="292"/>
			<point x="-183" y="292" type="curve" smooth="yes"/>
			<point x="-265" y="292"/>
			<point x="-266" y="418"/>
			<point x="-384" y="418" type="curve" smooth="yes"/>
			<point x="-499" y="418"/>
			<point x="-522" y="292"/>
			<point x="-600" y="292" type="curve"/>
			<point x="-686" y="292"/>
			<point x="-696" y="418"/>
			<point x="-810" y="418" type="curve"/>
			<point x="-902" y="418"/>
			<point x="-964" y="338"/>
			<point x="-992" y="219" type="curve"/>
			<point x="-918" y="219" type="line"/>
			<point x="-899" y="284"/>
			<point x="-873" y="340"/>
			<point x="-812" y="340" type="curve"/>
			<point x="-730" y="340"/>
			<point x="-729" y="214"/>
		</contour>
	</outline>
</glyph>
<glyph name="asciitilde_asciitilde_greater.cLig" format="2">
	<advance width="600"/>
	<outline>
		<contour>
			<point x="190" y="629" type="line"/>
			<point x="401" y="352" type="line"/>
			<point x="17" y="353" type="line"/>
			<point x="-8" y="399"/>
			<point x="-49" y="423"/>
			<point x="-99" y="423" type="curve" smooth="yes"/>
			<point x="-214" y="423"/>
			<point x="-236" y="286"/>
			<point x="-319" y="286" type="curve" smooth="yes"/>
			<point x="-404" y="286"/>
			<point x="-394" y="421"/>
			<point x="-516" y="421" type="curve" smooth="yes"/>
			<point x="-630" y="421"/>
			<point x="-657" y="285"/>
			<point x="-732" y="285" type="curve"/>
			<point x="-818" y="285"/>
			<point x="-805" y="422"/>
			<point x="-936" y="422" type="curve" smooth="yes"/>
			<point x="-1020" y="422"/>
			<point x="-1087" y="354"/>
			<point x="-1119" y="230" type="curve"/>
			<point x="-1045" y="230" type="line"/>
			<point x="-1025" y="303"/>
			<point x="-987" y="343"/>
			<point x="-937" y="343" type="curve" smooth="yes"/>
			<point x="-850" y="343"/>
			<point x="-860" y="208"/>
			<point x="-738" y="208" type="curve"/>
			<point x="-623" y="208"/>
			<point x="-603" y="343"/>
			<point x="-520" y="343" type="curve" smooth="yes"/>
			<point x="-434" y="343"/>
			<point x="-448" y="208"/>
			<point x="-327" y="208" type="curve" smooth="yes"/>
			<point x="-207" y="208"/>
			<point x="-190" y="346"/>
			<point x="-106" y="346" type="curve" smooth="yes"/>
			<point x="-66" y="346"/>
			<point x="-42" y="321"/>
			<point x="-31" y="276" type="curve"/>
			<point x="2" y="276" type="line"/>
			<point x="383" y="275" type="line"/>
			<point x="97" y="0" type="line"/>
			<point x="201" y="0" type="line"/>
			<point x="523" y="314" type="line"/>
			<point x="285" y="629" type="line"/>
		</contour>
	</outline>
</glyph>
<glyph name="asciitilde_greater.cLig" format="2">
	<advance width="600"/>
	<outline>
		<contour>
			<point x="283" y="353" type="line"/>
			<point x="-102" y="353" type="line"/>
			<point x="-112" y="308"/>
			<point x="-132" y="281"/>
			<point x="-171" y="281" type="curve" smooth="yes"/>
			<point x="-242" y="281"/>
			<point x="-258" y="411"/>
			<point x="-362" y="411" type="curve" smooth="yes"/>
			<point x="-434" y="411"/>
			<point x="-490" y="366"/>
			<point x="-509" y="224" type="curve"/>
			<point x="-437" y="224" type="line"/>
			<point x="-427" y="300"/>
			<point x="-406" y="334"/>
			<point x="-364" y="334" type="curve" smooth="yes"/>
			<point x="-297" y="334"/>
			<point x="-277" y="204"/>
			<point x="-170" y="204" type="curve" smooth="yes"/>
			<point x="-121" y="204"/>
			<point x="-82" y="229"/>
			<point x="-59" y="276" type="curve"/>
			<point x="-20" y="276" type="line"/>
			<point x="361" y="275" type="line"/>
			<point x="74" y="0" type="line"/>
			<point x="179" y="0" type="line"/>
			<point x="501" y="314" type="line"/>
			<point x="263" y="629" type="line"/>
			<point x="167" y="629" type="line"/>
			<point x="378" y="352" type="line"/>
			<point x="283" y="352" type="line"/>
		</contour>
	</outline>
</glyph>
<glyph name="asterisk_asterisk.cLig" format="2">
	<advance width="600"/>
	<outline>
		<contour>
			<point x="-112" y="163" type="line"/>
			<point x="-59" y="238" type="line"/>
			<point x="-232" y="320" type="line"/>
			<point x="-36" y="403" type="line"/>
			<point x="-68" y="477" type="line"/>
			<point x="-247" y="359" type="line"/>
			<point x="-199" y="560" type="line"/>
			<point x="-285" y="560" type="line"/>
			<point x="-292" y="357" type="line"/>
			<point x="-441" y="478" type="line"/>
			<point x="-494" y="404" type="line"/>
			<point x="-320" y="321" type="line"/>
			<point x="-518" y="238" type="line"/>
			<point x="-486" y="163" type="line"/>
			<point x="-302" y="284" type="line"/>
			<point x="-352" y="79" type="line"/>
			<point x="-266" y="79" type="line"/>
			<point x="-259" y="281" type="line"/>
		</contour>
		<contour>
			<point x="457" y="162" type="line"/>
			<point x="510" y="237" type="line"/>
			<point x="337" y="319" type="line"/>
			<point x="533" y="402" type="line"/>
			<point x="501" y="476" type="line"/>
			<point x="322" y="358" type="line"/>
			<point x="370" y="559" type="line"/>
			<point x="284" y="559" type="line"/>
			<point x="277" y="356" type="line"/>
			<point x="128" y="477" type="line"/>
			<point x="75" y="403" type="line"/>
			<point x="249" y="320" type="line"/>
			<point x="51" y="237" type="line"/>
			<point x="83" y="162" type="line"/>
			<point x="267" y="283" type="line"/>
			<point x="217" y="78" type="line"/>
			<point x="303" y="78" type="line"/>
			<point x="310" y="280" type="line"/>
		</contour>
	</outline>
</glyph>
<glyph name="asterisk_asterisk_asterisk.cLig" format="2">
	<advance width="600"/>
	<outline>
		<contour>
			<point x="-113" y="288" type="line"/>
			<point x="-60" y="363" type="line"/>
			<point x="-233" y="445" type="line"/>
			<point x="-37" y="528" type="line"/>
			<point x="-69" y="602" type="line"/>
			<point x="-248" y="484" type="line"/>
			<point x="-200" y="685" type="line"/>
			<point x="-286" y="685" type="line"/>
			<point x="-293" y="482" type="line"/>
			<point x="-442" y="603" type="line"/>
			<point x="-495" y="529" type="line"/>
			<point x="-321" y="446" type="line"/>
			<point x="-519" y="363" type="line"/>
			<point x="-487" y="288" type="line"/>
			<point x="-303" y="409" type="line"/>
			<point x="-353" y="204" type="line"/>
			<point x="-267" y="204" type="line"/>
			<point x="-260" y="406" type="line"/>
		</contour>
		<contour>
			<point x="-693" y="82" type="line"/>
			<point x="-640" y="157" type="line"/>
			<point x="-813" y="239" type="line"/>
			<point x="-617" y="322" type="line"/>
			<point x="-649" y="396" type="line"/>
			<point x="-828" y="278" type="line"/>
			<point x="-780" y="479" type="line"/>
			<point x="-866" y="479" type="line"/>
			<point x="-873" y="276" type="line"/>
			<point x="-1022" y="397" type="line"/>
			<point x="-1075" y="323" type="line"/>
			<point x="-901" y="240" type="line"/>
			<point x="-1099" y="157" type="line"/>
			<point x="-1067" y="82" type="line"/>
			<point x="-883" y="203" type="line"/>
			<point x="-933" y="-2" type="line"/>
			<point x="-847" y="-2" type="line"/>
			<point x="-840" y="200" type="line"/>
		</contour>
		<contour>
			<point x="420" y="82" type="line"/>
			<point x="473" y="157" type="line"/>
			<point x="300" y="239" type="line"/>
			<point x="496" y="322" type="line"/>
			<point x="464" y="396" type="line"/>
			<point x="285" y="278" type="line"/>
			<point x="333" y="479" type="line"/>
			<point x="247" y="479" type="line"/>
			<point x="240" y="276" type="line"/>
			<point x="91" y="397" type="line"/>
			<point x="38" y="323" type="line"/>
			<point x="212" y="240" type="line"/>
			<point x="14" y="157" type="line"/>
			<point x="46" y="82" type="line"/>
			<point x="230" y="203" type="line"/>
			<point x="180" y="-2" type="line"/>
			<point x="266" y="-2" type="line"/>
			<point x="273" y="200" type="line"/>
		</contour>
	</outline>
</glyph>
<glyph name="asterisk_slash.cLig" format="2">
	<advance width="600"/>
	<outline>
		<contour>
			<point x="463" y="792" type="line"/>
			<point x="-47" y="-163" type="line"/>
			<point x="41" y="-163" type="line"/>
			<point x="552" y="792" type="line"/>
		</contour>
		<contour>
			<point x="-76" y="163" type="line"/>
			<point x="-23" y="238" type="line"/>
			<point x="-196" y="320" type="line"/>
			<point x="0" y="403" type="line"/>
			<point x="-32" y="477" type="line"/>
			<point x="-211" y="359" type="line"/>
			<point x="-163" y="560" type="line"/>
			<point x="-249" y="560" type="line"/>
			<point x="-256" y="357" type="line"/>
			<point x="-405" y="478" type="line"/>
			<point x="-458" y="404" type="line"/>
			<point x="-284" y="321" type="line"/>
			<point x="-482" y="238" type="line"/>
			<point x="-450" y="163" type="line"/>
			<point x="-266" y="284" type="line"/>
			<point x="-316" y="79" type="line"/>
			<point x="-230" y="79" type="line"/>
			<point x="-223" y="281" type="line"/>
		</contour>
	</outline>
</glyph>
<glyph name="backslash_backslash.rem" format="2">
	<advance width="600"/>
	<outline>
		<contour>
			<point x="-145" y="-163" type="line"/>
			<point x="-64" y="-163" type="line"/>
			<point x="-312" y="792" type="line"/>
			<point x="-393" y="792" type="line"/>
		</contour>
		<contour>
			<point x="327" y="-163" type="line"/>
			<point x="408" y="-163" type="line"/>
			<point x="160" y="792" type="line"/>
			<point x="79" y="792" type="line"/>
		</contour>
	</outline>
</glyph>
<glyph name="backslash_slash.cLig" format="2">
	<advance width="600"/>
	<outline>
		<contour>
			<point x="-117" y="-163" type="line"/>
			<point x="4" y="-163" type="line"/>
			<point x="515" y="792" type="line"/>
			<point x="426" y="792" type="line"/>
			<point x="-52" y="-103" type="line"/>
			<point x="-284" y="792" type="line"/>
			<point x="-365" y="792" type="line"/>
		</contour>
	</outline>
</glyph>
<glyph name="bar_bar_bar.cLig" format="2">
	<advance width="600"/>
	<outline>
		<contour>
			<point x="234" y="792" type="line"/>
			<point x="99" y="-163" type="line"/>
			<point x="179" y="-163" type="line"/>
			<point x="313" y="792" type="line"/>
		</contour>
		<contour>
			<point x="-764" y="792" type="line"/>
			<point x="-899" y="-163" type="line"/>
			<point x="-819" y="-163" type="line"/>
			<point x="-685" y="792" type="line"/>
		</contour>
		<contour>
			<point x="-265" y="792" type="line"/>
			<point x="-400" y="-163" type="line"/>
			<point x="-320" y="-163" type="line"/>
			<point x="-186" y="792" type="line"/>
		</contour>
	</outline>
</glyph>
<glyph name="bar_bar_equal.fina" format="2">
	<advance width="600"/>
	<outline>
		<contour>
			<point x="-612" y="171" type="line"/>
			<point x="-123" y="171" type="line"/>
			<point x="-155" y="-55" type="line"/>
			<point x="-75" y="-55" type="line"/>
			<point x="29" y="684" type="line"/>
			<point x="-51" y="684" type="line"/>
			<point x="-83" y="458" type="line"/>
			<point x="-572" y="458" type="line"/>
			<point x="-582" y="383" type="line"/>
			<point x="-93" y="383" type="line"/>
			<point x="-112" y="246" type="line"/>
			<point x="-602" y="246" type="line"/>
		</contour>
		<contour>
			<point x="329" y="684" type="line"/>
			<point x="225" y="-55" type="line"/>
			<point x="305" y="-55" type="line"/>
			<point x="409" y="684" type="line"/>
		</contour>
	</outline>
</glyph>
<glyph name="bar_bar_equal.med" format="2">
	<advance width="600"/>
	<outline>
		<contour>
			<point x="105" y="-55" type="line"/>
			<point x="185" y="-55" type="line"/>
			<point x="217" y="171" type="line"/>
			<point x="587" y="171" type="line"/>
			<point x="597" y="246" type="line"/>
			<point x="227" y="246" type="line"/>
			<point x="246" y="383" type="line"/>
			<point x="617" y="383" type="line"/>
			<point x="627" y="458" type="line"/>
			<point x="257" y="458" type="line"/>
			<point x="289" y="684" type="line"/>
			<point x="209" y="684" type="line"/>
		</contour>
		<contour>
			<point x="-612" y="171" type="line"/>
			<point x="-242" y="171" type="line"/>
			<point x="-274" y="-55" type="line"/>
			<point x="-194" y="-55" type="line"/>
			<point x="-90" y="684" type="line"/>
			<point x="-170" y="684" type="line"/>
			<point x="-202" y="458" type="line"/>
			<point x="-572" y="458" type="line"/>
			<point x="-583" y="383" type="line"/>
			<point x="-212" y="383" type="line"/>
			<point x="-232" y="246" type="line"/>
			<point x="-602" y="246" type="line"/>
		</contour>
	</outline>
</glyph>
<glyph name="bar_braceright.cLig" format="2">
	<advance width="600"/>
	<outline>
		<contour>
			<point x="278" y="792" type="curve" smooth="yes"/>
			<point x="32" y="792" type="line"/>
			<point x="23" y="728" type="line"/>
			<point x="252" y="728" type="line" smooth="yes"/>
			<point x="313" y="728"/>
			<point x="345" y="704"/>
			<point x="345" y="655" type="curve" smooth="yes"/>
			<point x="345" y="558"/>
			<point x="207" y="514"/>
			<point x="207" y="411" type="curve" smooth="yes"/>
			<point x="207" y="361"/>
			<point x="249" y="325"/>
			<point x="299" y="316" type="curve"/>
			<point x="246" y="308"/>
			<point x="177" y="278"/>
			<point x="177" y="197" type="curve" smooth="yes"/>
			<point x="177" y="116"/>
			<point x="251" y="54"/>
			<point x="251" y="-18" type="curve" smooth="yes"/>
			<point x="251" y="-80"/>
			<point x="206" y="-99"/>
			<point x="139" y="-99" type="curve" smooth="yes"/>
			<point x="-92" y="-99" type="line"/>
			<point x="-102" y="-163" type="line"/>
			<point x="160" y="-163" type="line" smooth="yes"/>
			<point x="272" y="-163"/>
			<point x="335" y="-108"/>
			<point x="335" y="-25" type="curve" smooth="yes"/>
			<point x="335" y="60"/>
			<point x="261" y="129"/>
			<point x="261" y="199" type="curve" smooth="yes"/>
			<point x="261" y="242"/>
			<point x="291" y="277"/>
			<point x="346" y="277" type="curve" smooth="yes"/>
			<point x="426" y="277" type="line"/>
			<point x="437" y="354" type="line"/>
			<point x="362" y="354" type="line" smooth="yes"/>
			<point x="310" y="354"/>
			<point x="293" y="385"/>
			<point x="292" y="415" type="curve" smooth="yes"/>
			<point x="292" y="492"/>
			<point x="432" y="543"/>
			<point x="432" y="666" type="curve" smooth="yes"/>
			<point x="432" y="734"/>
			<point x="390" y="792"/>
		</contour>
		<contour>
			<point x="-325" y="-163" type="line"/>
			<point x="-190" y="792" type="line"/>
			<point x="-270" y="792" type="line"/>
			<point x="-404" y="-163" type="line"/>
		</contour>
	</outline>
</glyph>
<glyph name="bar_bracketright.cLig" format="2">
	<advance width="600"/>
	<outline>
		<contour>
			<point x="-100" y="-163" type="line"/>
			<point x="326" y="-163" type="line"/>
			<point x="461" y="792" type="line"/>
			<point x="34" y="792" type="line"/>
			<point x="25" y="728" type="line"/>
			<point x="372" y="728" type="line"/>
			<point x="256" y="-99" type="line"/>
			<point x="-91" y="-99" type="line"/>
		</contour>
		<contour>
			<point x="-324" y="-163" type="line"/>
			<point x="-189" y="792" type="line"/>
			<point x="-269" y="792" type="line"/>
			<point x="-403" y="-163" type="line"/>
		</contour>
	</outline>
</glyph>
<glyph name="bar_equal.med" format="2">
	<advance width="600"/>
	<outline>
		<contour>
			<point x="-12" y="171" type="line"/>
			<point x="247" y="171" type="line"/>
			<point x="215" y="-55" type="line"/>
			<point x="295" y="-55" type="line"/>
			<point x="326" y="171" type="line"/>
			<point x="587" y="171" type="line"/>
			<point x="597" y="246" type="line"/>
			<point x="337" y="246" type="line"/>
			<point x="356" y="383" type="line"/>
			<point x="617" y="383" type="line"/>
			<point x="627" y="458" type="line"/>
			<point x="367" y="458" type="line"/>
			<point x="399" y="684" type="line"/>
			<point x="319" y="684" type="line"/>
			<point x="287" y="458" type="line"/>
			<point x="28" y="458" type="line"/>
			<point x="17" y="383" type="line"/>
			<point x="277" y="383" type="line"/>
			<point x="257" y="246" type="line"/>
			<point x="-2" y="246" type="line"/>
		</contour>
	</outline>
</glyph>
<glyph name="bar_equal.rem" format="2">
	<advance width="600"/>
	<outline>
		<contour>
			<point x="-293" y="684" type="line"/>
			<point x="-397" y="-55" type="line"/>
			<point x="-318" y="-55" type="line"/>
			<point x="-286" y="171" type="line"/>
			<point x="413" y="171" type="line"/>
			<point x="424" y="246" type="line"/>
			<point x="-275" y="246" type="line"/>
			<point x="-256" y="383" type="line"/>
			<point x="443" y="383" type="line"/>
			<point x="454" y="458" type="line"/>
			<point x="-245" y="458" type="line"/>
			<point x="-214" y="684" type="line"/>
		</contour>
	</outline>
</glyph>
<glyph name="bar_equal_greater.rem" format="2">
	<advance width="600"/>
	<outline>
		<contour>
			<point x="-975" y="629" type="line"/>
			<point x="-1063" y="0" type="line"/>
			<point x="-983" y="0" type="line"/>
			<point x="-959" y="171" type="line"/>
			<point x="225" y="171" type="line"/>
			<point x="49" y="0" type="line"/>
			<point x="153" y="0" type="line"/>
			<point x="472" y="312" type="line"/>
			<point x="235" y="629" type="line"/>
			<point x="141" y="629" type="line"/>
			<point x="269" y="458" type="line"/>
			<point x="-919" y="458" type="line"/>
			<point x="-895" y="629" type="line"/>
		</contour>
		<contour>
			<point x="375" y="317" type="line"/>
			<point x="301" y="246" type="line"/>
			<point x="-949" y="246" type="line"/>
			<point x="-929" y="383" type="line"/>
			<point x="325" y="383" type="line"/>
		</contour>
	</outline>
</glyph>
<glyph name="bar_hyphen.med" format="2">
	<advance width="600"/>
	<outline>
		<contour>
			<point x="216" y="-55" type="line"/>
			<point x="296" y="-55" type="line"/>
			<point x="342" y="275" type="line"/>
			<point x="602" y="275" type="line"/>
			<point x="613" y="352" type="line"/>
			<point x="353" y="352" type="line"/>
			<point x="400" y="684" type="line"/>
			<point x="320" y="684" type="line"/>
			<point x="273" y="352" type="line"/>
			<point x="13" y="352" type="line"/>
			<point x="2" y="275" type="line"/>
			<point x="263" y="275" type="line"/>
		</contour>
	</outline>
</glyph>
<glyph name="braceleft_bar.cLig" format="2">
	<advance width="600"/>
	<outline>
		<contour>
			<point x="-263" y="-163" type="curve" smooth="yes"/>
			<point x="-17" y="-163" type="line"/>
			<point x="-8" y="-99" type="line"/>
			<point x="-237" y="-99" type="line" smooth="yes"/>
			<point x="-298" y="-99"/>
			<point x="-330" y="-75"/>
			<point x="-330" y="-26" type="curve" smooth="yes"/>
			<point x="-330" y="71"/>
			<point x="-192" y="115"/>
			<point x="-192" y="218" type="curve" smooth="yes"/>
			<point x="-192" y="268"/>
			<point x="-234" y="304"/>
			<point x="-285" y="313" type="curve"/>
			<point x="-232" y="321"/>
			<point x="-162" y="351"/>
			<point x="-162" y="432" type="curve" smooth="yes"/>
			<point x="-162" y="512"/>
			<point x="-236" y="575"/>
			<point x="-236" y="647" type="curve" smooth="yes"/>
			<point x="-236" y="709"/>
			<point x="-191" y="728"/>
			<point x="-124" y="728" type="curve" smooth="yes"/>
			<point x="107" y="728" type="line"/>
			<point x="117" y="792" type="line"/>
			<point x="-145" y="792" type="line" smooth="yes"/>
			<point x="-257" y="792"/>
			<point x="-320" y="738"/>
			<point x="-320" y="654" type="curve" smooth="yes"/>
			<point x="-320" y="569"/>
			<point x="-246" y="500"/>
			<point x="-246" y="430" type="curve" smooth="yes"/>
			<point x="-246" y="387"/>
			<point x="-276" y="352"/>
			<point x="-331" y="352" type="curve" smooth="yes"/>
			<point x="-411" y="352" type="line"/>
			<point x="-422" y="275" type="line"/>
			<point x="-347" y="275" type="line" smooth="yes"/>
			<point x="-295" y="275"/>
			<point x="-277" y="244"/>
			<point x="-277" y="214" type="curve" smooth="yes"/>
			<point x="-277" y="137"/>
			<point x="-417" y="86"/>
			<point x="-417" y="-37" type="curve" smooth="yes"/>
			<point x="-417" y="-105"/>
			<point x="-375" y="-163"/>
		</contour>
		<contour>
			<point x="340" y="792" type="line"/>
			<point x="205" y="-163" type="line"/>
			<point x="285" y="-163" type="line"/>
			<point x="419" y="792" type="line"/>
		</contour>
	</outline>
</glyph>
<glyph name="braceleft_hyphen.rem" format="2">
	<advance width="600"/>
	<outline>
		<contour>
			<point x="57" y="792" type="line"/>
			<point x="-99" y="792" type="line" smooth="yes"/>
			<point x="-210" y="792"/>
			<point x="-272" y="737"/>
			<point x="-272" y="653" type="curve" smooth="yes"/>
			<point x="-272" y="570"/>
			<point x="-199" y="493"/>
			<point x="-199" y="428" type="curve" smooth="yes"/>
			<point x="-199" y="383"/>
			<point x="-231" y="352"/>
			<point x="-297" y="352" type="curve" smooth="yes"/>
			<point x="-370" y="352" type="line"/>
			<point x="-381" y="275" type="line"/>
			<point x="-295" y="275" type="line" smooth="yes"/>
			<point x="-250" y="275"/>
			<point x="-231" y="247"/>
			<point x="-231" y="216" type="curve" smooth="yes"/>
			<point x="-231" y="139"/>
			<point x="-371" y="84"/>
			<point x="-371" y="-37" type="curve" smooth="yes"/>
			<point x="-371" y="-104"/>
			<point x="-328" y="-163"/>
			<point x="-217" y="-163" type="curve" smooth="yes"/>
			<point x="-78" y="-163" type="line"/>
			<point x="-69" y="-99" type="line"/>
			<point x="-191" y="-99" type="line" smooth="yes"/>
			<point x="-252" y="-99"/>
			<point x="-285" y="-75"/>
			<point x="-285" y="-26" type="curve" smooth="yes"/>
			<point x="-285" y="69"/>
			<point x="-147" y="116"/>
			<point x="-147" y="214" type="curve" smooth="yes"/>
			<point x="-147" y="251"/>
			<point x="-170" y="268"/>
			<point x="-199" y="278" type="curve"/>
			<point x="425" y="278" type="line"/>
			<point x="436" y="351" type="line"/>
			<point x="-186" y="351" type="line"/>
			<point x="-148" y="363"/>
			<point x="-115" y="387"/>
			<point x="-115" y="435" type="curve" smooth="yes"/>
			<point x="-115" y="503"/>
			<point x="-189" y="575"/>
			<point x="-189" y="647" type="curve" smooth="yes"/>
			<point x="-189" y="709"/>
			<point x="-145" y="728"/>
			<point x="-79" y="728" type="curve" smooth="yes"/>
			<point x="47" y="728" type="line"/>
		</contour>
	</outline>
</glyph>
<glyph name="braceleft_numbersign.cLig" format="2">
	<advance width="600"/>
	<outline>
		<contour>
			<point x="-470" y="275" type="line"/>
			<point x="-395" y="275" type="line" smooth="yes"/>
			<point x="-343" y="275"/>
			<point x="-325" y="244"/>
			<point x="-325" y="214" type="curve" smooth="yes"/>
			<point x="-325" y="137"/>
			<point x="-465" y="86"/>
			<point x="-465" y="-37" type="curve" smooth="yes"/>
			<point x="-465" y="-105"/>
			<point x="-423" y="-163"/>
			<point x="-311" y="-163" type="curve" smooth="yes"/>
			<point x="-172" y="-163" type="line"/>
			<point x="-163" y="-99" type="line"/>
			<point x="-285" y="-99" type="line" smooth="yes"/>
			<point x="-347" y="-99"/>
			<point x="-378" y="-75"/>
			<point x="-378" y="-26" type="curve" smooth="yes"/>
			<point x="-378" y="71"/>
			<point x="-241" y="115"/>
			<point x="-241" y="218" type="curve" smooth="yes"/>
			<point x="-241" y="267"/>
			<point x="-282" y="304"/>
			<point x="-332" y="313" type="curve"/>
			<point x="-279" y="321"/>
			<point x="-211" y="352"/>
			<point x="-211" y="432" type="curve" smooth="yes"/>
			<point x="-211" y="512"/>
			<point x="-284" y="575"/>
			<point x="-284" y="647" type="curve" smooth="yes"/>
			<point x="-284" y="710"/>
			<point x="-239" y="728"/>
			<point x="-172" y="728" type="curve" smooth="yes"/>
			<point x="-47" y="728" type="line"/>
			<point x="-38" y="792" type="line"/>
			<point x="-193" y="792" type="line" smooth="yes"/>
			<point x="-304" y="792"/>
			<point x="-368" y="738"/>
			<point x="-368" y="654" type="curve" smooth="yes"/>
			<point x="-368" y="569"/>
			<point x="-294" y="500"/>
			<point x="-294" y="430" type="curve" smooth="yes"/>
			<point x="-294" y="386"/>
			<point x="-324" y="352"/>
			<point x="-379" y="352" type="curve" smooth="yes"/>
			<point x="-459" y="352" type="line"/>
		</contour>
		<contour>
			<point x="-103" y="236" type="line"/>
			<point x="-113" y="168" type="line"/>
			<point x="21" y="168" type="line"/>
			<point x="-19" y="0" type="line"/>
			<point x="53" y="0" type="line"/>
			<point x="93" y="168" type="line"/>
			<point x="234" y="168" type="line"/>
			<point x="194" y="0" type="line"/>
			<point x="264" y="0" type="line"/>
			<point x="304" y="168" type="line"/>
			<point x="419" y="168" type="line"/>
			<point x="428" y="236" type="line"/>
			<point x="320" y="236" type="line"/>
			<point x="373" y="459" type="line"/>
			<point x="484" y="459" type="line"/>
			<point x="493" y="528" type="line"/>
			<point x="389" y="528" type="line"/>
			<point x="426" y="684" type="line"/>
			<point x="354" y="684" type="line"/>
			<point x="318" y="528" type="line"/>
			<point x="177" y="528" type="line"/>
			<point x="213" y="684" type="line"/>
			<point x="143" y="684" type="line"/>
			<point x="106" y="528" type="line"/>
			<point x="-62" y="528" type="line"/>
			<point x="-72" y="459" type="line"/>
			<point x="90" y="459" type="line"/>
			<point x="37" y="236" type="line"/>
		</contour>
		<contour>
			<point x="109" y="236" type="line"/>
			<point x="161" y="459" type="line"/>
			<point x="302" y="459" type="line"/>
			<point x="250" y="236" type="line"/>
		</contour>
	</outline>
</glyph>
<glyph name="braceright_braceright.cLig" format="2">
	<advance width="600"/>
	<outline>
		<contour>
			<point x="123" y="792" type="line"/>
			<point x="114" y="728" type="line"/>
			<point x="236" y="728" type="line" smooth="yes"/>
			<point x="298" y="728"/>
			<point x="329" y="704"/>
			<point x="329" y="655" type="curve" smooth="yes"/>
			<point x="329" y="558"/>
			<point x="192" y="514"/>
			<point x="192" y="411" type="curve" smooth="yes"/>
			<point x="192" y="361"/>
			<point x="234" y="325"/>
			<point x="284" y="316" type="curve"/>
			<point x="231" y="308"/>
			<point x="162" y="278"/>
			<point x="162" y="197" type="curve" smooth="yes"/>
			<point x="162" y="117"/>
			<point x="235" y="54"/>
			<point x="235" y="-18" type="curve" smooth="yes"/>
			<point x="235" y="-80"/>
			<point x="190" y="-99"/>
			<point x="124" y="-99" type="curve" smooth="yes"/>
			<point x="-210" y="-99" type="line"/>
			<point x="-160" y="-84"/>
			<point x="-137" y="-53"/>
			<point x="-137" y="-7" type="curve" smooth="yes"/>
			<point x="-137" y="70"/>
			<point x="-211" y="133"/>
			<point x="-211" y="202" type="curve" smooth="yes"/>
			<point x="-211" y="245"/>
			<point x="-181" y="277"/>
			<point x="-122" y="277" type="curve" smooth="yes"/>
			<point x="-32" y="277" type="line"/>
			<point x="-21" y="354" type="line"/>
			<point x="-105" y="354" type="line" smooth="yes"/>
			<point x="-161" y="354"/>
			<point x="-180" y="383"/>
			<point x="-180" y="413" type="curve"/>
			<point x="-180" y="491"/>
			<point x="-40" y="543"/>
			<point x="-40" y="666" type="curve" smooth="yes"/>
			<point x="-40" y="734"/>
			<point x="-82" y="792"/>
			<point x="-193" y="792" type="curve" smooth="yes"/>
			<point x="-371" y="792" type="line"/>
			<point x="-380" y="728" type="line"/>
			<point x="-220" y="728" type="line" smooth="yes"/>
			<point x="-158" y="728"/>
			<point x="-127" y="704"/>
			<point x="-127" y="655" type="curve" smooth="yes"/>
			<point x="-127" y="559"/>
			<point x="-264" y="513"/>
			<point x="-264" y="410" type="curve"/>
			<point x="-264" y="360"/>
			<point x="-223" y="325"/>
			<point x="-172" y="316" type="curve"/>
			<point x="-225" y="309"/>
			<point x="-294" y="280"/>
			<point x="-294" y="198" type="curve" smooth="yes"/>
			<point x="-294" y="118"/>
			<point x="-221" y="57"/>
			<point x="-221" y="-16" type="curve" smooth="yes"/>
			<point x="-221" y="-78"/>
			<point x="-266" y="-99"/>
			<point x="-335" y="-99" type="curve" smooth="yes"/>
			<point x="-495" y="-99" type="line"/>
			<point x="-505" y="-163" type="line"/>
			<point x="145" y="-163" type="line" smooth="yes"/>
			<point x="256" y="-163"/>
			<point x="319" y="-109"/>
			<point x="319" y="-25" type="curve" smooth="yes"/>
			<point x="319" y="60"/>
			<point x="245" y="129"/>
			<point x="245" y="199" type="curve" smooth="yes"/>
			<point x="245" y="242"/>
			<point x="275" y="277"/>
			<point x="330" y="277" type="curve" smooth="yes"/>
			<point x="423" y="277" type="line"/>
			<point x="434" y="354" type="line"/>
			<point x="347" y="354" type="line" smooth="yes"/>
			<point x="294" y="354"/>
			<point x="277" y="385"/>
			<point x="277" y="415" type="curve" smooth="yes"/>
			<point x="277" y="492"/>
			<point x="416" y="543"/>
			<point x="416" y="666" type="curve" smooth="yes"/>
			<point x="416" y="734"/>
			<point x="374" y="792"/>
			<point x="263" y="792" type="curve" smooth="yes"/>
		</contour>
	</outline>
</glyph>
<glyph name="bracketleft_bar.cLig" format="2">
	<advance width="600"/>
	<outline>
		<contour>
			<point x="-6" y="-99" type="line"/>
			<point x="-358" y="-99" type="line"/>
			<point x="-241" y="728" type="line"/>
			<point x="110" y="728" type="line"/>
			<point x="119" y="792" type="line"/>
			<point x="-312" y="792" type="line"/>
			<point x="-447" y="-163" type="line"/>
			<point x="-16" y="-163" type="line"/>
		</contour>
		<contour>
			<point x="339" y="792" type="line"/>
			<point x="204" y="-163" type="line"/>
			<point x="284" y="-163" type="line"/>
			<point x="418" y="792" type="line"/>
		</contour>
	</outline>
</glyph>
<glyph name="bracketleft_bracketleft_numbersign.cLig" format="2">
	<advance width="600"/>
	<outline>
		<contour>
			<point x="-140" y="236" type="line"/>
			<point x="-150" y="168" type="line"/>
			<point x="-16" y="168" type="line"/>
			<point x="-56" y="0" type="line"/>
			<point x="16" y="0" type="line"/>
			<point x="56" y="168" type="line"/>
			<point x="197" y="168" type="line"/>
			<point x="157" y="0" type="line"/>
			<point x="227" y="0" type="line"/>
			<point x="267" y="168" type="line"/>
			<point x="382" y="168" type="line"/>
			<point x="391" y="236" type="line"/>
			<point x="283" y="236" type="line"/>
			<point x="336" y="459" type="line"/>
			<point x="447" y="459" type="line"/>
			<point x="456" y="528" type="line"/>
			<point x="352" y="528" type="line"/>
			<point x="389" y="684" type="line"/>
			<point x="317" y="684" type="line"/>
			<point x="281" y="528" type="line"/>
			<point x="140" y="528" type="line"/>
			<point x="176" y="684" type="line"/>
			<point x="106" y="684" type="line"/>
			<point x="69" y="528" type="line"/>
			<point x="-99" y="528" type="line"/>
			<point x="-109" y="459" type="line"/>
			<point x="53" y="459" type="line"/>
			<point x="0" y="236" type="line"/>
		</contour>
		<contour>
			<point x="72" y="236" type="line"/>
			<point x="124" y="459" type="line"/>
			<point x="265" y="459" type="line"/>
			<point x="213" y="236" type="line"/>
		</contour>
		<contour>
			<point x="-240" y="-99" type="line"/>
			<point x="-482" y="-99" type="line"/>
			<point x="-366" y="728" type="line"/>
			<point x="-123" y="728" type="line"/>
			<point x="-114" y="792" type="line"/>
			<point x="-436" y="792" type="line"/>
			<point x="-571" y="-163" type="line"/>
			<point x="-249" y="-163" type="line"/>
		</contour>
		<contour>
			<point x="-648" y="-99" type="line"/>
			<point x="-953" y="-99" type="line"/>
			<point x="-837" y="728" type="line"/>
			<point x="-531" y="728" type="line"/>
			<point x="-523" y="792" type="line"/>
			<point x="-907" y="792" type="line"/>
			<point x="-1042" y="-163" type="line"/>
			<point x="-658" y="-163" type="line"/>
		</contour>
	</outline>
</glyph>
<glyph name="bracketright_bracketright.cLig" format="2">
	<advance width="600"/>
	<outline>
		<contour>
			<point x="-352" y="728" type="line"/>
			<point x="-110" y="728" type="line"/>
			<point x="-226" y="-99" type="line"/>
			<point x="-469" y="-99" type="line"/>
			<point x="-478" y="-163" type="line"/>
			<point x="-156" y="-163" type="line"/>
			<point x="-21" y="792" type="line"/>
			<point x="-343" y="792" type="line"/>
		</contour>
		<contour>
			<point x="56" y="728" type="line"/>
			<point x="361" y="728" type="line"/>
			<point x="245" y="-99" type="line"/>
			<point x="-61" y="-99" type="line"/>
			<point x="-69" y="-163" type="line"/>
			<point x="315" y="-163" type="line"/>
			<point x="450" y="792" type="line"/>
			<point x="66" y="792" type="line"/>
		</contour>
	</outline>
</glyph>
<glyph name="bracketright_numbersign.cLig" format="2">
	<advance width="600"/>
	<outline>
		<contour>
			<point x="-524" y="-163" type="line"/>
			<point x="-240" y="-163" type="line"/>
			<point x="-193" y="168" type="line"/>
			<point x="41" y="168" type="line"/>
			<point x="1" y="0" type="line"/>
			<point x="74" y="0" type="line"/>
			<point x="113" y="168" type="line"/>
			<point x="254" y="168" type="line"/>
			<point x="215" y="0" type="line"/>
			<point x="285" y="0" type="line"/>
			<point x="324" y="168" type="line"/>
			<point x="439" y="168" type="line"/>
			<point x="449" y="236" type="line"/>
			<point x="340" y="236" type="line"/>
			<point x="393" y="459" type="line"/>
			<point x="504" y="459" type="line"/>
			<point x="514" y="528" type="line"/>
			<point x="409" y="528" type="line"/>
			<point x="446" y="684" type="line"/>
			<point x="375" y="684" type="line"/>
			<point x="338" y="528" type="line"/>
			<point x="197" y="528" type="line"/>
			<point x="234" y="684" type="line"/>
			<point x="163" y="684" type="line"/>
			<point x="126" y="528" type="line"/>
			<point x="-142" y="528" type="line"/>
			<point x="-105" y="792" type="line"/>
			<point x="-389" y="792" type="line"/>
			<point x="-399" y="728" type="line"/>
			<point x="-194" y="728" type="line"/>
			<point x="-310" y="-99" type="line"/>
			<point x="-515" y="-99" type="line"/>
		</contour>
		<contour>
			<point x="-183" y="236" type="line"/>
			<point x="-152" y="459" type="line"/>
			<point x="110" y="459" type="line"/>
			<point x="57" y="236" type="line"/>
		</contour>
		<contour>
			<point x="129" y="236" type="line"/>
			<point x="181" y="459" type="line"/>
			<point x="322" y="459" type="line"/>
			<point x="270" y="236" type="line"/>
		</contour>
	</outline>
</glyph>
<glyph name="caronSlovak" format="2">
	<advance width="600"/>
	<outline>
		<contour>
			<point x="292" y="576" type="line"/>
			<point x="347" y="576" type="line"/>
			<point x="430" y="750" type="line"/>
			<point x="342" y="750" type="line"/>
		</contour>
	</outline>
	<anchor name="_caron" x="342" y="750"/>
</glyph>
<glyph name="colon_colon.cLig" format="2">
	<advance width="600"/>
	<outline>
		<contour>
			<point x="-253" y="-12" type="curve" smooth="yes"/>
			<point x="-204" y="-12"/>
			<point x="-182" y="9"/>
			<point x="-177" y="49" type="curve" smooth="yes"/>
			<point x="-170" y="94"/>
			<point x="-189" y="121"/>
			<point x="-244" y="121" type="curve" smooth="yes"/>
			<point x="-294" y="121"/>
			<point x="-316" y="100"/>
			<point x="-321" y="59" type="curve" smooth="yes"/>
			<point x="-328" y="14"/>
			<point x="-309" y="-12"/>
		</contour>
		<contour>
			<point x="-197" y="388" type="curve" smooth="yes"/>
			<point x="-148" y="388"/>
			<point x="-126" y="409"/>
			<point x="-121" y="449" type="curve" smooth="yes"/>
			<point x="-114" y="494"/>
			<point x="-133" y="521"/>
			<point x="-188" y="521" type="curve" smooth="yes"/>
			<point x="-238" y="521"/>
			<point x="-260" y="500"/>
			<point x="-265" y="459" type="curve" smooth="yes"/>
			<point x="-272" y="414"/>
			<point x="-253" y="388"/>
		</contour>
		<contour>
			<point x="187" y="-12" type="curve" smooth="yes"/>
			<point x="236" y="-12"/>
			<point x="258" y="9"/>
			<point x="263" y="49" type="curve" smooth="yes"/>
			<point x="270" y="94"/>
			<point x="251" y="121"/>
			<point x="196" y="121" type="curve" smooth="yes"/>
			<point x="146" y="121"/>
			<point x="124" y="100"/>
			<point x="119" y="59" type="curve" smooth="yes"/>
			<point x="112" y="14"/>
			<point x="131" y="-12"/>
		</contour>
		<contour>
			<point x="243" y="388" type="curve" smooth="yes"/>
			<point x="292" y="388"/>
			<point x="314" y="409"/>
			<point x="319" y="449" type="curve" smooth="yes"/>
			<point x="326" y="494"/>
			<point x="307" y="521"/>
			<point x="252" y="521" type="curve" smooth="yes"/>
			<point x="202" y="521"/>
			<point x="180" y="500"/>
			<point x="175" y="459" type="curve" smooth="yes"/>
			<point x="168" y="414"/>
			<point x="187" y="388"/>
		</contour>
	</outline>
</glyph>
<glyph name="colon_colon_colon.cLig" format="2">
	<advance width="600"/>
	<outline>
		<contour>
			<point x="-790" y="-12" type="curve" smooth="yes"/>
			<point x="-741" y="-12"/>
			<point x="-719" y="9"/>
			<point x="-714" y="49" type="curve" smooth="yes"/>
			<point x="-707" y="94"/>
			<point x="-726" y="121"/>
			<point x="-781" y="121" type="curve" smooth="yes"/>
			<point x="-831" y="121"/>
			<point x="-853" y="100"/>
			<point x="-858" y="59" type="curve" smooth="yes"/>
			<point x="-865" y="14"/>
			<point x="-846" y="-12"/>
		</contour>
		<contour>
			<point x="-734" y="388" type="curve" smooth="yes"/>
			<point x="-685" y="388"/>
			<point x="-663" y="409"/>
			<point x="-658" y="449" type="curve" smooth="yes"/>
			<point x="-651" y="494"/>
			<point x="-670" y="521"/>
			<point x="-725" y="521" type="curve" smooth="yes"/>
			<point x="-775" y="521"/>
			<point x="-797" y="500"/>
			<point x="-802" y="459" type="curve" smooth="yes"/>
			<point x="-809" y="414"/>
			<point x="-790" y="388"/>
		</contour>
		<contour>
			<point x="-333" y="-12" type="curve" smooth="yes"/>
			<point x="-284" y="-12"/>
			<point x="-262" y="9"/>
			<point x="-257" y="49" type="curve" smooth="yes"/>
			<point x="-250" y="94"/>
			<point x="-269" y="121"/>
			<point x="-324" y="121" type="curve" smooth="yes"/>
			<point x="-374" y="121"/>
			<point x="-396" y="100"/>
			<point x="-401" y="59" type="curve" smooth="yes"/>
			<point x="-408" y="14"/>
			<point x="-389" y="-12"/>
		</contour>
		<contour>
			<point x="-277" y="388" type="curve" smooth="yes"/>
			<point x="-228" y="388"/>
			<point x="-206" y="409"/>
			<point x="-201" y="449" type="curve" smooth="yes"/>
			<point x="-194" y="494"/>
			<point x="-213" y="521"/>
			<point x="-268" y="521" type="curve" smooth="yes"/>
			<point x="-318" y="521"/>
			<point x="-340" y="500"/>
			<point x="-345" y="459" type="curve" smooth="yes"/>
			<point x="-352" y="414"/>
			<point x="-333" y="388"/>
		</contour>
		<contour>
			<point x="124" y="-12" type="curve" smooth="yes"/>
			<point x="173" y="-12"/>
			<point x="195" y="9"/>
			<point x="200" y="49" type="curve" smooth="yes"/>
			<point x="207" y="94"/>
			<point x="188" y="121"/>
			<point x="133" y="121" type="curve" smooth="yes"/>
			<point x="83" y="121"/>
			<point x="61" y="100"/>
			<point x="56" y="59" type="curve" smooth="yes"/>
			<point x="49" y="14"/>
			<point x="68" y="-12"/>
		</contour>
		<contour>
			<point x="180" y="388" type="curve" smooth="yes"/>
			<point x="229" y="388"/>
			<point x="251" y="409"/>
			<point x="256" y="449" type="curve" smooth="yes"/>
			<point x="263" y="494"/>
			<point x="244" y="521"/>
			<point x="189" y="521" type="curve" smooth="yes"/>
			<point x="139" y="521"/>
			<point x="117" y="500"/>
			<point x="112" y="459" type="curve" smooth="yes"/>
			<point x="105" y="414"/>
			<point x="124" y="388"/>
		</contour>
	</outline>
</glyph>
<glyph name="colon_equal.cLig" format="2">
	<advance width="600"/>
	<outline>
		<contour>
			<point x="-319" y="382" type="curve" smooth="yes"/>
			<point x="-270" y="382"/>
			<point x="-248" y="403"/>
			<point x="-243" y="443" type="curve" smooth="yes"/>
			<point x="-236" y="488"/>
			<point x="-255" y="515"/>
			<point x="-310" y="515" type="curve" smooth="yes"/>
			<point x="-360" y="515"/>
			<point x="-382" y="494"/>
			<point x="-387" y="453" type="curve" smooth="yes"/>
			<point x="-394" y="408"/>
			<point x="-375" y="382"/>
		</contour>
		<contour>
			<point x="-65" y="375" type="line"/>
			<point x="436" y="375" type="line"/>
			<point x="447" y="450" type="line"/>
			<point x="-55" y="450" type="line"/>
		</contour>
		<contour>
			<point x="-95" y="163" type="line"/>
			<point x="407" y="163" type="line"/>
			<point x="417" y="237" type="line"/>
			<point x="-84" y="237" type="line"/>
		</contour>
		<contour>
			<point x="-358" y="95" type="curve" smooth="yes"/>
			<point x="-309" y="95"/>
			<point x="-287" y="116"/>
			<point x="-282" y="156" type="curve" smooth="yes"/>
			<point x="-275" y="201"/>
			<point x="-294" y="228"/>
			<point x="-349" y="228" type="curve" smooth="yes"/>
			<point x="-399" y="228"/>
			<point x="-421" y="207"/>
			<point x="-426" y="166" type="curve" smooth="yes"/>
			<point x="-433" y="121"/>
			<point x="-414" y="95"/>
		</contour>
	</outline>
</glyph>
<glyph name="colon_less.cLig.x" format="2">
	<advance width="600"/>
	<outline>
		<contour>
			<point x="386" y="-5" type="line"/>
			<point x="399" y="79" type="line"/>
			<point x="54" y="311" type="line"/>
			<point x="463" y="541" type="line"/>
			<point x="477" y="634" type="line"/>
			<point x="-5" y="361" type="line"/>
			<point x="-18" y="268" type="line"/>
		</contour>
		<contour>
			<point x="-269" y="446" type="curve" smooth="yes"/>
			<point x="-220" y="446"/>
			<point x="-198" y="467"/>
			<point x="-193" y="507" type="curve" smooth="yes"/>
			<point x="-186" y="552"/>
			<point x="-205" y="579"/>
			<point x="-260" y="579" type="curve" smooth="yes"/>
			<point x="-310" y="579"/>
			<point x="-332" y="558"/>
			<point x="-337" y="517" type="curve" smooth="yes"/>
			<point x="-344" y="472"/>
			<point x="-325" y="446"/>
		</contour>
		<contour>
			<point x="-325" y="46" type="curve" smooth="yes"/>
			<point x="-276" y="46"/>
			<point x="-254" y="67"/>
			<point x="-249" y="107" type="curve" smooth="yes"/>
			<point x="-242" y="152"/>
			<point x="-261" y="179"/>
			<point x="-316" y="179" type="curve" smooth="yes"/>
			<point x="-366" y="179"/>
			<point x="-388" y="158"/>
			<point x="-393" y="117" type="curve" smooth="yes"/>
			<point x="-400" y="72"/>
			<point x="-381" y="46"/>
		</contour>
	</outline>
</glyph>
<glyph name="dollar_greater.cLig" format="2">
	<advance width="600"/>
	<outline>
		<contour>
			<point x="-423" y="-93" type="line"/>
			<point x="-357" y="-93" type="line"/>
			<point x="-332" y="-9" type="line"/>
			<point x="-316" y="-11"/>
			<point x="-300" y="-12"/>
			<point x="-283" y="-12" type="curve" smooth="yes"/>
			<point x="-137" y="-12"/>
			<point x="-33" y="70"/>
			<point x="-33" y="206" type="curve" smooth="yes"/>
			<point x="-33" y="318"/>
			<point x="-107" y="348"/>
			<point x="-221" y="376" type="curve"/>
			<point x="-148" y="618" type="line"/>
			<point x="-73" y="604"/>
			<point x="-4" y="570"/>
			<point x="78" y="525" type="curve" smooth="yes"/>
			<point x="452" y="317" type="line"/>
			<point x="72" y="135" type="line"/>
			<point x="60" y="46" type="line"/>
			<point x="510" y="268" type="line"/>
			<point x="523" y="360" type="line"/>
			<point x="113" y="591" type="line" smooth="yes"/>
			<point x="26" y="639"/>
			<point x="-46" y="672"/>
			<point x="-124" y="687" type="curve"/>
			<point x="-97" y="774" type="line"/>
			<point x="-163" y="774" type="line"/>
			<point x="-187" y="695" type="line"/>
			<point x="-199" y="695"/>
			<point x="-211" y="696"/>
			<point x="-223" y="696" type="curve" smooth="yes"/>
			<point x="-386" y="696"/>
			<point x="-478" y="612"/>
			<point x="-478" y="484" type="curve" smooth="yes"/>
			<point x="-478" y="363"/>
			<point x="-393" y="331"/>
			<point x="-299" y="309" type="curve"/>
			<point x="-369" y="72" type="line"/>
			<point x="-423" y="86"/>
			<point x="-475" y="115"/>
			<point x="-516" y="158" type="curve"/>
			<point x="-528" y="75" type="line"/>
			<point x="-493" y="43"/>
			<point x="-447" y="18"/>
			<point x="-394" y="3" type="curve"/>
		</contour>
		<contour>
			<point x="-393" y="495" type="curve" smooth="yes"/>
			<point x="-393" y="577"/>
			<point x="-334" y="626"/>
			<point x="-230" y="626" type="curve" smooth="yes"/>
			<point x="-221" y="626"/>
			<point x="-213" y="626"/>
			<point x="-204" y="625" type="curve"/>
			<point x="-275" y="389" type="line"/>
			<point x="-349" y="408"/>
			<point x="-393" y="427"/>
		</contour>
		<contour>
			<point x="-117" y="193" type="curve" smooth="yes"/>
			<point x="-117" y="109"/>
			<point x="-184" y="60"/>
			<point x="-284" y="60" type="curve" smooth="yes"/>
			<point x="-294" y="60"/>
			<point x="-304" y="61"/>
			<point x="-315" y="62" type="curve"/>
			<point x="-245" y="297" type="line"/>
			<point x="-167" y="280"/>
			<point x="-117" y="264"/>
		</contour>
	</outline>
</glyph>
<glyph name="dotaccent.cap" format="2">
	<advance width="600"/>
	<outline>
		<contour>
			<point x="374" y="762" type="curve" smooth="yes"/>
			<point x="420" y="762"/>
			<point x="435" y="780"/>
			<point x="438" y="816" type="curve" smooth="yes"/>
			<point x="442" y="850"/>
			<point x="423" y="867"/>
			<point x="382" y="867" type="curve" smooth="yes"/>
			<point x="336" y="867"/>
			<point x="321" y="849"/>
			<point x="317" y="813" type="curve" smooth="yes"/>
			<point x="314" y="780"/>
			<point x="332" y="762"/>
		</contour>
	</outline>
	<anchor name="_top" x="360" y="684"/>
</glyph>
<glyph name="dotbelow" format="2">
	<advance width="600"/>
	<outline>
		<contour>
			<point x="246" y="-149" type="curve" smooth="yes"/>
			<point x="290" y="-149"/>
			<point x="306" y="-130"/>
			<point x="310" y="-93" type="curve" smooth="yes"/>
			<point x="314" y="-57"/>
			<point x="297" y="-38"/>
			<point x="254" y="-38" type="curve" smooth="yes"/>
			<point x="211" y="-38"/>
			<point x="193" y="-55"/>
			<point x="189" y="-92" type="curve" smooth="yes"/>
			<point x="185" y="-129"/>
			<point x="202" y="-149"/>
		</contour>
	</outline>
	<anchor name="bottom" x="263" y="0"/>
</glyph>
<glyph name="equal.fina" format="2">
	<advance width="600"/>
	<outline>
		<contour>
			<point x="18" y="383" type="line"/>
			<point x="444" y="383" type="line"/>
			<point x="455" y="458" type="line"/>
			<point x="28" y="458" type="line"/>
		</contour>
		<contour>
			<point x="-12" y="171" type="line"/>
			<point x="414" y="171" type="line"/>
			<point x="425" y="246" type="line"/>
			<point x="-2" y="246" type="line"/>
		</contour>
	</outline>
</glyph>
<glyph name="equal_bar.rem" format="2">
	<advance width="600"/>
	<outline>
		<contour>
			<point x="308" y="-55" type="line"/>
			<point x="412" y="684" type="line"/>
			<point x="333" y="684" type="line"/>
			<point x="301" y="458" type="line"/>
			<point x="-398" y="458" type="line"/>
			<point x="-409" y="383" type="line"/>
			<point x="290" y="383" type="line"/>
			<point x="271" y="246" type="line"/>
			<point x="-428" y="246" type="line"/>
			<point x="-439" y="171" type="line"/>
			<point x="260" y="171" type="line"/>
			<point x="229" y="-55" type="line"/>
		</contour>
	</outline>
</glyph>
<glyph name="equal_bar_bar.rem" format="2">
	<advance width="600"/>
	<outline>
		<contour>
			<point x="308" y="-55" type="line"/>
			<point x="412" y="684" type="line"/>
			<point x="333" y="684" type="line"/>
			<point x="229" y="-55" type="line"/>
		</contour>
		<contour>
			<point x="-75" y="-55" type="line"/>
			<point x="29" y="684" type="line"/>
			<point x="-51" y="684" type="line"/>
			<point x="-82" y="458" type="line"/>
			<point x="-998" y="458" type="line"/>
			<point x="-1009" y="383" type="line"/>
			<point x="-93" y="383" type="line"/>
			<point x="-112" y="246" type="line"/>
			<point x="-1028" y="246" type="line"/>
			<point x="-1039" y="171" type="line"/>
			<point x="-123" y="171" type="line"/>
			<point x="-155" y="-55" type="line"/>
		</contour>
	</outline>
</glyph>
<glyph name="equal_equal_equal.cLig" format="2">
	<advance width="600"/>
	<outline>
		<contour>
			<point x="-1018" y="480" type="line"/>
			<point x="481" y="480" type="line"/>
			<point x="491" y="552" type="line"/>
			<point x="-1008" y="552" type="line"/>
		</contour>
		<contour>
			<point x="-1048" y="278" type="line"/>
			<point x="452" y="278" type="line"/>
			<point x="462" y="349" type="line"/>
			<point x="-1037" y="349" type="line"/>
		</contour>
		<contour>
			<point x="-1076" y="75" type="line"/>
			<point x="423" y="75" type="line"/>
			<point x="433" y="147" type="line"/>
			<point x="-1066" y="147" type="line"/>
		</contour>
	</outline>
</glyph>
<glyph name="equal_exclam_equal.rem" format="2">
	<advance width="600"/>
	<outline>
		<contour>
			<point x="-341" y="198" type="line"/>
			<point x="-280" y="198" type="line"/>
			<point x="-216" y="538" type="line"/>
			<point x="-195" y="684" type="line"/>
			<point x="-289" y="684" type="line"/>
			<point x="-309" y="539" type="line"/>
		</contour>
		<contour>
			<point x="-42" y="375" type="line"/>
			<point x="442" y="375" type="line"/>
			<point x="452" y="450" type="line"/>
			<point x="-32" y="450" type="line"/>
		</contour>
		<contour>
			<point x="-1011" y="375" type="line"/>
			<point x="-527" y="375" type="line"/>
			<point x="-516" y="450" type="line"/>
			<point x="-1000" y="450" type="line"/>
		</contour>
		<contour>
			<point x="-1040" y="163" type="line"/>
			<point x="-556" y="163" type="line"/>
			<point x="-546" y="237" type="line"/>
			<point x="-1030" y="237" type="line"/>
		</contour>
		<contour>
			<point x="-72" y="163" type="line"/>
			<point x="412" y="163" type="line"/>
			<point x="423" y="237" type="line"/>
			<point x="-61" y="237" type="line"/>
		</contour>
		<contour>
			<point x="-333" y="-12" type="curve" smooth="yes"/>
			<point x="-288" y="-12"/>
			<point x="-269" y="6"/>
			<point x="-264" y="44" type="curve" smooth="yes"/>
			<point x="-259" y="84"/>
			<point x="-277" y="108"/>
			<point x="-326" y="108" type="curve" smooth="yes"/>
			<point x="-372" y="108"/>
			<point x="-391" y="89"/>
			<point x="-396" y="52" type="curve" smooth="yes"/>
			<point x="-401" y="11"/>
			<point x="-383" y="-12"/>
		</contour>
	</outline>
</glyph>
<glyph name="exclam_asciitilde.cLig" format="2">
	<advance width="600"/>
	<outline>
		<contour>
			<point x="-320" y="-70" type="line"/>
			<point x="-237" y="-70" type="line"/>
			<point x="-57" y="163" type="line"/>
			<point x="306" y="163" type="line"/>
			<point x="316" y="237" type="line"/>
			<point x="1" y="237" type="line"/>
			<point x="79" y="338" type="line"/>
			<point x="104" y="329"/>
			<point x="132" y="323"/>
			<point x="163" y="323" type="curve" smooth="yes"/>
			<point x="238" y="323"/>
			<point x="300" y="352"/>
			<point x="339" y="401" type="curve"/>
			<point x="352" y="490" type="line"/>
			<point x="287" y="414"/>
			<point x="231" y="394"/>
			<point x="166" y="396" type="curve" smooth="yes"/>
			<point x="153" y="396"/>
			<point x="140" y="398"/>
			<point x="128" y="402" type="curve"/>
			<point x="320" y="650" type="line"/>
			<point x="237" y="650" type="line"/>
			<point x="66" y="429" type="line"/>
			<point x="9" y="460"/>
			<point x="-48" y="503"/>
			<point x="-130" y="503" type="curve" smooth="yes"/>
			<point x="-196" y="503"/>
			<point x="-258" y="475"/>
			<point x="-297" y="425" type="curve"/>
			<point x="-310" y="336" type="line"/>
			<point x="-256" y="405"/>
			<point x="-197" y="430"/>
			<point x="-137" y="430" type="curve" smooth="yes"/>
			<point x="-77" y="430"/>
			<point x="-32" y="397"/>
			<point x="19" y="368" type="curve"/>
			<point x="-82" y="237" type="line"/>
			<point x="-324" y="237" type="line"/>
			<point x="-334" y="163" type="line"/>
			<point x="-140" y="163" type="line"/>
		</contour>
	</outline>
</glyph>
<glyph name="exclam_equal.cLig" format="2">
	<advance width="600"/>
	<outline>
		<contour>
			<point x="-442" y="152" type="line"/>
			<point x="-145" y="152" type="line"/>
			<point x="-318" y="-74" type="line"/>
			<point x="-232" y="-74" type="line"/>
			<point x="-59" y="152" type="line"/>
			<point x="411" y="152" type="line"/>
			<point x="421" y="226" type="line"/>
			<point x="-3" y="226" type="line"/>
			<point x="103" y="364" type="line"/>
			<point x="441" y="364" type="line"/>
			<point x="451" y="438" type="line"/>
			<point x="160" y="438" type="line"/>
			<point x="322" y="650" type="line"/>
			<point x="236" y="650" type="line"/>
			<point x="74" y="438" type="line"/>
			<point x="-401" y="438" type="line"/>
			<point x="-412" y="364" type="line"/>
			<point x="17" y="364" type="line"/>
			<point x="-89" y="226" type="line"/>
			<point x="-431" y="226" type="line"/>
		</contour>
	</outline>
</glyph>
<glyph name="exclam_exclam.cLig" format="2">
	<advance width="600"/>
	<outline>
		<contour>
			<point x="-268" y="198" type="line"/>
			<point x="-207" y="198" type="line"/>
			<point x="-143" y="538" type="line"/>
			<point x="-122" y="684" type="line"/>
			<point x="-216" y="684" type="line"/>
			<point x="-236" y="539" type="line"/>
		</contour>
		<contour>
			<point x="-260" y="-12" type="curve" smooth="yes"/>
			<point x="-215" y="-12"/>
			<point x="-196" y="6"/>
			<point x="-191" y="44" type="curve" smooth="yes"/>
			<point x="-186" y="84"/>
			<point x="-204" y="108"/>
			<point x="-253" y="108" type="curve" smooth="yes"/>
			<point x="-299" y="108"/>
			<point x="-318" y="89"/>
			<point x="-323" y="52" type="curve" smooth="yes"/>
			<point x="-328" y="11"/>
			<point x="-310" y="-12"/>
		</contour>
		<contour>
			<point x="186" y="198" type="line"/>
			<point x="247" y="198" type="line"/>
			<point x="311" y="538" type="line"/>
			<point x="332" y="684" type="line"/>
			<point x="238" y="684" type="line"/>
			<point x="218" y="539" type="line"/>
		</contour>
		<contour>
			<point x="194" y="-12" type="curve" smooth="yes"/>
			<point x="239" y="-12"/>
			<point x="258" y="6"/>
			<point x="263" y="44" type="curve" smooth="yes"/>
			<point x="268" y="84"/>
			<point x="250" y="108"/>
			<point x="201" y="108" type="curve" smooth="yes"/>
			<point x="155" y="108"/>
			<point x="136" y="89"/>
			<point x="131" y="52" type="curve" smooth="yes"/>
			<point x="126" y="11"/>
			<point x="144" y="-12"/>
		</contour>
	</outline>
</glyph>
<glyph name="exclam_exclam_exclam.rem" format="2">
	<advance width="600"/>
	<outline>
		<contour>
			<point x="-829" y="198" type="line"/>
			<point x="-768" y="198" type="line"/>
			<point x="-704" y="538" type="line"/>
			<point x="-683" y="684" type="line"/>
			<point x="-777" y="684" type="line"/>
			<point x="-797" y="539" type="line"/>
		</contour>
		<contour>
			<point x="-821" y="-12" type="curve" smooth="yes"/>
			<point x="-776" y="-12"/>
			<point x="-757" y="6"/>
			<point x="-752" y="44" type="curve" smooth="yes"/>
			<point x="-747" y="84"/>
			<point x="-765" y="108"/>
			<point x="-814" y="108" type="curve" smooth="yes"/>
			<point x="-860" y="108"/>
			<point x="-879" y="89"/>
			<point x="-884" y="52" type="curve" smooth="yes"/>
			<point x="-889" y="11"/>
			<point x="-871" y="-12"/>
		</contour>
		<contour>
			<point x="-341" y="198" type="line"/>
			<point x="-280" y="198" type="line"/>
			<point x="-216" y="538" type="line"/>
			<point x="-195" y="684" type="line"/>
			<point x="-289" y="684" type="line"/>
			<point x="-309" y="539" type="line"/>
		</contour>
		<contour>
			<point x="-333" y="-12" type="curve" smooth="yes"/>
			<point x="-288" y="-12"/>
			<point x="-269" y="6"/>
			<point x="-264" y="44" type="curve" smooth="yes"/>
			<point x="-259" y="84"/>
			<point x="-277" y="108"/>
			<point x="-326" y="108" type="curve" smooth="yes"/>
			<point x="-372" y="108"/>
			<point x="-391" y="89"/>
			<point x="-396" y="52" type="curve" smooth="yes"/>
			<point x="-401" y="11"/>
			<point x="-383" y="-12"/>
		</contour>
		<contour>
			<point x="147" y="198" type="line"/>
			<point x="208" y="198" type="line"/>
			<point x="272" y="538" type="line"/>
			<point x="293" y="684" type="line"/>
			<point x="199" y="684" type="line"/>
			<point x="179" y="539" type="line"/>
		</contour>
		<contour>
			<point x="155" y="-12" type="curve" smooth="yes"/>
			<point x="200" y="-12"/>
			<point x="219" y="6"/>
			<point x="224" y="44" type="curve" smooth="yes"/>
			<point x="229" y="84"/>
			<point x="211" y="108"/>
			<point x="162" y="108" type="curve" smooth="yes"/>
			<point x="116" y="108"/>
			<point x="97" y="89"/>
			<point x="92" y="52" type="curve" smooth="yes"/>
			<point x="87" y="11"/>
			<point x="105" y="-12"/>
		</contour>
	</outline>
</glyph>
<glyph name="grave.cap" format="2">
	<advance width="600"/>
	<outline>
		<contour>
			<point x="446" y="748" type="line"/>
			<point x="401" y="884" type="line"/>
			<point x="308" y="884" type="line"/>
			<point x="381" y="748" type="line"/>
		</contour>
	</outline>
	<anchor name="_top" x="409" y="684"/>
</glyph>
<glyph name="greater_equal.init" format="2">
	<advance width="600"/>
	<outline>
		<contour>
			<point x="283" y="383" type="line"/>
			<point x="616" y="383" type="line"/>
			<point x="627" y="458" type="line"/>
			<point x="324" y="458" type="line"/>
			<point x="197" y="629" type="line"/>
			<point x="103" y="629" type="line"/>
		</contour>
		<contour>
			<point x="18" y="0" type="line"/>
			<point x="122" y="0" type="line"/>
			<point x="295" y="171" type="line"/>
			<point x="587" y="171" type="line"/>
			<point x="597" y="246" type="line"/>
			<point x="265" y="246" type="line"/>
		</contour>
	</outline>
</glyph>
<glyph name="greater_equal.med" format="2">
	<advance width="600"/>
	<outline>
		<contour>
			<point x="94" y="0" type="line"/>
			<point x="200" y="0" type="line"/>
			<point x="374" y="171" type="line"/>
			<point x="587" y="171" type="line"/>
			<point x="597" y="246" type="line"/>
			<point x="450" y="246" type="line"/>
			<point x="518" y="313" type="line"/>
			<point x="464" y="383" type="line"/>
			<point x="617" y="383" type="line"/>
			<point x="627" y="458" type="line"/>
			<point x="407" y="458" type="line"/>
			<point x="276" y="629" type="line"/>
			<point x="180" y="629" type="line"/>
			<point x="311" y="458" type="line"/>
			<point x="28" y="458" type="line"/>
			<point x="17" y="383" type="line"/>
			<point x="368" y="383" type="line"/>
			<point x="418" y="318" type="line"/>
			<point x="344" y="246" type="line"/>
			<point x="-2" y="246" type="line"/>
			<point x="-12" y="171" type="line"/>
			<point x="268" y="171" type="line"/>
		</contour>
	</outline>
</glyph>
<glyph name="greater_equal_greater.rem" format="2">
	<advance width="600"/>
	<outline>
		<contour>
			<point x="-1102" y="0" type="line"/>
			<point x="-998" y="0" type="line"/>
			<point x="-825" y="171" type="line"/>
			<point x="245" y="171" type="line"/>
			<point x="69" y="0" type="line"/>
			<point x="173" y="0" type="line"/>
			<point x="492" y="312" type="line"/>
			<point x="255" y="629" type="line"/>
			<point x="161" y="629" type="line"/>
			<point x="289" y="458" type="line"/>
			<point x="-796" y="458" type="line"/>
			<point x="-923" y="629" type="line"/>
			<point x="-1017" y="629" type="line"/>
			<point x="-837" y="383" type="line"/>
			<point x="345" y="383" type="line"/>
			<point x="395" y="317" type="line"/>
			<point x="321" y="246" type="line"/>
			<point x="-855" y="246" type="line"/>
		</contour>
	</outline>
</glyph>
<glyph name="greater_greater_equal.init" format="2">
	<advance width="600"/>
	<outline>
		<contour>
			<point x="-553" y="0" type="line"/>
			<point x="-448" y="0" type="line"/>
			<point x="-129" y="313" type="line"/>
			<point x="-369" y="629" type="line"/>
			<point x="-465" y="629" type="line"/>
			<point x="-227" y="319" type="line"/>
		</contour>
		<contour>
			<point x="90" y="383" type="line"/>
			<point x="617" y="383" type="line"/>
			<point x="627" y="458" type="line"/>
			<point x="130" y="458" type="line"/>
			<point x="3" y="629" type="line"/>
			<point x="-91" y="629" type="line"/>
		</contour>
		<contour>
			<point x="-176" y="0" type="line"/>
			<point x="-72" y="0" type="line"/>
			<point x="102" y="171" type="line"/>
			<point x="587" y="171" type="line"/>
			<point x="597" y="246" type="line"/>
			<point x="71" y="246" type="line"/>
		</contour>
	</outline>
</glyph>
<glyph name="greater_greater_equal.med" format="2">
	<advance width="600"/>
	<outline>
		<contour>
			<point x="-612" y="171" type="line"/>
			<point x="-317" y="171" type="line"/>
			<point x="-493" y="0" type="line"/>
			<point x="-389" y="0" type="line"/>
			<point x="-70" y="312" type="line"/>
			<point x="-307" y="629" type="line"/>
			<point x="-401" y="629" type="line"/>
			<point x="-273" y="458" type="line"/>
			<point x="-572" y="458" type="line"/>
			<point x="-583" y="383" type="line"/>
			<point x="-217" y="383" type="line"/>
			<point x="-167" y="317" type="line"/>
			<point x="-241" y="246" type="line"/>
			<point x="-602" y="246" type="line"/>
		</contour>
		<contour>
			<point x="149" y="383" type="line"/>
			<point x="617" y="383" type="line"/>
			<point x="627" y="458" type="line"/>
			<point x="189" y="458" type="line"/>
			<point x="63" y="629" type="line"/>
			<point x="-31" y="629" type="line"/>
		</contour>
		<contour>
			<point x="-116" y="0" type="line"/>
			<point x="-12" y="0" type="line"/>
			<point x="161" y="171" type="line"/>
			<point x="587" y="171" type="line"/>
			<point x="598" y="246" type="line"/>
			<point x="130" y="246" type="line"/>
		</contour>
	</outline>
</glyph>
<glyph name="greater_greater_equal.rem" format="2">
	<advance width="600"/>
	<outline>
		<contour>
			<point x="-1133" y="0" type="line"/>
			<point x="-1028" y="0" type="line"/>
			<point x="-709" y="313" type="line"/>
			<point x="-949" y="629" type="line"/>
			<point x="-1045" y="629" type="line"/>
			<point x="-807" y="319" type="line"/>
		</contour>
		<contour>
			<point x="-490" y="383" type="line"/>
			<point x="443" y="383" type="line"/>
			<point x="454" y="458" type="line"/>
			<point x="-450" y="458" type="line"/>
			<point x="-577" y="629" type="line"/>
			<point x="-671" y="629" type="line"/>
		</contour>
		<contour>
			<point x="-756" y="0" type="line"/>
			<point x="-652" y="0" type="line"/>
			<point x="-478" y="171" type="line"/>
			<point x="413" y="171" type="line"/>
			<point x="424" y="246" type="line"/>
			<point x="-509" y="246" type="line"/>
		</contour>
	</outline>
</glyph>
<glyph name="greater_greater_hyphen.init" format="2">
	<advance width="600"/>
	<outline>
		<contour>
			<point x="-546" y="0" type="line"/>
			<point x="-440" y="0" type="line"/>
			<point x="-124" y="314" type="line"/>
			<point x="-365" y="629" type="line"/>
			<point x="-460" y="629" type="line"/>
			<point x="-224" y="319" type="line"/>
		</contour>
		<contour>
			<point x="-167" y="0" type="line"/>
			<point x="-61" y="0" type="line"/>
			<point x="218" y="276" type="line"/>
			<point x="602" y="276" type="line"/>
			<point x="613" y="353" type="line"/>
			<point x="226" y="353" type="line"/>
			<point x="13" y="629" type="line"/>
			<point x="-82" y="629" type="line"/>
			<point x="156" y="320" type="line"/>
		</contour>
	</outline>
</glyph>
<glyph name="greater_hyphen.med" format="2">
	<advance width="600"/>
	<outline>
		<contour>
			<point x="189" y="629" type="line"/>
			<point x="400" y="352" type="line"/>
			<point x="13" y="353" type="line"/>
			<point x="2" y="276" type="line"/>
			<point x="383" y="275" type="line"/>
			<point x="96" y="0" type="line"/>
			<point x="201" y="0" type="line"/>
			<point x="484" y="276" type="line"/>
			<point x="602" y="276" type="line"/>
			<point x="613" y="353" type="line"/>
			<point x="494" y="353" type="line"/>
			<point x="285" y="629" type="line"/>
		</contour>
	</outline>
</glyph>
<glyph name="greater_hyphen_greater.rem" format="2">
	<advance width="600"/>
	<outline>
		<contour>
			<point x="-1096" y="0" type="line"/>
			<point x="-990" y="0" type="line"/>
			<point x="-711" y="276" type="line"/>
			<point x="-49" y="276" type="line"/>
			<point x="332" y="275" type="line"/>
			<point x="45" y="0" type="line"/>
			<point x="150" y="0" type="line"/>
			<point x="472" y="314" type="line"/>
			<point x="234" y="629" type="line"/>
			<point x="138" y="629" type="line"/>
			<point x="349" y="352" type="line"/>
			<point x="44" y="353" type="line"/>
			<point x="-702" y="353" type="line"/>
			<point x="-916" y="629" type="line"/>
			<point x="-1011" y="629" type="line"/>
			<point x="-773" y="320" type="line"/>
		</contour>
	</outline>
</glyph>
<glyph name="hyphen.init" format="2">
	<advance width="600"/>
	<outline>
		<contour>
			<point x="613" y="353" type="line"/>
			<point x="186" y="353" type="line"/>
			<point x="176" y="276" type="line"/>
			<point x="602" y="276" type="line"/>
		</contour>
	</outline>
</glyph>
<glyph name="hyphen_bar.rem" format="2">
	<advance width="600"/>
	<outline>
		<contour>
			<point x="332" y="684" type="line"/>
			<point x="286" y="352" type="line"/>
			<point x="-413" y="352" type="line"/>
			<point x="-424" y="275" type="line"/>
			<point x="275" y="275" type="line"/>
			<point x="228" y="-57" type="line"/>
			<point x="308" y="-57" type="line"/>
			<point x="412" y="684" type="line"/>
		</contour>
	</outline>
</glyph>
<glyph name="hyphen_bar_bar.rem" format="2">
	<advance width="600"/>
	<outline>
		<contour>
			<point x="29" y="683" type="line"/>
			<point x="-51" y="683" type="line"/>
			<point x="-97" y="353" type="line"/>
			<point x="-1014" y="353" type="line"/>
			<point x="-1024" y="276" type="line"/>
			<point x="-108" y="276" type="line"/>
			<point x="-155" y="-56" type="line"/>
			<point x="-75" y="-56" type="line"/>
		</contour>
		<contour>
			<point x="412" y="683" type="line"/>
			<point x="333" y="683" type="line"/>
			<point x="229" y="-56" type="line"/>
			<point x="308" y="-56" type="line"/>
		</contour>
	</outline>
</glyph>
<glyph name="hyphen_greater.rem" format="2">
	<advance width="600"/>
	<outline>
		<contour>
			<point x="13" y="353" type="line"/>
			<point x="-414" y="353" type="line"/>
			<point x="-424" y="276" type="line"/>
			<point x="-80" y="276" type="line"/>
			<point x="301" y="275" type="line"/>
			<point x="14" y="0" type="line"/>
			<point x="119" y="0" type="line"/>
			<point x="441" y="314" type="line"/>
			<point x="203" y="629" type="line"/>
			<point x="107" y="629" type="line"/>
			<point x="318" y="352" type="line"/>
			<point x="13" y="353" type="line"/>
		</contour>
	</outline>
</glyph>
<glyph name="hyphen_greater_greater.rem" format="2">
	<advance width="600"/>
	<outline>
		<contour>
			<point x="60" y="0" type="line"/>
			<point x="166" y="0" type="line"/>
			<point x="480" y="313" type="line"/>
			<point x="239" y="629" type="line"/>
			<point x="145" y="629" type="line"/>
			<point x="380" y="318" type="line"/>
		</contour>
		<contour>
			<point x="-1029" y="353" type="line"/>
			<point x="-1040" y="276" type="line"/>
			<point x="-450" y="276" type="line"/>
			<point x="-70" y="275" type="line"/>
			<point x="-356" y="0" type="line"/>
			<point x="-251" y="0" type="line"/>
			<point x="71" y="314" type="line"/>
			<point x="-168" y="629" type="line"/>
			<point x="-263" y="629" type="line"/>
			<point x="-52" y="352" type="line"/>
			<point x="-357" y="353" type="line"/>
		</contour>
	</outline>
</glyph>
<glyph name="hyphen_less_less.rem" format="2">
	<advance width="600"/>
	<outline>
		<contour>
			<point x="501" y="629" type="line"/>
			<point x="395" y="629" type="line"/>
			<point x="79" y="315" type="line"/>
			<point x="320" y="0" type="line"/>
			<point x="415" y="0" type="line"/>
			<point x="179" y="310" type="line"/>
		</contour>
		<contour>
			<point x="122" y="629" type="line"/>
			<point x="16" y="629" type="line"/>
			<point x="-263" y="353" type="line"/>
			<point x="-1071" y="353" type="line"/>
			<point x="-1082" y="276" type="line"/>
			<point x="-271" y="276" type="line"/>
			<point x="-58" y="0" type="line"/>
			<point x="37" y="0" type="line"/>
			<point x="-201" y="309" type="line"/>
		</contour>
	</outline>
</glyph>
<glyph name="less_asciitilde_asciitilde.cLig" format="2">
	<advance width="600"/>
	<outline>
		<contour>
			<point x="-775" y="0" type="line"/>
			<point x="-986" y="277" type="line"/>
			<point x="-602" y="276" type="line"/>
			<point x="-577" y="230"/>
			<point x="-536" y="206"/>
			<point x="-486" y="206" type="curve" smooth="yes"/>
			<point x="-371" y="206"/>
			<point x="-349" y="343"/>
			<point x="-266" y="343" type="curve" smooth="yes"/>
			<point x="-181" y="343"/>
			<point x="-191" y="208"/>
			<point x="-69" y="208" type="curve" smooth="yes"/>
			<point x="45" y="208"/>
			<point x="72" y="344"/>
			<point x="147" y="344" type="curve"/>
			<point x="233" y="344"/>
			<point x="220" y="207"/>
			<point x="351" y="207" type="curve" smooth="yes"/>
			<point x="435" y="207"/>
			<point x="502" y="275"/>
			<point x="534" y="399" type="curve"/>
			<point x="460" y="399" type="line"/>
			<point x="440" y="326"/>
			<point x="402" y="286"/>
			<point x="352" y="286" type="curve" smooth="yes"/>
			<point x="265" y="286"/>
			<point x="275" y="421"/>
			<point x="153" y="421" type="curve"/>
			<point x="38" y="421"/>
			<point x="18" y="286"/>
			<point x="-65" y="286" type="curve" smooth="yes"/>
			<point x="-151" y="286"/>
			<point x="-137" y="421"/>
			<point x="-258" y="421" type="curve" smooth="yes"/>
			<point x="-378" y="421"/>
			<point x="-395" y="283"/>
			<point x="-479" y="283" type="curve" smooth="yes"/>
			<point x="-519" y="283"/>
			<point x="-543" y="308"/>
			<point x="-554" y="353" type="curve"/>
			<point x="-587" y="353" type="line"/>
			<point x="-968" y="354" type="line"/>
			<point x="-682" y="629" type="line"/>
			<point x="-786" y="629" type="line"/>
			<point x="-1108" y="315" type="line"/>
			<point x="-870" y="0" type="line"/>
		</contour>
	</outline>
</glyph>
<glyph name="less_asterisk.cLig" format="2">
	<advance width="600"/>
	<outline>
		<contour>
			<point x="-95" y="-5" type="line"/>
			<point x="-83" y="78" type="line"/>
			<point x="-430" y="311" type="line"/>
			<point x="-18" y="542" type="line"/>
			<point x="-5" y="634" type="line"/>
			<point x="-486" y="360" type="line"/>
			<point x="-499" y="268" type="line"/>
		</contour>
		<contour>
			<point x="420" y="158" type="line"/>
			<point x="474" y="232" type="line"/>
			<point x="300" y="314" type="line"/>
			<point x="497" y="397" type="line"/>
			<point x="465" y="472" type="line"/>
			<point x="285" y="354" type="line"/>
			<point x="334" y="554" type="line"/>
			<point x="248" y="554" type="line"/>
			<point x="241" y="351" type="line"/>
			<point x="92" y="473" type="line"/>
			<point x="38" y="398" type="line"/>
			<point x="213" y="315" type="line"/>
			<point x="15" y="232" type="line"/>
			<point x="47" y="158" type="line"/>
			<point x="231" y="279" type="line"/>
			<point x="180" y="74" type="line"/>
			<point x="266" y="74" type="line"/>
			<point x="274" y="276" type="line"/>
		</contour>
	</outline>
</glyph>
<glyph name="less_asterisk_greater.cLig" format="2">
	<advance width="600"/>
	<outline>
		<contour>
			<point x="1" y="-5" type="line"/>
			<point x="483" y="268" type="line"/>
			<point x="496" y="360" type="line"/>
			<point x="92" y="635" type="line"/>
			<point x="80" y="553" type="line"/>
			<point x="427" y="318" type="line"/>
			<point x="14" y="87" type="line"/>
		</contour>
		<contour>
			<point x="-678" y="-5" type="line"/>
			<point x="-665" y="78" type="line"/>
			<point x="-1012" y="311" type="line"/>
			<point x="-600" y="542" type="line"/>
			<point x="-587" y="634" type="line"/>
			<point x="-1069" y="360" type="line"/>
			<point x="-1081" y="268" type="line"/>
		</contour>
		<contour>
			<point x="-126" y="163" type="line"/>
			<point x="-73" y="238" type="line"/>
			<point x="-246" y="320" type="line"/>
			<point x="-50" y="403" type="line"/>
			<point x="-82" y="477" type="line"/>
			<point x="-261" y="359" type="line"/>
			<point x="-213" y="560" type="line"/>
			<point x="-299" y="560" type="line"/>
			<point x="-306" y="357" type="line"/>
			<point x="-455" y="478" type="line"/>
			<point x="-508" y="404" type="line"/>
			<point x="-333" y="321" type="line"/>
			<point x="-532" y="238" type="line"/>
			<point x="-500" y="163" type="line"/>
			<point x="-316" y="284" type="line"/>
			<point x="-366" y="79" type="line"/>
			<point x="-280" y="79" type="line"/>
			<point x="-273" y="281" type="line"/>
		</contour>
	</outline>
</glyph>
<glyph name="less_bar.cLig" format="2">
	<advance width="600"/>
	<outline>
		<contour>
			<point x="327" y="708" type="line"/>
			<point x="247" y="708" type="line"/>
			<point x="-347" y="361" type="line"/>
			<point x="-359" y="269" type="line"/>
			<point x="137" y="-79" type="line"/>
			<point x="217" y="-79" type="line"/>
		</contour>
		<contour>
			<point x="151" y="7" type="line"/>
			<point x="-286" y="311" type="line"/>
			<point x="236" y="613" type="line"/>
		</contour>
	</outline>
</glyph>
<glyph name="less_bar_bar.cLig" format="2">
	<advance width="600"/>
	<outline>
		<contour>
			<point x="211" y="-79" type="line"/>
			<point x="321" y="708" type="line"/>
			<point x="241" y="708" type="line"/>
			<point x="131" y="-79" type="line"/>
		</contour>
		<contour>
			<point x="-239" y="708" type="line"/>
			<point x="-319" y="708" type="line"/>
			<point x="-913" y="361" type="line"/>
			<point x="-926" y="269" type="line"/>
			<point x="-429" y="-79" type="line"/>
			<point x="-349" y="-79" type="line"/>
		</contour>
		<contour>
			<point x="-415" y="7" type="line"/>
			<point x="-853" y="311" type="line"/>
			<point x="-331" y="613" type="line"/>
		</contour>
	</outline>
</glyph>
<glyph name="less_dollar_greater.cLig" format="2">
	<advance width="600"/>
	<outline>
		<contour>
			<point x="-456" y="-93" type="line"/>
			<point x="-391" y="-93" type="line"/>
			<point x="-366" y="-10" type="line"/>
			<point x="-351" y="-11"/>
			<point x="-336" y="-12"/>
			<point x="-320" y="-12" type="curve" smooth="yes"/>
			<point x="-170" y="-12"/>
			<point x="-66" y="70"/>
			<point x="-66" y="206" type="curve" smooth="yes"/>
			<point x="-66" y="318"/>
			<point x="-140" y="348"/>
			<point x="-255" y="376" type="curve"/>
			<point x="-182" y="617" type="line"/>
			<point x="-103" y="601"/>
			<point x="-28" y="562"/>
			<point x="60" y="516" type="curve" smooth="yes"/>
			<point x="433" y="317" type="line"/>
			<point x="54" y="135" type="line"/>
			<point x="43" y="46" type="line"/>
			<point x="492" y="268" type="line"/>
			<point x="505" y="360" type="line"/>
			<point x="98" y="580" type="line" smooth="yes"/>
			<point x="2" y="631"/>
			<point x="-74" y="669"/>
			<point x="-158" y="686" type="curve"/>
			<point x="-131" y="774" type="line"/>
			<point x="-196" y="774" type="line"/>
			<point x="-221" y="695" type="line"/>
			<point x="-232" y="695"/>
			<point x="-244" y="696"/>
			<point x="-257" y="696" type="curve" smooth="yes"/>
			<point x="-418" y="696"/>
			<point x="-512" y="613"/>
			<point x="-512" y="484" type="curve" smooth="yes"/>
			<point x="-512" y="363"/>
			<point x="-427" y="331"/>
			<point x="-332" y="309" type="curve"/>
			<point x="-405" y="66" type="line"/>
			<point x="-481" y="76"/>
			<point x="-560" y="101"/>
			<point x="-643" y="140" type="curve" smooth="yes"/>
			<point x="-1010" y="313" type="line"/>
			<point x="-633" y="492" type="line"/>
			<point x="-620" y="582" type="line"/>
			<point x="-1071" y="360" type="line"/>
			<point x="-1084" y="268" type="line"/>
			<point x="-681" y="73" type="line" smooth="yes"/>
			<point x="-600" y="35"/>
			<point x="-517" y="8"/>
			<point x="-430" y="-4" type="curve"/>
		</contour>
		<contour>
			<point x="-427" y="495" type="curve" smooth="yes"/>
			<point x="-427" y="577"/>
			<point x="-366" y="625"/>
			<point x="-263" y="625" type="curve" smooth="yes"/>
			<point x="-238" y="625" type="line"/>
			<point x="-308" y="389" type="line"/>
			<point x="-383" y="408"/>
			<point x="-427" y="427"/>
		</contour>
		<contour>
			<point x="-151" y="193" type="curve" smooth="yes"/>
			<point x="-151" y="109"/>
			<point x="-218" y="60"/>
			<point x="-320" y="60" type="curve" smooth="yes"/>
			<point x="-349" y="60" type="line"/>
			<point x="-279" y="297" type="line"/>
			<point x="-201" y="280"/>
			<point x="-151" y="264"/>
		</contour>
	</outline>
</glyph>
<glyph name="less_equal.cLig" format="2">
	<advance width="600"/>
	<outline>
		<contour>
			<point x="272" y="182" type="line"/>
			<point x="283" y="262" type="line"/>
			<point x="-212" y="459" type="line"/>
			<point x="338" y="657" type="line"/>
			<point x="350" y="742" type="line"/>
			<point x="-278" y="508" type="line"/>
			<point x="-292" y="416" type="line"/>
		</contour>
		<contour>
			<point x="237" y="-61" type="line"/>
			<point x="248" y="13" type="line"/>
			<point x="-315" y="246" type="line"/>
			<point x="-326" y="172" type="line"/>
		</contour>
	</outline>
</glyph>
<glyph name="less_equal_bar.rem" format="2">
	<advance width="600"/>
	<outline>
		<contour>
			<point x="390" y="0" type="line"/>
			<point x="478" y="629" type="line"/>
			<point x="398" y="629" type="line"/>
			<point x="374" y="458" type="line"/>
			<point x="-810" y="458" type="line"/>
			<point x="-634" y="629" type="line"/>
			<point x="-738" y="629" type="line"/>
			<point x="-1057" y="317" type="line"/>
			<point x="-820" y="0" type="line"/>
			<point x="-726" y="0" type="line"/>
			<point x="-854" y="171" type="line"/>
			<point x="334" y="171" type="line"/>
			<point x="310" y="0" type="line"/>
		</contour>
		<contour>
			<point x="-960" y="312" type="line"/>
			<point x="-886" y="383" type="line"/>
			<point x="364" y="383" type="line"/>
			<point x="344" y="246" type="line"/>
			<point x="-910" y="246" type="line"/>
		</contour>
	</outline>
</glyph>
<glyph name="less_equal_equal.rem" format="2">
	<advance width="600"/>
	<outline>
		<contour>
			<point x="454" y="458" type="line"/>
			<point x="-810" y="458" type="line"/>
			<point x="-634" y="629" type="line"/>
			<point x="-738" y="629" type="line"/>
			<point x="-1057" y="317" type="line"/>
			<point x="-820" y="0" type="line"/>
			<point x="-726" y="0" type="line"/>
			<point x="-854" y="171" type="line"/>
			<point x="413" y="171" type="line"/>
			<point x="424" y="246" type="line"/>
			<point x="-910" y="246" type="line"/>
			<point x="-960" y="312" type="line"/>
			<point x="-886" y="383" type="line"/>
			<point x="442" y="383" type="line"/>
		</contour>
	</outline>
</glyph>
